<svg width="321" height="37" viewBox="0 0 321 37" fill="none" xmlns="http://www.w3.org/2000/svg">
<g clip-path="url(#clip0_7_230)">
<path d="M58.5792 36.474H0V0.331055H58.5792V36.474ZM0.336662 36.1356H58.2389V0.669458H0.336662V36.1356Z" fill="white"/>
<path d="M29.2896 8.68079C24.0018 8.68079 19.713 12.9918 19.713 18.3069C19.713 23.622 24.0018 27.933 29.2896 27.933C34.5774 27.933 38.8662 23.622 38.8662 18.3069C38.8588 12.9954 34.5774 8.68814 29.2896 8.68079ZM29.2896 9.01919C34.3761 8.98976 38.5258 13.1095 38.5551 18.226C38.5624 19.3221 38.3758 20.4109 38.0025 21.4371C38.1526 19.8407 37.461 18.2811 36.1802 17.3211C34.5408 15.9197 31.3096 15.7431 29.9007 17.6816C28.6529 19.4361 26.1169 22.033 22.5966 19.6826C21.0853 18.7777 20.2802 17.0305 20.573 15.2833C21.8574 11.5462 25.3558 9.03022 29.2896 9.01919Z" fill="white"/>
<path d="M14.9041 3.17504L9.74237 10.8651L10.9952 11.7148L16.1569 4.02468L14.9041 3.17504Z" fill="white"/>
<path d="M16.8623 4.50854L11.7006 12.1986L12.9535 13.0483L18.1151 5.35818L16.8623 4.50854Z" fill="white"/>
<path d="M18.8168 5.83153L13.6551 13.5216L14.9079 14.3713L20.0696 6.68118L18.8168 5.83153Z" fill="white"/>
<path d="M40.8453 26.5153L38.4432 30.1044L39.6971 30.9523L42.0992 27.3632L40.8453 26.5153Z" fill="white"/>
<path d="M42.7998 27.8348L40.3977 31.424L41.6517 32.2719L44.0538 28.6828L42.7998 27.8348Z" fill="white"/>
<path d="M44.7628 29.1605L42.3607 32.7496L43.6147 33.5976L46.0168 30.0085L44.7628 29.1605Z" fill="white"/>
<path d="M43.6783 22.2808L41.2762 25.8699L42.5302 26.7178L44.9323 23.1287L43.6783 22.2808Z" fill="white"/>
<path d="M45.6399 23.6L43.2379 27.1891L44.4918 28.037L46.8939 24.4479L45.6399 23.6Z" fill="white"/>
<path d="M47.5938 24.9216L45.1917 28.5107L46.4457 29.3587L48.8478 25.7696L47.5938 24.9216Z" fill="white"/>
<path d="M17.7202 26.5859L16.4662 27.4338L18.8683 31.0229L20.1223 30.175L17.7202 26.5859Z" fill="white"/>
<path d="M15.7652 27.9031L14.5112 28.7511L16.9133 32.3402L18.1673 31.4923L15.7652 27.9031Z" fill="white"/>
<path d="M13.8076 29.2286L12.5536 30.0765L14.9557 33.6656L16.2097 32.8177L13.8076 29.2286Z" fill="white"/>
<path d="M14.8903 22.3431L13.6363 23.191L16.0384 26.7801L17.2923 25.9322L14.8903 22.3431Z" fill="white"/>
<path d="M12.9371 23.6674L11.6832 24.5154L14.0852 28.1045L15.3392 27.2565L12.9371 23.6674Z" fill="white"/>
<path d="M10.9795 24.9929L9.72552 25.8408L12.1276 29.4299L13.3816 28.582L10.9795 24.9929Z" fill="white"/>
<path d="M46.3909 7.30525L45.137 8.1532L47.539 11.7423L48.793 10.8943L46.3909 7.30525Z" fill="white"/>
<path d="M42.4739 9.9416L41.2199 10.7896L43.622 14.3787L44.876 13.5307L42.4739 9.9416Z" fill="white"/>
<path d="M43.5563 3.06391L42.3024 3.91187L44.7044 7.50097L45.9584 6.65302L43.5563 3.06391Z" fill="white"/>
<path d="M41.6005 4.38459L40.3465 5.23254L45.6429 13.1463L46.8969 12.2983L41.6005 4.38459Z" fill="white"/>
<path d="M39.6472 5.71052L38.3932 6.55847L40.7953 10.1476L42.0493 9.29962L39.6472 5.71052Z" fill="white"/>
<path fill-rule="evenodd" clip-rule="evenodd" d="M142.513 20.5286H84V1.30945H142.513V4.05714H107.405V6.80483H142.513V9.55251H107.405V12.3002H142.513V15.0479H107.405V17.7956H142.513V20.5433V20.5286ZM93.6717 9.7916L93.4595 10.5493H92.7679L93.3277 11.0165L93.1155 11.7742L93.6754 11.3071L94.2353 11.7742L94.023 11.0165L94.5829 10.5493H93.8913L93.679 9.7916H93.6717ZM99.4462 7.86418L99.234 8.62191H98.5423L99.1022 9.08905L98.89 9.84678L99.4499 9.37963L100.01 9.84678L99.7975 9.08905L100.357 8.62191H99.6658L99.4535 7.86418H99.4462ZM89.8367 2.07821L89.6244 2.83594H88.9328L89.4927 3.30309L89.2805 4.06082L89.8404 3.59367L90.4002 4.06082L90.188 3.30309L90.7479 2.83594H90.0563L89.844 2.07821H89.8367ZM93.6717 2.07821L93.4595 2.83594H92.7679L93.3277 3.30309L93.1155 4.06082L93.6754 3.59367L94.2353 4.06082L94.023 3.30309L94.5829 2.83594H93.8913L93.679 2.07821H93.6717ZM97.5031 2.07821L97.2908 2.83594H96.5992L97.1591 3.30309L96.9468 4.06082L97.5067 3.59367L98.0666 4.06082L97.8544 3.30309L98.4143 2.83594H97.7226L97.5104 2.07821H97.5031ZM91.7762 11.7154L91.5639 12.4731H90.8723L91.4322 12.9402L91.2199 13.698L91.7798 13.2308L92.3397 13.698L92.1275 12.9402L92.6873 12.4731H91.9957L91.7835 11.7154H91.7762ZM95.6075 11.7154L95.3953 12.4731H94.7037L95.2635 12.9402L95.0513 13.698L95.6112 13.2308L96.1711 13.698L95.9588 12.9402L96.5187 12.4731H95.8271L95.6148 11.7154H95.6075ZM99.4389 11.7154L99.2266 12.4731H98.535L99.0949 12.9402L98.8827 13.698L99.4425 13.2308L100.002 13.698L99.7902 12.9402L100.35 12.4731H99.6584L99.4462 11.7154H99.4389ZM103.274 11.7154L103.062 12.4731H102.37L102.93 12.9402L102.718 13.698L103.278 13.2308L103.837 13.698L103.625 12.9402L104.185 12.4731H103.493L103.281 11.7154H103.274ZM99.4389 15.5702L99.2266 16.3279H98.535L99.0949 16.7951L98.8827 17.5528L99.4425 17.0857L100.002 17.5528L99.7902 16.7951L100.35 16.3279H99.6584L99.4462 15.5702H99.4389ZM103.274 15.5702L103.062 16.3279H102.37L102.93 16.7951L102.718 17.5528L103.278 17.0857L103.837 17.5528L103.625 16.7951L104.185 16.3279H103.493L103.281 15.5702H103.274ZM87.8936 11.7154L87.6813 12.4731H86.9897L87.5496 12.9402L87.3373 13.698L87.8972 13.2308L88.4571 13.698L88.2449 12.9402L88.8048 12.4731H88.1131L87.9009 11.7154H87.8936ZM101.331 2.07821L101.119 2.83594H100.427L100.987 3.30309L100.775 4.06082L101.334 3.59367L101.894 4.06082L101.682 3.30309L102.242 2.83594H101.55L101.338 2.07821H101.331ZM87.8936 7.86418L87.6813 8.62191H86.9897L87.5496 9.08905L87.3373 9.84678L87.8972 9.37963L88.4571 9.84678L88.2449 9.08905L88.8048 8.62191H88.1131L87.9009 7.86418H87.8936ZM87.8936 15.5702L87.6813 16.3279H86.9897L87.5496 16.7951L87.3373 17.5528L87.8972 17.0857L88.4571 17.5528L88.2449 16.7951L88.8048 16.3279H88.1131L87.9009 15.5702H87.8936ZM91.7725 15.5702L91.5603 16.3279H90.8686L91.4285 16.7951L91.2163 17.5528L91.7762 17.0857L92.336 17.5528L92.1238 16.7951L92.6837 16.3279H91.9921L91.7798 15.5702H91.7725ZM95.6039 15.5702L95.3916 16.3279H94.7L95.2599 16.7951L95.0476 17.5528L95.6075 17.0857L96.1674 17.5528L95.9552 16.7951L96.515 16.3279H95.8234L95.6112 15.5702H95.6039ZM89.833 5.93307L89.6208 6.6908H88.9292L89.4891 7.15794L89.2768 7.91567L89.8367 7.44853L90.3966 7.91567L90.1843 7.15794L90.7442 6.6908H90.0526L89.8404 5.93307H89.833ZM105.166 2.07821L104.954 2.83594H104.262L104.822 3.30309L104.61 4.06082L105.169 3.59367L105.729 4.06082L105.517 3.30309L106.077 2.83594H105.385L105.173 2.07821H105.166ZM101.334 9.78793L101.122 10.5457H100.431L100.99 11.0128L100.778 11.7705L101.338 11.3034L101.898 11.7705L101.686 11.0128L102.246 10.5457H101.554L101.342 9.78793H101.334ZM97.5031 17.494L97.2908 18.2517H96.5992L97.1591 18.7188L96.9468 19.4766L97.5067 19.0094L98.0666 19.4766L97.8544 18.7188L98.4143 18.2517H97.7226L97.5104 17.494H97.5031ZM101.334 17.494L101.122 18.2517H100.431L100.99 18.7188L100.778 19.4766L101.338 19.0094L101.898 19.4766L101.686 18.7188L102.246 18.2517H101.554L101.342 17.494H101.334ZM105.166 17.494L104.954 18.2517H104.262L104.822 18.7188L104.61 19.4766L105.169 19.0094L105.729 19.4766L105.517 18.7188L106.077 18.2517H105.385L105.173 17.494H105.166ZM85.9504 13.6391L85.7382 14.3968H85.0466L85.6065 14.864L85.3942 15.6217L85.9541 15.1546L86.514 15.6217L86.3017 14.864L86.8616 14.3968H86.17L85.9578 13.6391H85.9504ZM89.833 13.6391L89.6208 14.3968H88.9292L89.4891 14.864L89.2768 15.6217L89.8367 15.1546L90.3966 15.6217L90.1843 14.864L90.7442 14.3968H90.0526L89.8404 13.6391H89.833ZM93.6644 13.6391L93.4522 14.3968H92.7605L93.3204 14.864L93.1082 15.6217L93.6681 15.1546L94.2279 15.6217L94.0157 14.864L94.5756 14.3968H93.884L93.6717 13.6391H93.6644ZM89.833 17.494L89.6208 18.2517H88.9292L89.4891 18.7188L89.2768 19.4766L89.8367 19.0094L90.3966 19.4766L90.1843 18.7188L90.7442 18.2517H90.0526L89.8404 17.494H89.833ZM93.6644 17.494L93.4522 18.2517H92.7605L93.3204 18.7188L93.1082 19.4766L93.6681 19.0094L94.2279 19.4766L94.0157 18.7188L94.5756 18.2517H93.884L93.6717 17.494H93.6644ZM87.8899 4.00196L87.6777 4.75969H86.986L87.5459 5.22684L87.3337 5.98456L87.8936 5.51742L88.4535 5.98456L88.2412 5.22684L88.8011 4.75969H88.1095L87.8972 4.00196H87.8899ZM91.7688 4.00196L91.5566 4.75969H90.865L91.4249 5.22684L91.2126 5.98456L91.7725 5.51742L92.3324 5.98456L92.1201 5.22684L92.68 4.75969H91.9884L91.7762 4.00196H91.7688ZM95.6039 4.00196L95.3916 4.75969H94.7L95.2599 5.22684L95.0476 5.98456L95.6075 5.51742L96.1674 5.98456L95.9552 5.22684L96.515 4.75969H95.8234L95.6112 4.00196H95.6039ZM85.9504 17.494L85.7382 18.2517H85.0466L85.6065 18.7188L85.3942 19.4766L85.9541 19.0094L86.514 19.4766L86.3017 18.7188L86.8616 18.2517H86.17L85.9578 17.494H85.9504ZM91.7688 7.8605L91.5566 8.61823H90.865L91.4249 9.08537L91.2126 9.8431L91.7725 9.37596L92.3324 9.8431L92.1201 9.08537L92.68 8.61823H91.9884L91.7762 7.8605H91.7688ZM95.6039 7.8605L95.3916 8.61823H94.7L95.2599 9.08537L95.0476 9.8431L95.6075 9.37596L96.1674 9.8431L95.9552 9.08537L96.515 8.61823H95.8234L95.6112 7.8605H95.6039ZM93.6607 5.92939L93.4485 6.68712H92.7569L93.3167 7.15426L93.1045 7.91199L93.6644 7.44485L94.2243 7.91199L94.012 7.15426L94.5719 6.68712H93.8803L93.6681 5.92939H93.6607ZM97.4958 5.92939L97.2835 6.68712H96.5919L97.1518 7.15426L96.9395 7.91199L97.4994 7.44485L98.0593 7.91199L97.8471 7.15426L98.4069 6.68712H97.7153L97.5031 5.92939H97.4958ZM101.327 5.92939L101.115 6.68712H100.423L100.983 7.15426L100.771 7.91199L101.331 7.44485L101.891 7.91199L101.678 7.15426L102.238 6.68712H101.547L101.334 5.92939H101.327ZM105.158 5.92939L104.946 6.68712H104.255L104.814 7.15426L104.602 7.91199L105.162 7.44485L105.722 7.91199L105.51 7.15426L106.07 6.68712H105.378L105.166 5.92939H105.158ZM85.9431 2.07453L85.7309 2.83226H85.0393L85.5991 3.29941L85.3869 4.05714L85.9468 3.58999L86.5067 4.05714L86.2944 3.29941L86.8543 2.83226H86.1627L85.9504 2.07453H85.9431ZM85.9431 9.78425L85.7309 10.542H85.0393L85.5991 11.0091L85.3869 11.7668L85.9468 11.2997L86.5067 11.7668L86.2944 11.0091L86.8543 10.542H86.1627L85.9504 9.78425H85.9431ZM105.158 13.6391L104.946 14.3968H104.255L104.814 14.864L104.602 15.6217L105.162 15.1546L105.722 15.6217L105.51 14.864L106.07 14.3968H105.378L105.166 13.6391H105.158ZM89.8257 9.78425L89.6135 10.542H88.9218L89.4817 11.0091L89.2695 11.7668L89.8294 11.2997L90.3893 11.7668L90.177 11.0091L90.7369 10.542H90.0453L89.833 9.78425H89.8257ZM97.4921 13.6391L97.2798 14.3968H96.5882L97.1481 14.864L96.9359 15.6217L97.4958 15.1546L98.0556 15.6217L97.8434 14.864L98.4033 14.3968H97.7117L97.4994 13.6391H97.4921ZM101.323 13.6391L101.111 14.3968H100.42L100.979 14.864L100.767 15.6217L101.327 15.1546L101.887 15.6217L101.675 14.864L102.235 14.3968H101.543L101.331 13.6391H101.323ZM105.155 9.78425L104.943 10.542H104.251L104.811 11.0091L104.599 11.7668L105.158 11.2997L105.718 11.7668L105.506 11.0091L106.066 10.542H105.374L105.162 9.78425H105.155ZM85.9395 5.92939L85.7272 6.68712H85.0356L85.5955 7.15426L85.3832 7.91199L85.9431 7.44485L86.503 7.91199L86.2908 7.15426L86.8506 6.68712H86.159L85.9468 5.92939H85.9395ZM99.4279 4.00196L99.2157 4.75969H98.524L99.0839 5.22684L98.8717 5.98456L99.4316 5.51742L99.9914 5.98456L99.7792 5.22684L100.339 4.75969H99.6475L99.4352 4.00196H99.4279ZM103.263 4.00196L103.051 4.75969H102.359L102.919 5.22684L102.707 5.98456L103.267 5.51742L103.826 5.98456L103.614 5.22684L104.174 4.75969H103.482L103.27 4.00196H103.263ZM97.4884 9.78425L97.2762 10.542H96.5846L97.1445 11.0091L96.9322 11.7668L97.4921 11.2997L98.052 11.7668L97.8397 11.0091L98.3996 10.542H97.708L97.4958 9.78425H97.4884ZM103.263 7.85682L103.051 8.61455H102.359L102.919 9.08169L102.707 9.83942L103.267 9.37228L103.826 9.83942L103.614 9.08169L104.174 8.61455H103.482L103.27 7.85682H103.263Z" fill="white"/>
<path fill-rule="evenodd" clip-rule="evenodd" d="M84 23.2726H142.513V26.0203H84V23.2726Z" fill="white"/>
<path fill-rule="evenodd" clip-rule="evenodd" d="M84 28.7643H142.513V31.512H84V28.7643Z" fill="white"/>
<path fill-rule="evenodd" clip-rule="evenodd" d="M84 34.256H142.513V37.0037H84V34.256Z" fill="white"/>
<path d="M229.921 23.2505L230.81 22.4082V23.2505H229.921ZM230.81 34.8703H174.086V23.9604H230.818L230.81 34.8703ZM174.957 12.3297L174.061 13.172V12.3297H174.957ZM230.81 13.8525V15.0222L222.13 23.2505H220.89L230.81 13.8525ZM230.81 12.429V13.606L220.63 23.2505H219.389L230.81 12.4326V12.429ZM229.405 12.3297H230.638L219.122 23.2468H217.889L229.405 12.3297ZM227.901 12.3297H229.134L217.618 23.2468H216.385L227.901 12.3297ZM226.393 12.3297H227.634L216.107 23.2468H214.874L226.393 12.3297ZM224.893 12.3297H226.126L214.61 23.2468H213.377L224.893 12.3297ZM223.389 12.3297H224.622L213.095 23.2468H211.862L223.389 12.3297ZM221.881 12.3297H223.115L211.599 23.2468H210.365L221.881 12.3297ZM220.381 12.3297H221.614L210.087 23.2468H208.854L220.381 12.3297ZM218.87 12.3297H220.103L208.576 23.2468H207.343L218.87 12.3297ZM217.369 12.3297H218.603L207.068 23.2468H205.835L217.369 12.3297ZM215.858 12.3297H217.091L205.564 23.2468H204.324L215.858 12.3297ZM214.35 12.3297H215.584L204.057 23.2468H202.823L214.35 12.3297ZM212.857 12.3297H214.091L202.556 23.2468H201.316L212.857 12.3297ZM211.346 12.3297H212.587L201.052 23.2468H199.812L211.346 12.3297ZM209.827 12.3297H211.068L199.541 23.2468H198.3L209.827 12.3297ZM208.32 12.3297H209.56L198.044 23.2468H196.804L208.32 12.3297ZM206.819 12.3297H208.06L196.533 23.2468H195.292L206.819 12.3297ZM205.315 12.3297H206.556L195.029 23.2468H193.788L205.315 12.3297ZM203.808 12.3297H205.048L193.521 23.2468H192.281L203.808 12.3297ZM202.307 12.3297H203.548L192.021 23.2468H190.78L202.307 12.3297ZM200.796 12.3297H202.037L190.521 23.2468H189.28L200.796 12.3297ZM199.296 12.3297H200.536L189.009 23.2468H187.769L199.296 12.3297ZM197.795 12.3297H199.036L187.509 23.2468H186.268L197.795 12.3297ZM196.284 12.3297H197.525L185.998 23.2468H184.757L196.284 12.3297ZM194.784 12.3297H196.024L184.497 23.2468H183.257L194.784 12.3297ZM193.272 12.3297H194.513L182.997 23.2468H181.756L193.272 12.3297ZM191.772 12.3297H193.013L181.486 23.2468H180.252L191.772 12.3297ZM190.272 12.3297H191.512L179.985 23.2468H178.745L190.272 12.3297ZM188.76 12.3297H190.001L178.474 23.2468H177.233L188.76 12.3297ZM187.26 12.3297H188.501L176.974 23.2468H175.733L187.26 12.3297ZM185.752 12.3297H186.993L175.477 23.2468H174.236L185.752 12.3297ZM174.061 20.5507L182.741 12.3297H183.981L174.061 21.7277V20.5507ZM182.481 12.3297L174.061 20.2969V19.1271L181.229 12.337L182.481 12.3297ZM180.973 12.3297L174.064 18.877V17.7L179.733 12.3297H180.973ZM179.469 12.3297L174.061 17.4462V16.2691L178.229 12.3223L179.469 12.3297ZM177.951 12.3297L174.061 16.0227V14.8456L176.717 12.3297H177.951ZM174.061 13.4258L175.217 12.3297H176.45L174.061 14.5918V13.4221V13.4258ZM174.061 21.9815L184.241 12.337H185.482L174.061 23.1475V21.9815ZM230.81 16.4494L223.634 23.2468H222.394L230.807 15.2796L230.81 16.4494ZM230.81 19.5538V20.7235L228.154 23.2468H226.92L230.81 19.5538ZM230.81 18.1267V19.2964L226.642 23.2432H225.409L230.81 18.1267ZM230.81 17.8729L225.142 23.2432H223.901L230.81 16.6958V17.8729ZM228.421 23.2505L230.818 20.9773V22.1544L229.661 23.2505H228.421ZM231.191 0H173.709C173.501 0 173.329 0.161845 173.329 0.360473V35.2381C173.329 35.433 173.501 35.5986 173.709 35.5986H231.191C231.399 35.5986 231.571 35.4367 231.571 35.2381V0.360473C231.571 0.154489 231.399 0 231.191 0Z" fill="white"/>
<path d="M263 1V36.4661H320.917V1H263ZM273.286 13.6901L270.765 12.0423L268.233 13.6791L269.005 10.7732L266.663 8.87156L269.678 8.71707L270.765 5.90317L271.852 8.71707L274.867 8.87524L272.525 10.7769L273.286 13.6901ZM277.422 4.25897L278.541 4.65255L279.361 3.79551V4.97992L280.433 5.48384L279.288 5.8296L279.134 6.9993L278.468 6.02823L277.286 6.24893L278.007 5.30361L277.422 4.25897ZM279.31 17.0116L279.138 18.1887L278.472 17.2029L277.297 17.4015L278.029 16.4709L277.476 15.4189L278.589 15.8235L279.416 14.9775L279.376 16.1619L280.444 16.6806L279.31 17.0116ZM282.775 14.6428L281.769 13.977L280.781 14.6428L281.074 13.4915L280.155 12.7742L281.341 12.708L281.754 11.5972L282.193 12.708L283.379 12.7595L282.464 13.5172L282.775 14.6428ZM282.215 9.15479L281.601 10.1663L281.374 9.00398L280.228 8.71707L281.29 8.15797L281.183 6.98091L282.058 7.78646L283.152 7.32667L282.625 8.39706L283.405 9.29456L282.219 9.15479H282.215Z" fill="white"/>
</g>
<defs>
<clipPath id="clip0_7_230">
<rect width="321" height="37" fill="white"/>
</clipPath>
</defs>
</svg>
