<svg width="655" height="51" viewBox="0 0 655 51" fill="none" xmlns="http://www.w3.org/2000/svg">
<g clip-path="url(#clip0_7_519)">
<path d="M25.5326 7.26084L27.5364 6.72286L29.1647 12.6857L26.2115 13.5303L21.9065 14.6844C19.0135 15.4598 17.2981 18.4352 18.0732 21.3295L19.7646 27.644L19.7886 27.7372L19.9809 28.5607L20.1341 29.285C20.1551 29.3962 20.1761 29.5044 20.1942 29.6096L20.2873 30.1806L20.3203 30.4301C20.3504 30.6856 20.3323 31.0372 20.2663 31.482L20.1671 32.0591C20.1461 32.1642 20.1251 32.2694 20.101 32.3806L19.9328 33.0929C19.8997 33.2192 19.8667 33.3484 19.8337 33.4837L19.5993 34.3312L19.3199 35.2689L18.9955 36.2968C18.8333 36.7957 18.62 37.2736 18.3556 37.7244L13.5249 45.9835C12.7678 47.2758 13.2034 48.9378 14.4952 49.6952C15.787 50.4526 17.4483 50.0168 18.2054 48.7244L23.7481 39.2572L24.1326 38.5539C24.7455 37.3998 25.2352 36.3329 25.6047 35.3591V35.6656C25.6047 36.2577 25.5326 36.8468 25.3884 37.4238L22.8348 47.6244C22.4713 49.0791 23.3546 50.5518 24.8056 50.9154C26.2596 51.2791 27.7317 50.3955 28.0952 48.9438L30.8921 37.7755C31.0152 37.2826 31.1174 36.7867 31.1985 36.2878C31.6852 33.3003 31.6281 30.4902 31.0273 27.8544L30.9852 27.6831C30.9642 27.5418 30.9371 27.3976 30.8981 27.2533L30.4655 25.6424L30.2882 24.9511L29.426 21.7442V21.7503L28.5548 18.5043L32.5834 17.3502C34.3769 16.8363 35.4224 14.9759 34.9297 13.1756L32.6525 4.84142C32.256 3.39579 30.7659 2.54524 29.3209 2.93895C28.3475 3.20644 27.6445 3.96983 27.4102 4.8835L24.9288 5.54771C25.1991 6.08269 25.4064 6.65373 25.5416 7.25483L25.5326 7.26084Z" fill="white"/>
<path d="M18.4728 14.2516C21.4679 14.2516 23.8953 11.8232 23.8953 8.82675C23.8953 5.83028 21.4679 3.40186 18.4728 3.40186C15.4776 3.40186 13.0502 5.83028 13.0502 8.82675C13.0502 9.42183 13.1463 9.99889 13.3236 10.5339C14.0386 12.6948 16.0724 14.2516 18.4728 14.2516Z" fill="white"/>
<path d="M3.75526 13.0978L11.5752 11.003L11.455 10.5702C11.3468 10.1344 11.2777 9.68062 11.2537 9.21777L0.669961 12.0549C0.189291 12.1842 -0.0991111 12.6801 0.030069 13.161L0.264396 14.0356C0.549793 15.1055 1.418 15.923 2.50252 16.1454L2.71281 16.1875C2.90207 16.2266 3.10035 16.2205 3.28661 16.1695C3.95354 15.9921 4.34709 15.3069 4.16984 14.6397L3.75526 13.0978Z" fill="white"/>
<path fill-rule="evenodd" clip-rule="evenodd" d="M228.414 2.96021C229.892 0.399543 232.834 -0.751557 235.039 0.522767C237.244 1.79709 237.718 4.91979 236.24 7.48045C234.943 9.72855 232.515 10.8887 230.451 10.2786L227.243 15.8417L231.344 19.9231L261.295 11.8985C262.743 11.5108 264.227 12.3704 264.615 13.816C265.002 15.2616 264.143 16.7494 262.698 17.1371L250.378 20.4401L253.154 30.806L255.488 39.3686C255.921 40.9555 255.23 42.6326 253.806 43.4531L244.934 48.5714C243.637 49.3197 241.978 48.8749 241.23 47.5766C240.482 46.2782 240.927 44.6192 242.225 43.8708L249.888 39.4498L248.335 33.7453L244.922 39.6601C244.277 40.7782 243.084 41.4694 241.792 41.4694H231.316C229.82 41.4694 228.604 40.2552 228.604 38.7555C228.604 37.2558 229.817 36.0415 231.316 36.0415H240.75L242.513 32.985L239.905 23.2442L232.752 25.1617C230.887 25.6606 228.892 25.1316 227.522 23.7672L223.388 19.6496C222.328 18.5917 222.322 16.8756 223.379 15.8147C223.992 15.1985 224.827 14.9401 225.627 15.0362L228.892 9.37691C227.33 7.8922 227.123 5.20831 228.42 2.96021H228.414ZM234.675 6.5758C235.694 4.81159 235.387 2.80994 234.134 2.08862C232.882 1.3643 230.995 2.10064 229.98 3.86486C228.961 5.62908 229.268 7.63073 230.52 8.35204C231.773 9.07636 233.66 8.34002 234.675 6.5758Z" fill="white"/>
<path d="M247.68 10.1192C247.68 13.1157 245.253 15.5441 242.258 15.5441C239.263 15.5441 236.835 13.1157 236.835 10.1192C236.835 7.12276 239.263 4.69434 242.258 4.69434C245.253 4.69434 247.68 7.12276 247.68 10.1192Z" fill="white"/>
<path d="M447.921 4.81445H426.096C420.079 4.81445 415.182 9.71339 415.182 15.7334V33.2012C415.182 39.2212 420.079 44.1201 426.096 44.1201H447.924C453.942 44.1201 458.839 39.2212 458.839 33.2012V15.7334C458.839 9.71339 453.945 4.81445 447.924 4.81445H447.921ZM434.186 26.0121L429.821 30.3791C429.395 30.8058 428.836 31.0192 428.277 31.0192C427.718 31.0192 427.159 30.8058 426.733 30.3791C425.88 29.5255 425.88 28.143 426.733 27.2924L429.554 24.4703L426.733 21.6481C425.88 20.7946 425.88 19.4121 426.733 18.5615C427.586 17.708 428.968 17.708 429.818 18.5615L434.183 22.9285C435.036 23.782 435.036 25.1616 434.183 26.0151L434.186 26.0121ZM445.74 31.0192H439.191C437.987 31.0192 437.007 30.0394 437.007 28.8343C437.007 27.6291 437.987 26.6493 439.191 26.6493H445.74C446.945 26.6493 447.924 27.6291 447.924 28.8343C447.924 30.0394 446.945 31.0192 445.74 31.0192Z" fill="white"/>
<path fill-rule="evenodd" clip-rule="evenodd" d="M637.098 5.94783C632.351 5.95083 627.797 7.84128 624.438 11.1954C621.08 14.5525 619.19 19.1058 619.184 23.8575V35.8103C619.184 40.5048 616.973 44.9289 613.218 47.7481H643.067C646.234 47.7481 649.268 46.4888 651.506 44.2497C653.744 42.0106 655.003 38.9751 655.003 35.8073V23.8575C655.003 19.1058 653.116 14.5525 649.758 11.1924C646.402 7.83227 641.848 5.94783 637.098 5.94783ZM643.064 19.3883C643.665 19.3944 644.206 19.761 644.431 20.317C644.657 20.873 644.527 21.5132 644.101 21.934C643.674 22.3578 643.034 22.481 642.479 22.2496C641.923 22.0211 641.562 21.4771 641.562 20.8761C641.562 20.4793 641.722 20.0976 642.004 19.8181C642.286 19.5386 642.668 19.3853 643.064 19.3883ZM635.596 19.3883C636.197 19.3883 636.741 19.752 636.972 20.308C637.2 20.864 637.074 21.5072 636.647 21.931C636.221 22.3578 635.581 22.487 635.025 22.2556C634.469 22.0272 634.106 21.4832 634.106 20.8791C634.112 20.0586 634.776 19.3944 635.596 19.3883ZM644.554 28.1553C642.965 29.066 641.16 29.5168 639.33 29.4627C637.525 29.5078 635.74 29.057 634.175 28.1553C633.823 27.972 633.562 27.6564 633.445 27.2777C633.328 26.902 633.364 26.4903 633.547 26.1417C633.944 25.4203 634.845 25.1529 635.572 25.5406C636.704 26.2288 638.008 26.5774 639.333 26.5444C640.667 26.5744 641.98 26.2258 643.121 25.5406C643.842 25.1438 644.75 25.4053 645.146 26.1296C645.543 26.854 645.278 27.7586 644.554 28.1553Z" fill="white"/>
</g>
<defs>
<clipPath id="clip0_7_519">
<rect width="655" height="51" fill="white"/>
</clipPath>
</defs>
</svg>
