<svg width="324" height="83" viewBox="0 0 324 83" fill="none" xmlns="http://www.w3.org/2000/svg">
<path d="M15.22 69V62H15.65L20.64 68.37H20.41V62H20.92V69H20.5L15.5 62.63H15.73V69H15.22ZM26.4945 69V67.81L26.4745 67.63V65.67C26.4745 65.1833 26.3412 64.8133 26.0745 64.56C25.8145 64.3067 25.4312 64.18 24.9245 64.18C24.5645 64.18 24.2279 64.2433 23.9145 64.37C23.6079 64.49 23.3445 64.6467 23.1245 64.84L22.8745 64.48C23.1345 64.2467 23.4479 64.0667 23.8145 63.94C24.1812 63.8067 24.5645 63.74 24.9645 63.74C25.6112 63.74 26.1079 63.9033 26.4545 64.23C26.8012 64.5567 26.9745 65.0433 26.9745 65.69V69H26.4945ZM24.6145 69.04C24.2279 69.04 23.8912 68.98 23.6045 68.86C23.3245 68.7333 23.1079 68.5567 22.9545 68.33C22.8079 68.1033 22.7345 67.8433 22.7345 67.55C22.7345 67.2833 22.7945 67.0433 22.9145 66.83C23.0412 66.61 23.2479 66.4333 23.5345 66.3C23.8212 66.16 24.2045 66.09 24.6845 66.09H26.6045V66.48H24.6945C24.1545 66.48 23.7745 66.58 23.5545 66.78C23.3412 66.98 23.2345 67.23 23.2345 67.53C23.2345 67.8633 23.3612 68.13 23.6145 68.33C23.8679 68.53 24.2245 68.63 24.6845 68.63C25.1245 68.63 25.4945 68.53 25.7945 68.33C26.1012 68.13 26.3279 67.84 26.4745 67.46L26.6145 67.8C26.4745 68.18 26.2345 68.4833 25.8945 68.71C25.5612 68.93 25.1345 69.04 24.6145 69.04ZM30.5546 69.04C30.0946 69.04 29.7413 68.9133 29.4946 68.66C29.2546 68.4067 29.1346 68.06 29.1346 67.62V62.64H29.6346V67.57C29.6346 67.9033 29.7179 68.16 29.8846 68.34C30.0513 68.52 30.2913 68.61 30.6046 68.61C30.9313 68.61 31.2013 68.5133 31.4146 68.32L31.6246 68.67C31.4913 68.7967 31.3279 68.89 31.1346 68.95C30.9479 69.01 30.7546 69.04 30.5546 69.04ZM28.1746 64.21V63.78H31.2946V64.21H28.1746ZM33.019 69V63.78H33.519V69H33.019ZM33.269 62.51C33.1557 62.51 33.059 62.47 32.979 62.39C32.899 62.31 32.859 62.2167 32.859 62.11C32.859 61.9967 32.899 61.9 32.979 61.82C33.059 61.74 33.1557 61.7 33.269 61.7C33.389 61.7 33.4857 61.74 33.559 61.82C33.639 61.8933 33.679 61.9867 33.679 62.1C33.679 62.2133 33.639 62.31 33.559 62.39C33.4857 62.47 33.389 62.51 33.269 62.51ZM36.9464 69L34.5964 63.78H35.1264L37.3264 68.72H37.0864L39.3064 63.78H39.8164L37.4564 69H36.9464ZM42.8831 69.04C42.3565 69.04 41.8898 68.9267 41.4831 68.7C41.0831 68.4733 40.7665 68.16 40.5331 67.76C40.3065 67.36 40.1931 66.9033 40.1931 66.39C40.1931 65.87 40.2998 65.4133 40.5131 65.02C40.7331 64.62 41.0331 64.3067 41.4131 64.08C41.7931 63.8533 42.2198 63.74 42.6931 63.74C43.1665 63.74 43.5898 63.85 43.9631 64.07C44.3431 64.29 44.6398 64.6 44.8531 65C45.0731 65.3933 45.1831 65.85 45.1831 66.37C45.1831 66.39 45.1798 66.4133 45.1731 66.44C45.1731 66.46 45.1731 66.4833 45.1731 66.51H40.5631V66.12H44.9031L44.7031 66.31C44.7098 65.9033 44.6231 65.54 44.4431 65.22C44.2698 64.8933 44.0331 64.64 43.7331 64.46C43.4331 64.2733 43.0865 64.18 42.6931 64.18C42.3065 64.18 41.9598 64.2733 41.6531 64.46C41.3531 64.64 41.1165 64.8933 40.9431 65.22C40.7698 65.54 40.6831 65.9067 40.6831 66.32V66.41C40.6831 66.8367 40.7765 67.2167 40.9631 67.55C41.1565 67.8767 41.4198 68.1333 41.7531 68.32C42.0865 68.5 42.4665 68.59 42.8931 68.59C43.2265 68.59 43.5365 68.53 43.8231 68.41C44.1165 68.29 44.3631 68.1067 44.5631 67.86L44.8531 68.19C44.6265 68.47 44.3398 68.6833 43.9931 68.83C43.6531 68.97 43.2831 69.04 42.8831 69.04Z" fill="white"/>
<g clip-path="url(#clip0_7_226)">
<path d="M58.5792 53.474H0V17.3311H58.5792V53.474ZM0.336662 53.1356H58.2389V17.6695H0.336662V53.1356Z" fill="white"/>
<path d="M29.2896 25.6808C24.0018 25.6808 19.713 29.9918 19.713 35.3069C19.713 40.622 24.0018 44.933 29.2896 44.933C34.5774 44.933 38.8662 40.622 38.8662 35.3069C38.8588 29.9954 34.5774 25.6881 29.2896 25.6808ZM29.2896 26.0192C34.3761 25.9898 38.5258 30.1095 38.5551 35.226C38.5624 36.3221 38.3758 37.4109 38.0025 38.4371C38.1526 36.8407 37.461 35.2811 36.1802 34.3211C34.5408 32.9197 31.3096 32.7431 29.9007 34.6816C28.6529 36.4361 26.1169 39.033 22.5966 36.6826C21.0853 35.7777 20.2802 34.0305 20.573 32.2833C21.8574 28.5462 25.3558 26.0302 29.2896 26.0192Z" fill="white"/>
<path d="M14.9041 20.175L9.74237 27.8651L10.9952 28.7148L16.1569 21.0247L14.9041 20.175Z" fill="white"/>
<path d="M16.8623 21.5085L11.7006 29.1986L12.9535 30.0483L18.1151 22.3582L16.8623 21.5085Z" fill="white"/>
<path d="M18.8168 22.8315L13.6551 30.5216L14.9079 31.3713L20.0696 23.6812L18.8168 22.8315Z" fill="white"/>
<path d="M40.8453 43.5153L38.4432 47.1044L39.6971 47.9523L42.0992 44.3632L40.8453 43.5153Z" fill="white"/>
<path d="M42.7998 44.8348L40.3977 48.424L41.6517 49.2719L44.0538 45.6828L42.7998 44.8348Z" fill="white"/>
<path d="M44.7628 46.1605L42.3607 49.7496L43.6147 50.5976L46.0168 47.0085L44.7628 46.1605Z" fill="white"/>
<path d="M43.6783 39.2808L41.2762 42.8699L42.5302 43.7178L44.9323 40.1287L43.6783 39.2808Z" fill="white"/>
<path d="M45.6399 40.6L43.2379 44.1891L44.4918 45.037L46.8939 41.4479L45.6399 40.6Z" fill="white"/>
<path d="M47.5938 41.9216L45.1917 45.5107L46.4457 46.3587L48.8478 42.7696L47.5938 41.9216Z" fill="white"/>
<path d="M17.7202 43.5859L16.4662 44.4338L18.8683 48.0229L20.1223 47.175L17.7202 43.5859Z" fill="white"/>
<path d="M15.7652 44.9031L14.5112 45.7511L16.9133 49.3402L18.1673 48.4923L15.7652 44.9031Z" fill="white"/>
<path d="M13.8076 46.2286L12.5536 47.0765L14.9557 50.6656L16.2097 49.8177L13.8076 46.2286Z" fill="white"/>
<path d="M14.8903 39.3431L13.6363 40.191L16.0384 43.7801L17.2923 42.9322L14.8903 39.3431Z" fill="white"/>
<path d="M12.9371 40.6674L11.6832 41.5154L14.0852 45.1045L15.3392 44.2565L12.9371 40.6674Z" fill="white"/>
<path d="M10.9795 41.9929L9.72552 42.8408L12.1276 46.4299L13.3816 45.582L10.9795 41.9929Z" fill="white"/>
<path d="M46.3909 24.3052L45.137 25.1532L47.539 28.7423L48.793 27.8943L46.3909 24.3052Z" fill="white"/>
<path d="M42.4739 26.9416L41.2199 27.7896L43.622 31.3787L44.876 30.5307L42.4739 26.9416Z" fill="white"/>
<path d="M43.5563 20.0639L42.3024 20.9119L44.7044 24.501L45.9584 23.653L43.5563 20.0639Z" fill="white"/>
<path d="M41.6005 21.3846L40.3465 22.2325L45.6429 30.1463L46.8969 29.2983L41.6005 21.3846Z" fill="white"/>
<path d="M39.6472 22.7105L38.3932 23.5585L40.7953 27.1476L42.0493 26.2996L39.6472 22.7105Z" fill="white"/>
<path fill-rule="evenodd" clip-rule="evenodd" d="M142.513 37.5286H84V18.3094H142.513V21.0571H107.405V23.8048H142.513V26.5525H107.405V29.3002H142.513V32.0479H107.405V34.7956H142.513V37.5433V37.5286ZM93.6717 26.7916L93.4595 27.5493H92.7679L93.3277 28.0165L93.1155 28.7742L93.6754 28.3071L94.2353 28.7742L94.023 28.0165L94.5829 27.5493H93.8913L93.679 26.7916H93.6717ZM99.4462 24.8642L99.234 25.6219H98.5423L99.1022 26.089L98.89 26.8468L99.4499 26.3796L100.01 26.8468L99.7975 26.089L100.357 25.6219H99.6658L99.4535 24.8642H99.4462ZM89.8367 19.0782L89.6244 19.8359H88.9328L89.4927 20.3031L89.2805 21.0608L89.8404 20.5937L90.4002 21.0608L90.188 20.3031L90.7479 19.8359H90.0563L89.844 19.0782H89.8367ZM93.6717 19.0782L93.4595 19.8359H92.7679L93.3277 20.3031L93.1155 21.0608L93.6754 20.5937L94.2353 21.0608L94.023 20.3031L94.5829 19.8359H93.8913L93.679 19.0782H93.6717ZM97.5031 19.0782L97.2908 19.8359H96.5992L97.1591 20.3031L96.9468 21.0608L97.5067 20.5937L98.0666 21.0608L97.8544 20.3031L98.4143 19.8359H97.7226L97.5104 19.0782H97.5031ZM91.7762 28.7154L91.5639 29.4731H90.8723L91.4322 29.9402L91.2199 30.698L91.7798 30.2308L92.3397 30.698L92.1275 29.9402L92.6873 29.4731H91.9957L91.7835 28.7154H91.7762ZM95.6075 28.7154L95.3953 29.4731H94.7037L95.2635 29.9402L95.0513 30.698L95.6112 30.2308L96.1711 30.698L95.9588 29.9402L96.5187 29.4731H95.8271L95.6148 28.7154H95.6075ZM99.4389 28.7154L99.2266 29.4731H98.535L99.0949 29.9402L98.8827 30.698L99.4425 30.2308L100.002 30.698L99.7902 29.9402L100.35 29.4731H99.6584L99.4462 28.7154H99.4389ZM103.274 28.7154L103.062 29.4731H102.37L102.93 29.9402L102.718 30.698L103.278 30.2308L103.837 30.698L103.625 29.9402L104.185 29.4731H103.493L103.281 28.7154H103.274ZM99.4389 32.5702L99.2266 33.3279H98.535L99.0949 33.7951L98.8827 34.5528L99.4425 34.0857L100.002 34.5528L99.7902 33.7951L100.35 33.3279H99.6584L99.4462 32.5702H99.4389ZM103.274 32.5702L103.062 33.3279H102.37L102.93 33.7951L102.718 34.5528L103.278 34.0857L103.837 34.5528L103.625 33.7951L104.185 33.3279H103.493L103.281 32.5702H103.274ZM87.8936 28.7154L87.6813 29.4731H86.9897L87.5496 29.9402L87.3373 30.698L87.8972 30.2308L88.4571 30.698L88.2449 29.9402L88.8048 29.4731H88.1131L87.9009 28.7154H87.8936ZM101.331 19.0782L101.119 19.8359H100.427L100.987 20.3031L100.775 21.0608L101.334 20.5937L101.894 21.0608L101.682 20.3031L102.242 19.8359H101.55L101.338 19.0782H101.331ZM87.8936 24.8642L87.6813 25.6219H86.9897L87.5496 26.089L87.3373 26.8468L87.8972 26.3796L88.4571 26.8468L88.2449 26.089L88.8048 25.6219H88.1131L87.9009 24.8642H87.8936ZM87.8936 32.5702L87.6813 33.3279H86.9897L87.5496 33.7951L87.3373 34.5528L87.8972 34.0857L88.4571 34.5528L88.2449 33.7951L88.8048 33.3279H88.1131L87.9009 32.5702H87.8936ZM91.7725 32.5702L91.5603 33.3279H90.8686L91.4285 33.7951L91.2163 34.5528L91.7762 34.0857L92.336 34.5528L92.1238 33.7951L92.6837 33.3279H91.9921L91.7798 32.5702H91.7725ZM95.6039 32.5702L95.3916 33.3279H94.7L95.2599 33.7951L95.0476 34.5528L95.6075 34.0857L96.1674 34.5528L95.9552 33.7951L96.515 33.3279H95.8234L95.6112 32.5702H95.6039ZM89.833 22.9331L89.6208 23.6908H88.9292L89.4891 24.1579L89.2768 24.9157L89.8367 24.4485L90.3966 24.9157L90.1843 24.1579L90.7442 23.6908H90.0526L89.8404 22.9331H89.833ZM105.166 19.0782L104.954 19.8359H104.262L104.822 20.3031L104.61 21.0608L105.169 20.5937L105.729 21.0608L105.517 20.3031L106.077 19.8359H105.385L105.173 19.0782H105.166ZM101.334 26.7879L101.122 27.5457H100.431L100.99 28.0128L100.778 28.7705L101.338 28.3034L101.898 28.7705L101.686 28.0128L102.246 27.5457H101.554L101.342 26.7879H101.334ZM97.5031 34.494L97.2908 35.2517H96.5992L97.1591 35.7188L96.9468 36.4766L97.5067 36.0094L98.0666 36.4766L97.8544 35.7188L98.4143 35.2517H97.7226L97.5104 34.494H97.5031ZM101.334 34.494L101.122 35.2517H100.431L100.99 35.7188L100.778 36.4766L101.338 36.0094L101.898 36.4766L101.686 35.7188L102.246 35.2517H101.554L101.342 34.494H101.334ZM105.166 34.494L104.954 35.2517H104.262L104.822 35.7188L104.61 36.4766L105.169 36.0094L105.729 36.4766L105.517 35.7188L106.077 35.2517H105.385L105.173 34.494H105.166ZM85.9504 30.6391L85.7382 31.3968H85.0466L85.6065 31.864L85.3942 32.6217L85.9541 32.1546L86.514 32.6217L86.3017 31.864L86.8616 31.3968H86.17L85.9578 30.6391H85.9504ZM89.833 30.6391L89.6208 31.3968H88.9292L89.4891 31.864L89.2768 32.6217L89.8367 32.1546L90.3966 32.6217L90.1843 31.864L90.7442 31.3968H90.0526L89.8404 30.6391H89.833ZM93.6644 30.6391L93.4522 31.3968H92.7605L93.3204 31.864L93.1082 32.6217L93.6681 32.1546L94.2279 32.6217L94.0157 31.864L94.5756 31.3968H93.884L93.6717 30.6391H93.6644ZM89.833 34.494L89.6208 35.2517H88.9292L89.4891 35.7188L89.2768 36.4766L89.8367 36.0094L90.3966 36.4766L90.1843 35.7188L90.7442 35.2517H90.0526L89.8404 34.494H89.833ZM93.6644 34.494L93.4522 35.2517H92.7605L93.3204 35.7188L93.1082 36.4766L93.6681 36.0094L94.2279 36.4766L94.0157 35.7188L94.5756 35.2517H93.884L93.6717 34.494H93.6644ZM87.8899 21.002L87.6777 21.7597H86.986L87.5459 22.2268L87.3337 22.9846L87.8936 22.5174L88.4535 22.9846L88.2412 22.2268L88.8011 21.7597H88.1095L87.8972 21.002H87.8899ZM91.7688 21.002L91.5566 21.7597H90.865L91.4249 22.2268L91.2126 22.9846L91.7725 22.5174L92.3324 22.9846L92.1201 22.2268L92.68 21.7597H91.9884L91.7762 21.002H91.7688ZM95.6039 21.002L95.3916 21.7597H94.7L95.2599 22.2268L95.0476 22.9846L95.6075 22.5174L96.1674 22.9846L95.9552 22.2268L96.515 21.7597H95.8234L95.6112 21.002H95.6039ZM85.9504 34.494L85.7382 35.2517H85.0466L85.6065 35.7188L85.3942 36.4766L85.9541 36.0094L86.514 36.4766L86.3017 35.7188L86.8616 35.2517H86.17L85.9578 34.494H85.9504ZM91.7688 24.8605L91.5566 25.6182H90.865L91.4249 26.0854L91.2126 26.8431L91.7725 26.376L92.3324 26.8431L92.1201 26.0854L92.68 25.6182H91.9884L91.7762 24.8605H91.7688ZM95.6039 24.8605L95.3916 25.6182H94.7L95.2599 26.0854L95.0476 26.8431L95.6075 26.376L96.1674 26.8431L95.9552 26.0854L96.515 25.6182H95.8234L95.6112 24.8605H95.6039ZM93.6607 22.9294L93.4485 23.6871H92.7569L93.3167 24.1543L93.1045 24.912L93.6644 24.4448L94.2243 24.912L94.012 24.1543L94.5719 23.6871H93.8803L93.6681 22.9294H93.6607ZM97.4958 22.9294L97.2835 23.6871H96.5919L97.1518 24.1543L96.9395 24.912L97.4994 24.4448L98.0593 24.912L97.8471 24.1543L98.4069 23.6871H97.7153L97.5031 22.9294H97.4958ZM101.327 22.9294L101.115 23.6871H100.423L100.983 24.1543L100.771 24.912L101.331 24.4448L101.891 24.912L101.678 24.1543L102.238 23.6871H101.547L101.334 22.9294H101.327ZM105.158 22.9294L104.946 23.6871H104.255L104.814 24.1543L104.602 24.912L105.162 24.4448L105.722 24.912L105.51 24.1543L106.07 23.6871H105.378L105.166 22.9294H105.158ZM85.9431 19.0745L85.7309 19.8323H85.0393L85.5991 20.2994L85.3869 21.0571L85.9468 20.59L86.5067 21.0571L86.2944 20.2994L86.8543 19.8323H86.1627L85.9504 19.0745H85.9431ZM85.9431 26.7842L85.7309 27.542H85.0393L85.5991 28.0091L85.3869 28.7668L85.9468 28.2997L86.5067 28.7668L86.2944 28.0091L86.8543 27.542H86.1627L85.9504 26.7842H85.9431ZM105.158 30.6391L104.946 31.3968H104.255L104.814 31.864L104.602 32.6217L105.162 32.1546L105.722 32.6217L105.51 31.864L106.07 31.3968H105.378L105.166 30.6391H105.158ZM89.8257 26.7842L89.6135 27.542H88.9218L89.4817 28.0091L89.2695 28.7668L89.8294 28.2997L90.3893 28.7668L90.177 28.0091L90.7369 27.542H90.0453L89.833 26.7842H89.8257ZM97.4921 30.6391L97.2798 31.3968H96.5882L97.1481 31.864L96.9359 32.6217L97.4958 32.1546L98.0556 32.6217L97.8434 31.864L98.4033 31.3968H97.7117L97.4994 30.6391H97.4921ZM101.323 30.6391L101.111 31.3968H100.42L100.979 31.864L100.767 32.6217L101.327 32.1546L101.887 32.6217L101.675 31.864L102.235 31.3968H101.543L101.331 30.6391H101.323ZM105.155 26.7842L104.943 27.542H104.251L104.811 28.0091L104.599 28.7668L105.158 28.2997L105.718 28.7668L105.506 28.0091L106.066 27.542H105.374L105.162 26.7842H105.155ZM85.9395 22.9294L85.7272 23.6871H85.0356L85.5955 24.1543L85.3832 24.912L85.9431 24.4448L86.503 24.912L86.2908 24.1543L86.8506 23.6871H86.159L85.9468 22.9294H85.9395ZM99.4279 21.002L99.2157 21.7597H98.524L99.0839 22.2268L98.8717 22.9846L99.4316 22.5174L99.9914 22.9846L99.7792 22.2268L100.339 21.7597H99.6475L99.4352 21.002H99.4279ZM103.263 21.002L103.051 21.7597H102.359L102.919 22.2268L102.707 22.9846L103.267 22.5174L103.826 22.9846L103.614 22.2268L104.174 21.7597H103.482L103.27 21.002H103.263ZM97.4884 26.7842L97.2762 27.542H96.5846L97.1445 28.0091L96.9322 28.7668L97.4921 28.2997L98.052 28.7668L97.8397 28.0091L98.3996 27.542H97.708L97.4958 26.7842H97.4884ZM103.263 24.8568L103.051 25.6145H102.359L102.919 26.0817L102.707 26.8394L103.267 26.3723L103.826 26.8394L103.614 26.0817L104.174 25.6145H103.482L103.27 24.8568H103.263Z" fill="white"/>
<path fill-rule="evenodd" clip-rule="evenodd" d="M84 40.2726H142.513V43.0203H84V40.2726Z" fill="white"/>
<path fill-rule="evenodd" clip-rule="evenodd" d="M84 45.7643H142.513V48.512H84V45.7643Z" fill="white"/>
<path fill-rule="evenodd" clip-rule="evenodd" d="M84 51.256H142.513V54.0037H84V51.256Z" fill="white"/>
<path d="M174.979 29.3481L174.09 30.1904V29.3481H174.979ZM174.09 17.7284L230.814 17.7284V28.6382L174.083 28.6382L174.09 17.7284ZM229.943 40.269L230.84 39.4266V40.269H229.943ZM174.09 38.7462V37.5765L182.77 29.3481H184.011L174.09 38.7462ZM174.09 40.1697V38.9926L184.27 29.3481H185.511L174.09 40.166V40.1697ZM175.495 40.269H174.262L185.778 29.3518H187.011L175.495 40.269ZM176.999 40.269H175.766L187.282 29.3518L188.515 29.3518L176.999 40.269ZM178.507 40.269H177.266L188.793 29.3518H190.027L178.507 40.269ZM180.007 40.269H178.774L190.29 29.3518H191.523L180.007 40.269ZM181.511 40.269H180.278L191.805 29.3518H193.038L181.511 40.269ZM183.019 40.269H181.786L193.302 29.3518H194.535L183.019 40.269ZM184.519 40.269H183.286L194.813 29.3518H196.046L184.519 40.269ZM186.031 40.269H184.797L196.324 29.3518H197.558L186.031 40.269ZM187.531 40.269H186.298L197.832 29.3518H199.065L187.531 40.269ZM189.042 40.269H187.809L199.336 29.3518H200.577L189.042 40.269ZM190.55 40.269H189.317L200.844 29.3518H202.077L190.55 40.269ZM192.043 40.269H190.81L202.344 29.3518H203.585L192.043 40.269ZM193.554 40.269H192.314L203.848 29.3518H205.089L193.554 40.269ZM195.073 40.269H193.832L205.359 29.3518H206.6L195.073 40.269ZM196.581 40.269H195.34L206.856 29.3518H208.097L196.581 40.269ZM198.081 40.269H196.84L208.367 29.3518H209.608L198.081 40.269ZM199.585 40.269H198.344L209.871 29.3518H211.112L199.585 40.269ZM201.093 40.269H199.852L211.379 29.3518H212.62L201.093 40.269ZM202.593 40.269H201.352L212.879 29.3518H214.12L202.593 40.269ZM204.104 40.269H202.864L214.38 29.3518H215.62L204.104 40.269ZM205.605 40.269H204.364L215.891 29.3518L217.132 29.3518L205.605 40.269ZM207.105 40.269H205.864L217.391 29.3518H218.632L207.105 40.269ZM208.616 40.269H207.376L218.903 29.3518H220.143L208.616 40.269ZM210.117 40.269H208.876L220.403 29.3518H221.644L210.117 40.269ZM211.628 40.269H210.387L221.903 29.3518H223.144L211.628 40.269ZM213.128 40.269H211.888L223.415 29.3518H224.648L213.128 40.269ZM214.629 40.269H213.388L224.915 29.3518H226.156L214.629 40.269ZM216.14 40.269H214.899L226.426 29.3518H227.667L216.14 40.269ZM217.64 40.269H216.4L227.927 29.3518H229.167L217.64 40.269ZM219.148 40.269H217.907L229.423 29.3518H230.664L219.148 40.269ZM230.84 32.048L222.16 40.269H220.919L230.84 30.8709V32.048ZM222.419 40.269L230.84 32.3018V33.4715L223.671 40.2616L222.419 40.269ZM223.927 40.269L230.836 33.7216V34.8987L225.168 40.269H223.927ZM225.431 40.269L230.84 35.1525V36.3295L226.672 40.2763L225.431 40.269ZM226.95 40.269L230.84 36.576V37.753L228.183 40.269H226.95ZM230.84 39.1728L229.683 40.269H228.45L230.84 38.0068V39.1765V39.1728ZM230.84 30.6171L220.659 40.2616H219.419L230.84 29.4511V30.6171ZM174.09 36.1493L181.266 29.3518H182.507L174.094 37.319L174.09 36.1493ZM174.09 33.0448V31.8751L176.747 29.3518H177.98L174.09 33.0448ZM174.09 34.472V33.3023L178.258 29.3555H179.491L174.09 34.472ZM174.09 34.7258L179.758 29.3555H180.999L174.09 35.9028V34.7258ZM176.48 29.3481L174.083 31.6213V30.4442L175.239 29.3481H176.48ZM173.709 52.5986L231.191 52.5986C231.399 52.5986 231.571 52.4368 231.571 52.2382V17.3605C231.571 17.1656 231.399 17.0001 231.191 17.0001L173.709 17.0001C173.501 17.0001 173.329 17.1619 173.329 17.3605V52.2382C173.329 52.4441 173.501 52.5986 173.709 52.5986Z" fill="white"/>
<path d="M263 18V53.4661H320.917V18H263ZM273.286 30.6901L270.765 29.0423L268.233 30.6791L269.005 27.7732L266.663 25.8716L269.678 25.7171L270.765 22.9032L271.852 25.7171L274.867 25.8752L272.525 27.7769L273.286 30.6901ZM277.422 21.259L278.541 21.6525L279.361 20.7955V21.9799L280.433 22.4838L279.288 22.8296L279.134 23.9993L278.468 23.0282L277.286 23.2489L278.007 22.3036L277.422 21.259ZM279.31 34.0116L279.138 35.1887L278.472 34.2029L277.297 34.4015L278.029 33.4709L277.476 32.4189L278.589 32.8235L279.416 31.9775L279.376 33.1619L280.444 33.6806L279.31 34.0116ZM282.775 31.6428L281.769 30.977L280.781 31.6428L281.074 30.4915L280.155 29.7742L281.341 29.708L281.754 28.5972L282.193 29.708L283.379 29.7595L282.464 30.5172L282.775 31.6428ZM282.215 26.1548L281.601 27.1663L281.374 26.004L280.228 25.7171L281.29 25.158L281.183 23.9809L282.058 24.7865L283.152 24.3267L282.625 25.3971L283.405 26.2946L282.219 26.1548H282.215Z" fill="white"/>
</g>
<path d="M13.66 8.23L13.64 7.59L18.1 3H18.72L15.6 6.23L15.31 6.54L13.66 8.23ZM13.22 10V3H13.73V10H13.22ZM18.31 10L15.16 6.4L15.51 6.03L18.93 10H18.31ZM21.8871 10.04C21.3871 10.04 20.9404 9.92667 20.5471 9.7C20.1604 9.47333 19.8504 9.16 19.6171 8.76C19.3904 8.36 19.2771 7.90333 19.2771 7.39C19.2771 6.87 19.3904 6.41333 19.6171 6.02C19.8504 5.62 20.1604 5.30667 20.5471 5.08C20.9404 4.85333 21.3871 4.74 21.8871 4.74C22.3871 4.74 22.8338 4.85333 23.2271 5.08C23.6204 5.30667 23.9304 5.62 24.1571 6.02C24.3838 6.41333 24.4971 6.87 24.4971 7.39C24.4971 7.90333 24.3838 8.36 24.1571 8.76C23.9304 9.16 23.6204 9.47333 23.2271 9.7C22.8338 9.92667 22.3871 10.04 21.8871 10.04ZM21.8871 9.59C22.2871 9.59 22.6471 9.5 22.9671 9.32C23.2871 9.13333 23.5371 8.87333 23.7171 8.54C23.8971 8.20667 23.9871 7.82333 23.9871 7.39C23.9871 6.95 23.8971 6.56667 23.7171 6.24C23.5371 5.90667 23.2871 5.65 22.9671 5.47C22.6471 5.28333 22.2871 5.19 21.8871 5.19C21.4871 5.19 21.1271 5.28333 20.8071 5.47C20.4938 5.65 20.2438 5.90667 20.0571 6.24C19.8771 6.56667 19.7871 6.95 19.7871 7.39C19.7871 7.82333 19.8771 8.20667 20.0571 8.54C20.2438 8.87333 20.4938 9.13333 20.8071 9.32C21.1271 9.5 21.4871 9.59 21.8871 9.59ZM26.0483 10V4.78H26.5283V6.21L26.4783 6.05C26.6249 5.63 26.8716 5.30667 27.2183 5.08C27.5649 4.85333 27.9983 4.74 28.5183 4.74V5.23C28.4983 5.23 28.4783 5.23 28.4583 5.23C28.4383 5.22333 28.4183 5.22 28.3983 5.22C27.8183 5.22 27.3649 5.40333 27.0383 5.77C26.7116 6.13 26.5483 6.63333 26.5483 7.28V10H26.0483ZM31.9671 10.04C31.4404 10.04 30.9738 9.92667 30.5671 9.7C30.1671 9.47333 29.8504 9.16 29.6171 8.76C29.3904 8.36 29.2771 7.90333 29.2771 7.39C29.2771 6.87 29.3838 6.41333 29.5971 6.02C29.8171 5.62 30.1171 5.30667 30.4971 5.08C30.8771 4.85333 31.3038 4.74 31.7771 4.74C32.2504 4.74 32.6738 4.85 33.0471 5.07C33.4271 5.29 33.7238 5.6 33.9371 6C34.1571 6.39333 34.2671 6.85 34.2671 7.37C34.2671 7.39 34.2638 7.41333 34.2571 7.44C34.2571 7.46 34.2571 7.48333 34.2571 7.51H29.6471V7.12H33.9871L33.7871 7.31C33.7938 6.90333 33.7071 6.54 33.5271 6.22C33.3538 5.89333 33.1171 5.64 32.8171 5.46C32.5171 5.27333 32.1704 5.18 31.7771 5.18C31.3904 5.18 31.0438 5.27333 30.7371 5.46C30.4371 5.64 30.2004 5.89333 30.0271 6.22C29.8538 6.54 29.7671 6.90667 29.7671 7.32V7.41C29.7671 7.83667 29.8604 8.21667 30.0471 8.55C30.2404 8.87667 30.5038 9.13333 30.8371 9.32C31.1704 9.5 31.5504 9.59 31.9771 9.59C32.3104 9.59 32.6204 9.53 32.9071 9.41C33.2004 9.29 33.4471 9.10667 33.6471 8.86L33.9371 9.19C33.7104 9.47 33.4238 9.68333 33.0771 9.83C32.7371 9.97 32.3671 10.04 31.9671 10.04ZM38.9574 10V8.81L38.9374 8.63V6.67C38.9374 6.18333 38.8041 5.81333 38.5374 5.56C38.2774 5.30667 37.8941 5.18 37.3874 5.18C37.0274 5.18 36.6908 5.24333 36.3774 5.37C36.0708 5.49 35.8074 5.64667 35.5874 5.84L35.3374 5.48C35.5974 5.24667 35.9108 5.06667 36.2774 4.94C36.6441 4.80667 37.0274 4.74 37.4274 4.74C38.0741 4.74 38.5708 4.90333 38.9174 5.23C39.2641 5.55667 39.4374 6.04333 39.4374 6.69V10H38.9574ZM37.0774 10.04C36.6908 10.04 36.3541 9.98 36.0674 9.86C35.7874 9.73333 35.5708 9.55667 35.4174 9.33C35.2708 9.10333 35.1974 8.84333 35.1974 8.55C35.1974 8.28333 35.2574 8.04333 35.3774 7.83C35.5041 7.61 35.7108 7.43333 35.9974 7.3C36.2841 7.16 36.6674 7.09 37.1474 7.09H39.0674V7.48H37.1574C36.6174 7.48 36.2374 7.58 36.0174 7.78C35.8041 7.98 35.6974 8.23 35.6974 8.53C35.6974 8.86333 35.8241 9.13 36.0774 9.33C36.3308 9.53 36.6874 9.63 37.1474 9.63C37.5874 9.63 37.9574 9.53 38.2574 9.33C38.5641 9.13 38.7908 8.84 38.9374 8.46L39.0774 8.8C38.9374 9.18 38.6974 9.48333 38.3574 9.71C38.0241 9.93 37.5974 10.04 37.0774 10.04ZM44.0475 4.74C44.4742 4.74 44.8442 4.82333 45.1575 4.99C45.4775 5.15 45.7242 5.39667 45.8975 5.73C46.0775 6.05667 46.1675 6.46333 46.1675 6.95V10H45.6675V6.99C45.6675 6.40333 45.5175 5.95667 45.2175 5.65C44.9242 5.34333 44.5108 5.19 43.9775 5.19C43.5708 5.19 43.2175 5.27333 42.9175 5.44C42.6175 5.60667 42.3875 5.84 42.2275 6.14C42.0742 6.44 41.9975 6.8 41.9975 7.22V10H41.4975V4.78H41.9775V6.23L41.9075 6.07C42.0675 5.65667 42.3308 5.33333 42.6975 5.1C43.0642 4.86 43.5142 4.74 44.0475 4.74Z" fill="white"/>
<path d="M276.18 10.05C275.66 10.05 275.177 9.96333 274.73 9.79C274.29 9.61 273.907 9.36 273.58 9.04C273.253 8.72 273 8.34667 272.82 7.92C272.64 7.48667 272.55 7.01333 272.55 6.5C272.55 5.98667 272.64 5.51667 272.82 5.09C273 4.65667 273.253 4.28 273.58 3.96C273.913 3.64 274.3 3.39333 274.74 3.22C275.18 3.04 275.66 2.95 276.18 2.95C276.673 2.95 277.133 3.03 277.56 3.19C277.993 3.35 278.363 3.59333 278.67 3.92L278.35 4.25C278.05 3.95667 277.717 3.74667 277.35 3.62C276.99 3.48667 276.607 3.42 276.2 3.42C275.753 3.42 275.337 3.49667 274.95 3.65C274.57 3.80333 274.237 4.02 273.95 4.3C273.67 4.58 273.45 4.90667 273.29 5.28C273.137 5.65333 273.06 6.06 273.06 6.5C273.06 6.94 273.137 7.34667 273.29 7.72C273.45 8.09333 273.67 8.42 273.95 8.7C274.237 8.98 274.57 9.19667 274.95 9.35C275.337 9.50333 275.753 9.58 276.2 9.58C276.607 9.58 276.99 9.51667 277.35 9.39C277.717 9.25667 278.05 9.04 278.35 8.74L278.67 9.07C278.363 9.39667 277.993 9.64333 277.56 9.81C277.133 9.97 276.673 10.05 276.18 10.05ZM282.768 4.74C283.195 4.74 283.565 4.82333 283.878 4.99C284.198 5.15 284.445 5.39667 284.618 5.73C284.798 6.05667 284.888 6.46333 284.888 6.95V10H284.388V6.99C284.388 6.40333 284.238 5.95667 283.938 5.65C283.645 5.34333 283.232 5.19 282.698 5.19C282.292 5.19 281.938 5.27333 281.638 5.44C281.338 5.60667 281.108 5.84 280.948 6.14C280.795 6.44 280.718 6.8 280.718 7.22V10H280.218V2.58H280.718V6.23L280.628 6.07C280.788 5.65667 281.052 5.33333 281.418 5.1C281.785 4.86 282.235 4.74 282.768 4.74ZM286.947 10V4.78H287.447V10H286.947ZM287.197 3.51C287.083 3.51 286.987 3.47 286.907 3.39C286.827 3.31 286.787 3.21667 286.787 3.11C286.787 2.99667 286.827 2.9 286.907 2.82C286.987 2.74 287.083 2.7 287.197 2.7C287.317 2.7 287.413 2.74 287.487 2.82C287.567 2.89333 287.607 2.98667 287.607 3.1C287.607 3.21333 287.567 3.31 287.487 3.39C287.413 3.47 287.317 3.51 287.197 3.51ZM292.104 4.74C292.531 4.74 292.901 4.82333 293.214 4.99C293.534 5.15 293.781 5.39667 293.954 5.73C294.134 6.05667 294.224 6.46333 294.224 6.95V10H293.724V6.99C293.724 6.40333 293.574 5.95667 293.274 5.65C292.981 5.34333 292.567 5.19 292.034 5.19C291.627 5.19 291.274 5.27333 290.974 5.44C290.674 5.60667 290.444 5.84 290.284 6.14C290.131 6.44 290.054 6.8 290.054 7.22V10H289.554V4.78H290.034V6.23L289.964 6.07C290.124 5.65667 290.387 5.33333 290.754 5.1C291.121 4.86 291.571 4.74 292.104 4.74ZM298.403 10.04C297.876 10.04 297.409 9.92667 297.003 9.7C296.603 9.47333 296.286 9.16 296.053 8.76C295.826 8.36 295.713 7.90333 295.713 7.39C295.713 6.87 295.819 6.41333 296.033 6.02C296.253 5.62 296.553 5.30667 296.933 5.08C297.313 4.85333 297.739 4.74 298.213 4.74C298.686 4.74 299.109 4.85 299.483 5.07C299.863 5.29 300.159 5.6 300.373 6C300.593 6.39333 300.703 6.85 300.703 7.37C300.703 7.39 300.699 7.41333 300.693 7.44C300.693 7.46 300.693 7.48333 300.693 7.51H296.083V7.12H300.423L300.223 7.31C300.229 6.90333 300.143 6.54 299.963 6.22C299.789 5.89333 299.553 5.64 299.253 5.46C298.953 5.27333 298.606 5.18 298.213 5.18C297.826 5.18 297.479 5.27333 297.173 5.46C296.873 5.64 296.636 5.89333 296.463 6.22C296.289 6.54 296.203 6.90667 296.203 7.32V7.41C296.203 7.83667 296.296 8.21667 296.483 8.55C296.676 8.87667 296.939 9.13333 297.273 9.32C297.606 9.5 297.986 9.59 298.413 9.59C298.746 9.59 299.056 9.53 299.343 9.41C299.636 9.29 299.883 9.10667 300.083 8.86L300.373 9.19C300.146 9.47 299.859 9.68333 299.513 9.83C299.173 9.97 298.803 10.04 298.403 10.04ZM303.569 10.04C303.136 10.04 302.729 9.97667 302.349 9.85C301.976 9.72333 301.686 9.56333 301.479 9.37L301.709 8.97C301.909 9.14333 302.176 9.29333 302.509 9.42C302.843 9.54 303.203 9.6 303.589 9.6C304.136 9.6 304.529 9.51 304.769 9.33C305.009 9.15 305.129 8.91333 305.129 8.62C305.129 8.40667 305.066 8.24 304.939 8.12C304.819 7.99333 304.656 7.89667 304.449 7.83C304.243 7.76333 304.016 7.71 303.769 7.67C303.523 7.62333 303.276 7.57333 303.029 7.52C302.783 7.46667 302.556 7.39 302.349 7.29C302.143 7.19 301.976 7.05333 301.849 6.88C301.729 6.7 301.669 6.46333 301.669 6.17C301.669 5.90333 301.743 5.66333 301.889 5.45C302.036 5.23667 302.256 5.06667 302.549 4.94C302.843 4.80667 303.209 4.74 303.649 4.74C303.976 4.74 304.303 4.78667 304.629 4.88C304.963 4.97333 305.233 5.09667 305.439 5.25L305.209 5.65C304.989 5.48333 304.743 5.36333 304.469 5.29C304.196 5.21667 303.919 5.18 303.639 5.18C303.133 5.18 302.759 5.27333 302.519 5.46C302.286 5.64667 302.169 5.88 302.169 6.16C302.169 6.38 302.229 6.55667 302.349 6.69C302.476 6.81667 302.643 6.91667 302.849 6.99C303.056 7.05667 303.283 7.11333 303.529 7.16C303.776 7.2 304.023 7.24667 304.269 7.3C304.516 7.35333 304.743 7.43 304.949 7.53C305.156 7.62333 305.319 7.75667 305.439 7.93C305.566 8.09667 305.629 8.32333 305.629 8.61C305.629 8.89667 305.549 9.14667 305.389 9.36C305.236 9.57333 305.006 9.74 304.699 9.86C304.393 9.98 304.016 10.04 303.569 10.04ZM309.145 10.04C308.618 10.04 308.152 9.92667 307.745 9.7C307.345 9.47333 307.028 9.16 306.795 8.76C306.568 8.36 306.455 7.90333 306.455 7.39C306.455 6.87 306.562 6.41333 306.775 6.02C306.995 5.62 307.295 5.30667 307.675 5.08C308.055 4.85333 308.482 4.74 308.955 4.74C309.428 4.74 309.852 4.85 310.225 5.07C310.605 5.29 310.902 5.6 311.115 6C311.335 6.39333 311.445 6.85 311.445 7.37C311.445 7.39 311.442 7.41333 311.435 7.44C311.435 7.46 311.435 7.48333 311.435 7.51H306.825V7.12H311.165L310.965 7.31C310.972 6.90333 310.885 6.54 310.705 6.22C310.532 5.89333 310.295 5.64 309.995 5.46C309.695 5.27333 309.348 5.18 308.955 5.18C308.568 5.18 308.222 5.27333 307.915 5.46C307.615 5.64 307.378 5.89333 307.205 6.22C307.032 6.54 306.945 6.90667 306.945 7.32V7.41C306.945 7.83667 307.038 8.21667 307.225 8.55C307.418 8.87667 307.682 9.13333 308.015 9.32C308.348 9.5 308.728 9.59 309.155 9.59C309.488 9.59 309.798 9.53 310.085 9.41C310.378 9.29 310.625 9.10667 310.825 8.86L311.115 9.19C310.888 9.47 310.602 9.68333 310.255 9.83C309.915 9.97 309.545 10.04 309.145 10.04Z" fill="white"/>
<path d="M96.67 6.22H100.46V6.67H96.67V6.22ZM96.73 9.54H101.05V10H96.22V3H100.9V3.46H96.73V9.54ZM105.299 4.74C105.726 4.74 106.096 4.82333 106.409 4.99C106.729 5.15 106.976 5.39667 107.149 5.73C107.329 6.05667 107.419 6.46333 107.419 6.95V10H106.919V6.99C106.919 6.40333 106.769 5.95667 106.469 5.65C106.176 5.34333 105.763 5.19 105.229 5.19C104.823 5.19 104.469 5.27333 104.169 5.44C103.869 5.60667 103.639 5.84 103.479 6.14C103.326 6.44 103.249 6.8 103.249 7.22V10H102.749V4.78H103.229V6.23L103.159 6.07C103.319 5.65667 103.583 5.33333 103.949 5.1C104.316 4.86 104.766 4.74 105.299 4.74ZM111.648 11.98C111.175 11.98 110.725 11.9067 110.298 11.76C109.871 11.6133 109.525 11.41 109.258 11.15L109.528 10.77C109.788 11.01 110.098 11.1967 110.458 11.33C110.825 11.4633 111.218 11.53 111.638 11.53C112.338 11.53 112.851 11.3667 113.178 11.04C113.511 10.7133 113.678 10.2 113.678 9.5V8.05L113.778 7.27L113.698 6.49V4.78H114.178V9.44C114.178 10.3133 113.965 10.9533 113.538 11.36C113.118 11.7733 112.488 11.98 111.648 11.98ZM111.508 9.81C111.015 9.81 110.571 9.70333 110.178 9.49C109.791 9.27 109.481 8.97 109.248 8.59C109.021 8.20333 108.908 7.76333 108.908 7.27C108.908 6.77 109.021 6.33 109.248 5.95C109.481 5.57 109.791 5.27333 110.178 5.06C110.571 4.84667 111.015 4.74 111.508 4.74C111.981 4.74 112.405 4.84333 112.778 5.05C113.158 5.25 113.458 5.54 113.678 5.92C113.898 6.29333 114.008 6.74333 114.008 7.27C114.008 7.79 113.898 8.24 113.678 8.62C113.458 9 113.158 9.29333 112.778 9.5C112.405 9.70667 111.981 9.81 111.508 9.81ZM111.548 9.36C111.968 9.36 112.338 9.27333 112.658 9.1C112.978 8.92 113.228 8.67333 113.408 8.36C113.595 8.04 113.688 7.67667 113.688 7.27C113.688 6.85667 113.595 6.49333 113.408 6.18C113.228 5.86667 112.978 5.62333 112.658 5.45C112.338 5.27667 111.968 5.19 111.548 5.19C111.141 5.19 110.775 5.27667 110.448 5.45C110.128 5.62333 109.875 5.86667 109.688 6.18C109.508 6.49333 109.418 6.85667 109.418 7.27C109.418 7.67667 109.508 8.04 109.688 8.36C109.875 8.67333 110.128 8.92 110.448 9.1C110.775 9.27333 111.141 9.36 111.548 9.36ZM116.294 10V2.58H116.794V10H116.294ZM118.902 10V4.78H119.402V10H118.902ZM119.152 3.51C119.038 3.51 118.942 3.47 118.862 3.39C118.782 3.31 118.742 3.21667 118.742 3.11C118.742 2.99667 118.782 2.9 118.862 2.82C118.942 2.74 119.038 2.7 119.152 2.7C119.272 2.7 119.368 2.74 119.442 2.82C119.522 2.89333 119.562 2.98667 119.562 3.1C119.562 3.21333 119.522 3.31 119.442 3.39C119.368 3.47 119.272 3.51 119.152 3.51ZM122.829 10.04C122.396 10.04 121.989 9.97667 121.609 9.85C121.236 9.72333 120.946 9.56333 120.739 9.37L120.969 8.97C121.169 9.14333 121.436 9.29333 121.769 9.42C122.103 9.54 122.463 9.6 122.849 9.6C123.396 9.6 123.789 9.51 124.029 9.33C124.269 9.15 124.389 8.91333 124.389 8.62C124.389 8.40667 124.326 8.24 124.199 8.12C124.079 7.99333 123.916 7.89667 123.709 7.83C123.503 7.76333 123.276 7.71 123.029 7.67C122.783 7.62333 122.536 7.57333 122.289 7.52C122.043 7.46667 121.816 7.39 121.609 7.29C121.403 7.19 121.236 7.05333 121.109 6.88C120.989 6.7 120.929 6.46333 120.929 6.17C120.929 5.90333 121.003 5.66333 121.149 5.45C121.296 5.23667 121.516 5.06667 121.809 4.94C122.103 4.80667 122.469 4.74 122.909 4.74C123.236 4.74 123.563 4.78667 123.889 4.88C124.223 4.97333 124.493 5.09667 124.699 5.25L124.469 5.65C124.249 5.48333 124.003 5.36333 123.729 5.29C123.456 5.21667 123.179 5.18 122.899 5.18C122.393 5.18 122.019 5.27333 121.779 5.46C121.546 5.64667 121.429 5.88 121.429 6.16C121.429 6.38 121.489 6.55667 121.609 6.69C121.736 6.81667 121.903 6.91667 122.109 6.99C122.316 7.05667 122.543 7.11333 122.789 7.16C123.036 7.2 123.283 7.24667 123.529 7.3C123.776 7.35333 124.003 7.43 124.209 7.53C124.416 7.62333 124.579 7.75667 124.699 7.93C124.826 8.09667 124.889 8.32333 124.889 8.61C124.889 8.89667 124.809 9.14667 124.649 9.36C124.496 9.57333 124.266 9.74 123.959 9.86C123.653 9.98 123.276 10.04 122.829 10.04ZM128.835 4.74C129.261 4.74 129.631 4.82333 129.945 4.99C130.265 5.15 130.511 5.39667 130.685 5.73C130.865 6.05667 130.955 6.46333 130.955 6.95V10H130.455V6.99C130.455 6.40333 130.305 5.95667 130.005 5.65C129.711 5.34333 129.298 5.19 128.765 5.19C128.358 5.19 128.005 5.27333 127.705 5.44C127.405 5.60667 127.175 5.84 127.015 6.14C126.861 6.44 126.785 6.8 126.785 7.22V10H126.285V2.58H126.785V6.23L126.695 6.07C126.855 5.65667 127.118 5.33333 127.485 5.1C127.851 4.86 128.301 4.74 128.835 4.74Z" fill="white"/>
<path d="M186.21 10.05C185.683 10.05 185.197 9.96333 184.75 9.79C184.303 9.61 183.913 9.36 183.58 9.04C183.253 8.72 183 8.34667 182.82 7.92C182.64 7.48667 182.55 7.01333 182.55 6.5C182.55 5.98667 182.64 5.51667 182.82 5.09C183 4.65667 183.257 4.28 183.59 3.96C183.923 3.64 184.31 3.39333 184.75 3.22C185.197 3.04 185.687 2.95 186.22 2.95C186.727 2.95 187.197 3.03 187.63 3.19C188.063 3.35 188.433 3.59 188.74 3.91L188.42 4.25C188.113 3.95 187.777 3.73667 187.41 3.61C187.05 3.48333 186.657 3.42 186.23 3.42C185.777 3.42 185.357 3.49667 184.97 3.65C184.583 3.80333 184.247 4.02 183.96 4.3C183.673 4.58 183.45 4.90667 183.29 5.28C183.137 5.65333 183.06 6.06 183.06 6.5C183.06 6.94 183.137 7.34667 183.29 7.72C183.45 8.09333 183.673 8.42 183.96 8.7C184.247 8.98 184.583 9.19667 184.97 9.35C185.357 9.50333 185.777 9.58 186.23 9.58C186.643 9.58 187.033 9.51667 187.4 9.39C187.773 9.26333 188.113 9.05333 188.42 8.76L188.71 9.15C188.397 9.45 188.02 9.67667 187.58 9.83C187.147 9.97667 186.69 10.05 186.21 10.05ZM188.22 9.1V6.53H188.71V9.15L188.22 9.1ZM192.914 10.04C192.388 10.04 191.921 9.92667 191.514 9.7C191.114 9.47333 190.798 9.16 190.564 8.76C190.338 8.36 190.224 7.90333 190.224 7.39C190.224 6.87 190.331 6.41333 190.544 6.02C190.764 5.62 191.064 5.30667 191.444 5.08C191.824 4.85333 192.251 4.74 192.724 4.74C193.198 4.74 193.621 4.85 193.994 5.07C194.374 5.29 194.671 5.6 194.884 6C195.104 6.39333 195.214 6.85 195.214 7.37C195.214 7.39 195.211 7.41333 195.204 7.44C195.204 7.46 195.204 7.48333 195.204 7.51H190.594V7.12H194.934L194.734 7.31C194.741 6.90333 194.654 6.54 194.474 6.22C194.301 5.89333 194.064 5.64 193.764 5.46C193.464 5.27333 193.118 5.18 192.724 5.18C192.338 5.18 191.991 5.27333 191.684 5.46C191.384 5.64 191.148 5.89333 190.974 6.22C190.801 6.54 190.714 6.90667 190.714 7.32V7.41C190.714 7.83667 190.808 8.21667 190.994 8.55C191.188 8.87667 191.451 9.13333 191.784 9.32C192.118 9.5 192.498 9.59 192.924 9.59C193.258 9.59 193.568 9.53 193.854 9.41C194.148 9.29 194.394 9.10667 194.594 8.86L194.884 9.19C194.658 9.47 194.371 9.68333 194.024 9.83C193.684 9.97 193.314 10.04 192.914 10.04ZM196.761 10V4.78H197.241V6.21L197.191 6.05C197.338 5.63 197.585 5.30667 197.931 5.08C198.278 4.85333 198.711 4.74 199.231 4.74V5.23C199.211 5.23 199.191 5.23 199.171 5.23C199.151 5.22333 199.131 5.22 199.111 5.22C198.531 5.22 198.078 5.40333 197.751 5.77C197.425 6.13 197.261 6.63333 197.261 7.28V10H196.761ZM207.109 4.74C207.529 4.74 207.892 4.82333 208.199 4.99C208.512 5.15 208.755 5.39667 208.929 5.73C209.102 6.05667 209.189 6.46333 209.189 6.95V10H208.689V6.99C208.689 6.40333 208.545 5.95667 208.259 5.65C207.972 5.34333 207.572 5.19 207.059 5.19C206.665 5.19 206.325 5.27333 206.039 5.44C205.752 5.60667 205.532 5.84 205.379 6.14C205.225 6.44 205.149 6.8 205.149 7.22V10H204.649V6.99C204.649 6.40333 204.505 5.95667 204.219 5.65C203.932 5.34333 203.532 5.19 203.019 5.19C202.625 5.19 202.285 5.27333 201.999 5.44C201.712 5.60667 201.492 5.84 201.339 6.14C201.185 6.44 201.109 6.8 201.109 7.22V10H200.609V4.78H201.089V6.22L201.019 6.06C201.172 5.65333 201.429 5.33333 201.789 5.1C202.149 4.86 202.582 4.74 203.089 4.74C203.609 4.74 204.045 4.87333 204.399 5.14C204.759 5.4 204.985 5.79 205.079 6.31L204.909 6.24C205.049 5.79333 205.312 5.43333 205.699 5.16C206.085 4.88 206.555 4.74 207.109 4.74ZM214.543 10V8.81L214.523 8.63V6.67C214.523 6.18333 214.39 5.81333 214.123 5.56C213.863 5.30667 213.48 5.18 212.973 5.18C212.613 5.18 212.277 5.24333 211.963 5.37C211.657 5.49 211.393 5.64667 211.173 5.84L210.923 5.48C211.183 5.24667 211.497 5.06667 211.863 4.94C212.23 4.80667 212.613 4.74 213.013 4.74C213.66 4.74 214.157 4.90333 214.503 5.23C214.85 5.55667 215.023 6.04333 215.023 6.69V10H214.543ZM212.663 10.04C212.277 10.04 211.94 9.98 211.653 9.86C211.373 9.73333 211.157 9.55667 211.003 9.33C210.857 9.10333 210.783 8.84333 210.783 8.55C210.783 8.28333 210.843 8.04333 210.963 7.83C211.09 7.61 211.297 7.43333 211.583 7.3C211.87 7.16 212.253 7.09 212.733 7.09H214.653V7.48H212.743C212.203 7.48 211.823 7.58 211.603 7.78C211.39 7.98 211.283 8.23 211.283 8.53C211.283 8.86333 211.41 9.13 211.663 9.33C211.917 9.53 212.273 9.63 212.733 9.63C213.173 9.63 213.543 9.53 213.843 9.33C214.15 9.13 214.377 8.84 214.523 8.46L214.663 8.8C214.523 9.18 214.283 9.48333 213.943 9.71C213.61 9.93 213.183 10.04 212.663 10.04ZM219.633 4.74C220.06 4.74 220.43 4.82333 220.743 4.99C221.063 5.15 221.31 5.39667 221.483 5.73C221.663 6.05667 221.753 6.46333 221.753 6.95V10H221.253V6.99C221.253 6.40333 221.103 5.95667 220.803 5.65C220.51 5.34333 220.097 5.19 219.563 5.19C219.157 5.19 218.803 5.27333 218.503 5.44C218.203 5.60667 217.973 5.84 217.813 6.14C217.66 6.44 217.583 6.8 217.583 7.22V10H217.083V4.78H217.563V6.23L217.493 6.07C217.653 5.65667 217.917 5.33333 218.283 5.1C218.65 4.86 219.1 4.74 219.633 4.74Z" fill="white"/>
<path d="M260.22 67V60H260.73V67H260.22ZM265.559 61.74C265.986 61.74 266.356 61.8233 266.669 61.99C266.989 62.15 267.236 62.3967 267.409 62.73C267.589 63.0567 267.679 63.4633 267.679 63.95V67H267.179V63.99C267.179 63.4033 267.029 62.9567 266.729 62.65C266.436 62.3433 266.023 62.19 265.489 62.19C265.083 62.19 264.729 62.2733 264.429 62.44C264.129 62.6067 263.899 62.84 263.739 63.14C263.586 63.44 263.509 63.8 263.509 64.22V67H263.009V61.78H263.489V63.23L263.419 63.07C263.579 62.6567 263.843 62.3333 264.209 62.1C264.576 61.86 265.026 61.74 265.559 61.74ZM271.258 67.04C270.798 67.04 270.444 66.9133 270.198 66.66C269.958 66.4067 269.838 66.06 269.838 65.62V60.64H270.338V65.57C270.338 65.9033 270.421 66.16 270.588 66.34C270.754 66.52 270.994 66.61 271.308 66.61C271.634 66.61 271.904 66.5133 272.118 66.32L272.328 66.67C272.194 66.7967 272.031 66.89 271.838 66.95C271.651 67.01 271.458 67.04 271.258 67.04ZM268.878 62.21V61.78H271.998V62.21H268.878ZM275.657 67.04C275.13 67.04 274.663 66.9267 274.257 66.7C273.857 66.4733 273.54 66.16 273.307 65.76C273.08 65.36 272.967 64.9033 272.967 64.39C272.967 63.87 273.073 63.4133 273.287 63.02C273.507 62.62 273.807 62.3067 274.187 62.08C274.567 61.8533 274.993 61.74 275.467 61.74C275.94 61.74 276.363 61.85 276.737 62.07C277.117 62.29 277.413 62.6 277.627 63C277.847 63.3933 277.957 63.85 277.957 64.37C277.957 64.39 277.953 64.4133 277.947 64.44C277.947 64.46 277.947 64.4833 277.947 64.51H273.337V64.12H277.677L277.477 64.31C277.483 63.9033 277.397 63.54 277.217 63.22C277.043 62.8933 276.807 62.64 276.507 62.46C276.207 62.2733 275.86 62.18 275.467 62.18C275.08 62.18 274.733 62.2733 274.427 62.46C274.127 62.64 273.89 62.8933 273.717 63.22C273.543 63.54 273.457 63.9067 273.457 64.32V64.41C273.457 64.8367 273.55 65.2167 273.737 65.55C273.93 65.8767 274.193 66.1333 274.527 66.32C274.86 66.5 275.24 66.59 275.667 66.59C276 66.59 276.31 66.53 276.597 66.41C276.89 66.29 277.137 66.1067 277.337 65.86L277.627 66.19C277.4 66.47 277.113 66.6833 276.767 66.83C276.427 66.97 276.057 67.04 275.657 67.04ZM279.503 67V61.78H279.983V63.21L279.933 63.05C280.08 62.63 280.327 62.3067 280.673 62.08C281.02 61.8533 281.453 61.74 281.973 61.74V62.23C281.953 62.23 281.933 62.23 281.913 62.23C281.893 62.2233 281.873 62.22 281.853 62.22C281.273 62.22 280.82 62.4033 280.493 62.77C280.167 63.13 280.003 63.6333 280.003 64.28V67H279.503ZM289.851 61.74C290.271 61.74 290.634 61.8233 290.941 61.99C291.254 62.15 291.498 62.3967 291.671 62.73C291.844 63.0567 291.931 63.4633 291.931 63.95V67H291.431V63.99C291.431 63.4033 291.288 62.9567 291.001 62.65C290.714 62.3433 290.314 62.19 289.801 62.19C289.408 62.19 289.068 62.2733 288.781 62.44C288.494 62.6067 288.274 62.84 288.121 63.14C287.968 63.44 287.891 63.8 287.891 64.22V67H287.391V63.99C287.391 63.4033 287.248 62.9567 286.961 62.65C286.674 62.3433 286.274 62.19 285.761 62.19C285.368 62.19 285.028 62.2733 284.741 62.44C284.454 62.6067 284.234 62.84 284.081 63.14C283.928 63.44 283.851 63.8 283.851 64.22V67H283.351V61.78H283.831V63.22L283.761 63.06C283.914 62.6533 284.171 62.3333 284.531 62.1C284.891 61.86 285.324 61.74 285.831 61.74C286.351 61.74 286.788 61.8733 287.141 62.14C287.501 62.4 287.728 62.79 287.821 63.31L287.651 63.24C287.791 62.7933 288.054 62.4333 288.441 62.16C288.828 61.88 289.298 61.74 289.851 61.74ZM296.116 67.04C295.589 67.04 295.122 66.9267 294.716 66.7C294.316 66.4733 293.999 66.16 293.766 65.76C293.539 65.36 293.426 64.9033 293.426 64.39C293.426 63.87 293.532 63.4133 293.746 63.02C293.966 62.62 294.266 62.3067 294.646 62.08C295.026 61.8533 295.452 61.74 295.926 61.74C296.399 61.74 296.822 61.85 297.196 62.07C297.576 62.29 297.872 62.6 298.086 63C298.306 63.3933 298.416 63.85 298.416 64.37C298.416 64.39 298.412 64.4133 298.406 64.44C298.406 64.46 298.406 64.4833 298.406 64.51H293.796V64.12H298.136L297.936 64.31C297.942 63.9033 297.856 63.54 297.676 63.22C297.502 62.8933 297.266 62.64 296.966 62.46C296.666 62.2733 296.319 62.18 295.926 62.18C295.539 62.18 295.192 62.2733 294.886 62.46C294.586 62.64 294.349 62.8933 294.176 63.22C294.002 63.54 293.916 63.9067 293.916 64.32V64.41C293.916 64.8367 294.009 65.2167 294.196 65.55C294.389 65.8767 294.652 66.1333 294.986 66.32C295.319 66.5 295.699 66.59 296.126 66.59C296.459 66.59 296.769 66.53 297.056 66.41C297.349 66.29 297.596 66.1067 297.796 65.86L298.086 66.19C297.859 66.47 297.572 66.6833 297.226 66.83C296.886 66.97 296.516 67.04 296.116 67.04ZM301.972 67.04C301.486 67.04 301.046 66.93 300.652 66.71C300.266 66.4833 299.959 66.17 299.732 65.77C299.506 65.37 299.392 64.91 299.392 64.39C299.392 63.8633 299.506 63.4033 299.732 63.01C299.959 62.61 300.266 62.3 300.652 62.08C301.046 61.8533 301.486 61.74 301.972 61.74C302.432 61.74 302.846 61.8467 303.212 62.06C303.586 62.2733 303.879 62.5767 304.092 62.97C304.312 63.3633 304.422 63.8367 304.422 64.39C304.422 64.93 304.316 65.4 304.102 65.8C303.889 66.2 303.596 66.5067 303.222 66.72C302.856 66.9333 302.439 67.04 301.972 67.04ZM302.002 66.59C302.402 66.59 302.759 66.5 303.072 66.32C303.392 66.1333 303.642 65.8733 303.822 65.54C304.009 65.2067 304.102 64.8233 304.102 64.39C304.102 63.95 304.009 63.5667 303.822 63.24C303.642 62.9067 303.392 62.65 303.072 62.47C302.759 62.2833 302.402 62.19 302.002 62.19C301.602 62.19 301.242 62.2833 300.922 62.47C300.609 62.65 300.359 62.9067 300.172 63.24C299.992 63.5667 299.902 63.95 299.902 64.39C299.902 64.8233 299.992 65.2067 300.172 65.54C300.359 65.8733 300.609 66.1333 300.922 66.32C301.242 66.5 301.602 66.59 302.002 66.59ZM304.112 67V65.29L304.202 64.38L304.102 63.47V59.58H304.602V67H304.112ZM306.71 67V61.78H307.21V67H306.71ZM306.96 60.51C306.847 60.51 306.75 60.47 306.67 60.39C306.59 60.31 306.55 60.2167 306.55 60.11C306.55 59.9967 306.59 59.9 306.67 59.82C306.75 59.74 306.847 59.7 306.96 59.7C307.08 59.7 307.177 59.74 307.25 59.82C307.33 59.8933 307.37 59.9867 307.37 60.1C307.37 60.2133 307.33 60.31 307.25 60.39C307.177 60.47 307.08 60.51 306.96 60.51ZM312.608 67V65.81L312.588 65.63V63.67C312.588 63.1833 312.454 62.8133 312.188 62.56C311.928 62.3067 311.544 62.18 311.038 62.18C310.678 62.18 310.341 62.2433 310.028 62.37C309.721 62.49 309.458 62.6467 309.238 62.84L308.988 62.48C309.248 62.2467 309.561 62.0667 309.928 61.94C310.294 61.8067 310.678 61.74 311.078 61.74C311.724 61.74 312.221 61.9033 312.568 62.23C312.914 62.5567 313.088 63.0433 313.088 63.69V67H312.608ZM310.728 67.04C310.341 67.04 310.004 66.98 309.718 66.86C309.438 66.7333 309.221 66.5567 309.068 66.33C308.921 66.1033 308.848 65.8433 308.848 65.55C308.848 65.2833 308.908 65.0433 309.028 64.83C309.154 64.61 309.361 64.4333 309.648 64.3C309.934 64.16 310.318 64.09 310.798 64.09H312.718V64.48H310.808C310.268 64.48 309.888 64.58 309.668 64.78C309.454 64.98 309.348 65.23 309.348 65.53C309.348 65.8633 309.474 66.13 309.728 66.33C309.981 66.53 310.338 66.63 310.798 66.63C311.238 66.63 311.608 66.53 311.908 66.33C312.214 66.13 312.441 65.84 312.588 65.46L312.728 65.8C312.588 66.18 312.348 66.4833 312.008 66.71C311.674 66.93 311.248 67.04 310.728 67.04ZM316.668 67.04C316.208 67.04 315.855 66.9133 315.608 66.66C315.368 66.4067 315.248 66.06 315.248 65.62V60.64H315.748V65.57C315.748 65.9033 315.831 66.16 315.998 66.34C316.165 66.52 316.405 66.61 316.718 66.61C317.045 66.61 317.315 66.5133 317.528 66.32L317.738 66.67C317.605 66.7967 317.441 66.89 317.248 66.95C317.061 67.01 316.868 67.04 316.668 67.04ZM314.288 62.21V61.78H317.408V62.21H314.288ZM321.067 67.04C320.54 67.04 320.073 66.9267 319.667 66.7C319.267 66.4733 318.95 66.16 318.717 65.76C318.49 65.36 318.377 64.9033 318.377 64.39C318.377 63.87 318.483 63.4133 318.697 63.02C318.917 62.62 319.217 62.3067 319.597 62.08C319.977 61.8533 320.403 61.74 320.877 61.74C321.35 61.74 321.773 61.85 322.147 62.07C322.527 62.29 322.823 62.6 323.037 63C323.257 63.3933 323.367 63.85 323.367 64.37C323.367 64.39 323.363 64.4133 323.357 64.44C323.357 64.46 323.357 64.4833 323.357 64.51H318.747V64.12H323.087L322.887 64.31C322.893 63.9033 322.807 63.54 322.627 63.22C322.453 62.8933 322.217 62.64 321.917 62.46C321.617 62.2733 321.27 62.18 320.877 62.18C320.49 62.18 320.143 62.2733 319.837 62.46C319.537 62.64 319.3 62.8933 319.127 63.22C318.953 63.54 318.867 63.9067 318.867 64.32V64.41C318.867 64.8367 318.96 65.2167 319.147 65.55C319.34 65.8767 319.603 66.1333 319.937 66.32C320.27 66.5 320.65 66.59 321.077 66.59C321.41 66.59 321.72 66.53 322.007 66.41C322.3 66.29 322.547 66.1067 322.747 65.86L323.037 66.19C322.81 66.47 322.523 66.6833 322.177 66.83C321.837 66.97 321.467 67.04 321.067 67.04Z" fill="white"/>
<path d="M98.67 65.45H102.46V65.91H98.67V65.45ZM98.73 69H98.22V62H102.9V62.46H98.73V69ZM104.369 69V61.58H104.869V69H104.369ZM109.096 69.04C108.649 69.04 108.263 68.96 107.936 68.8C107.609 68.6333 107.356 68.3867 107.176 68.06C107.003 67.7267 106.916 67.3167 106.916 66.83V63.78H107.416V66.79C107.416 67.3767 107.566 67.8233 107.866 68.13C108.166 68.4367 108.589 68.59 109.136 68.59C109.529 68.59 109.869 68.5067 110.156 68.34C110.443 68.1733 110.663 67.94 110.816 67.64C110.969 67.3333 111.046 66.9733 111.046 66.56V63.78H111.546V69H111.066V67.55L111.136 67.72C110.983 68.1267 110.726 68.45 110.366 68.69C110.013 68.9233 109.589 69.04 109.096 69.04ZM115.785 69.04C115.259 69.04 114.792 68.9267 114.385 68.7C113.985 68.4733 113.669 68.16 113.435 67.76C113.209 67.36 113.095 66.9033 113.095 66.39C113.095 65.87 113.202 65.4133 113.415 65.02C113.635 64.62 113.935 64.3067 114.315 64.08C114.695 63.8533 115.122 63.74 115.595 63.74C116.069 63.74 116.492 63.85 116.865 64.07C117.245 64.29 117.542 64.6 117.755 65C117.975 65.3933 118.085 65.85 118.085 66.37C118.085 66.39 118.082 66.4133 118.075 66.44C118.075 66.46 118.075 66.4833 118.075 66.51H113.465V66.12H117.805L117.605 66.31C117.612 65.9033 117.525 65.54 117.345 65.22C117.172 64.8933 116.935 64.64 116.635 64.46C116.335 64.2733 115.989 64.18 115.595 64.18C115.209 64.18 114.862 64.2733 114.555 64.46C114.255 64.64 114.019 64.8933 113.845 65.22C113.672 65.54 113.585 65.9067 113.585 66.32V66.41C113.585 66.8367 113.679 67.2167 113.865 67.55C114.059 67.8767 114.322 68.1333 114.655 68.32C114.989 68.5 115.369 68.59 115.795 68.59C116.129 68.59 116.439 68.53 116.725 68.41C117.019 68.29 117.265 68.1067 117.465 67.86L117.755 68.19C117.529 68.47 117.242 68.6833 116.895 68.83C116.555 68.97 116.185 69.04 115.785 69.04ZM122.182 63.74C122.609 63.74 122.979 63.8233 123.292 63.99C123.612 64.15 123.859 64.3967 124.032 64.73C124.212 65.0567 124.302 65.4633 124.302 65.95V69H123.802V65.99C123.802 65.4033 123.652 64.9567 123.352 64.65C123.059 64.3433 122.646 64.19 122.112 64.19C121.706 64.19 121.352 64.2733 121.052 64.44C120.752 64.6067 120.522 64.84 120.362 65.14C120.209 65.44 120.132 65.8 120.132 66.22V69H119.632V63.78H120.112V65.23L120.042 65.07C120.202 64.6567 120.466 64.3333 120.832 64.1C121.199 63.86 121.649 63.74 122.182 63.74ZM127.881 69.04C127.421 69.04 127.067 68.9133 126.821 68.66C126.581 68.4067 126.461 68.06 126.461 67.62V62.64H126.961V67.57C126.961 67.9033 127.044 68.16 127.211 68.34C127.377 68.52 127.617 68.61 127.931 68.61C128.257 68.61 128.527 68.5133 128.741 68.32L128.951 68.67C128.817 68.7967 128.654 68.89 128.461 68.95C128.274 69.01 128.081 69.04 127.881 69.04ZM125.501 64.21V63.78H128.621V64.21H125.501Z" fill="white"/>
<path d="M186.649 69V62.46H184.129V62H189.679V62.46H187.159V69H186.649ZM192.357 69.04C191.83 69.04 191.363 68.9267 190.957 68.7C190.557 68.4733 190.24 68.16 190.007 67.76C189.78 67.36 189.667 66.9033 189.667 66.39C189.667 65.87 189.773 65.4133 189.987 65.02C190.207 64.62 190.507 64.3067 190.887 64.08C191.267 63.8533 191.693 63.74 192.167 63.74C192.64 63.74 193.063 63.85 193.437 64.07C193.817 64.29 194.113 64.6 194.327 65C194.547 65.3933 194.657 65.85 194.657 66.37C194.657 66.39 194.653 66.4133 194.647 66.44C194.647 66.46 194.647 66.4833 194.647 66.51H190.037V66.12H194.377L194.177 66.31C194.183 65.9033 194.097 65.54 193.917 65.22C193.743 64.8933 193.507 64.64 193.207 64.46C192.907 64.2733 192.56 64.18 192.167 64.18C191.78 64.18 191.433 64.2733 191.127 64.46C190.827 64.64 190.59 64.8933 190.417 65.22C190.243 65.54 190.157 65.9067 190.157 66.32V66.41C190.157 66.8367 190.25 67.2167 190.437 67.55C190.63 67.8767 190.893 68.1333 191.227 68.32C191.56 68.5 191.94 68.59 192.367 68.59C192.7 68.59 193.01 68.53 193.297 68.41C193.59 68.29 193.837 68.1067 194.037 67.86L194.327 68.19C194.1 68.47 193.813 68.6833 193.467 68.83C193.127 68.97 192.757 69.04 192.357 69.04ZM196.204 69V61.58H196.704V69H196.204ZM200.881 69.04C200.374 69.04 199.921 68.9267 199.521 68.7C199.128 68.4733 198.814 68.16 198.581 67.76C198.354 67.36 198.241 66.9033 198.241 66.39C198.241 65.87 198.354 65.41 198.581 65.01C198.814 64.61 199.128 64.3 199.521 64.08C199.921 63.8533 200.374 63.74 200.881 63.74C201.301 63.74 201.681 63.82 202.021 63.98C202.368 64.14 202.648 64.38 202.861 64.7L202.491 64.97C202.304 64.7033 202.071 64.5067 201.791 64.38C201.511 64.2533 201.208 64.19 200.881 64.19C200.474 64.19 200.108 64.2833 199.781 64.47C199.461 64.65 199.208 64.9067 199.021 65.24C198.841 65.5667 198.751 65.95 198.751 66.39C198.751 66.83 198.841 67.2167 199.021 67.55C199.208 67.8767 199.461 68.1333 199.781 68.32C200.108 68.5 200.474 68.59 200.881 68.59C201.208 68.59 201.511 68.5267 201.791 68.4C202.071 68.2733 202.304 68.0767 202.491 67.81L202.861 68.08C202.648 68.4 202.368 68.64 202.021 68.8C201.681 68.96 201.301 69.04 200.881 69.04ZM207.086 69V62H210.006C210.76 62 211.35 62.1533 211.776 62.46C212.203 62.7667 212.416 63.21 212.416 63.79C212.416 64.17 212.326 64.49 212.146 64.75C211.966 65.01 211.716 65.2067 211.396 65.34C211.083 65.4667 210.73 65.53 210.336 65.53L210.516 65.33C210.996 65.33 211.406 65.4 211.746 65.54C212.086 65.68 212.343 65.8833 212.516 66.15C212.696 66.4167 212.786 66.75 212.786 67.15C212.786 67.7367 212.573 68.1933 212.146 68.52C211.72 68.84 211.073 69 210.206 69H207.086ZM207.596 68.56H210.206C210.88 68.56 211.393 68.4467 211.746 68.22C212.1 67.9867 212.276 67.6167 212.276 67.11C212.276 66.61 212.1 66.2467 211.746 66.02C211.393 65.7867 210.88 65.67 210.206 65.67H207.536V65.23H209.986C210.593 65.23 211.063 65.1133 211.396 64.88C211.73 64.6467 211.896 64.2967 211.896 63.83C211.896 63.37 211.73 63.0233 211.396 62.79C211.063 62.5567 210.593 62.44 209.986 62.44H207.596V68.56ZM215.186 69V62.22L215.416 62.46H213.476V62H215.696V69H215.186ZM179.387 81.05C178.867 81.05 178.384 80.9633 177.937 80.79C177.497 80.61 177.114 80.36 176.787 80.04C176.46 79.72 176.207 79.3467 176.027 78.92C175.847 78.4867 175.757 78.0133 175.757 77.5C175.757 76.9867 175.847 76.5167 176.027 76.09C176.207 75.6567 176.46 75.28 176.787 74.96C177.12 74.64 177.507 74.3933 177.947 74.22C178.387 74.04 178.867 73.95 179.387 73.95C179.88 73.95 180.34 74.03 180.767 74.19C181.2 74.35 181.57 74.5933 181.877 74.92L181.557 75.25C181.257 74.9567 180.924 74.7467 180.557 74.62C180.197 74.4867 179.814 74.42 179.407 74.42C178.96 74.42 178.544 74.4967 178.157 74.65C177.777 74.8033 177.444 75.02 177.157 75.3C176.877 75.58 176.657 75.9067 176.497 76.28C176.344 76.6533 176.267 77.06 176.267 77.5C176.267 77.94 176.344 78.3467 176.497 78.72C176.657 79.0933 176.877 79.42 177.157 79.7C177.444 79.98 177.777 80.1967 178.157 80.35C178.544 80.5033 178.96 80.58 179.407 80.58C179.814 80.58 180.197 80.5167 180.557 80.39C180.924 80.2567 181.257 80.04 181.557 79.74L181.877 80.07C181.57 80.3967 181.2 80.6433 180.767 80.81C180.34 80.97 179.88 81.05 179.387 81.05ZM185.301 81.04C184.774 81.04 184.308 80.9267 183.901 80.7C183.501 80.4733 183.184 80.16 182.951 79.76C182.724 79.36 182.611 78.9033 182.611 78.39C182.611 77.87 182.718 77.4133 182.931 77.02C183.151 76.62 183.451 76.3067 183.831 76.08C184.211 75.8533 184.638 75.74 185.111 75.74C185.584 75.74 186.008 75.85 186.381 76.07C186.761 76.29 187.058 76.6 187.271 77C187.491 77.3933 187.601 77.85 187.601 78.37C187.601 78.39 187.598 78.4133 187.591 78.44C187.591 78.46 187.591 78.4833 187.591 78.51H182.981V78.12H187.321L187.121 78.31C187.128 77.9033 187.041 77.54 186.861 77.22C186.688 76.8933 186.451 76.64 186.151 76.46C185.851 76.2733 185.504 76.18 185.111 76.18C184.724 76.18 184.378 76.2733 184.071 76.46C183.771 76.64 183.534 76.8933 183.361 77.22C183.188 77.54 183.101 77.9067 183.101 78.32V78.41C183.101 78.8367 183.194 79.2167 183.381 79.55C183.574 79.8767 183.838 80.1333 184.171 80.32C184.504 80.5 184.884 80.59 185.311 80.59C185.644 80.59 185.954 80.53 186.241 80.41C186.534 80.29 186.781 80.1067 186.981 79.86L187.271 80.19C187.044 80.47 186.758 80.6833 186.411 80.83C186.071 80.97 185.701 81.04 185.301 81.04ZM189.148 81V75.78H189.628V77.21L189.578 77.05C189.725 76.63 189.971 76.3067 190.318 76.08C190.665 75.8533 191.098 75.74 191.618 75.74V76.23C191.598 76.23 191.578 76.23 191.558 76.23C191.538 76.2233 191.518 76.22 191.498 76.22C190.918 76.22 190.465 76.4033 190.138 76.77C189.811 77.13 189.648 77.6333 189.648 78.28V81H189.148ZM194.75 81.04C194.29 81.04 193.937 80.9133 193.69 80.66C193.45 80.4067 193.33 80.06 193.33 79.62V74.64H193.83V79.57C193.83 79.9033 193.913 80.16 194.08 80.34C194.247 80.52 194.487 80.61 194.8 80.61C195.127 80.61 195.397 80.5133 195.61 80.32L195.82 80.67C195.687 80.7967 195.523 80.89 195.33 80.95C195.143 81.01 194.95 81.04 194.75 81.04ZM192.37 76.21V75.78H195.49V76.21H192.37ZM197.214 81V75.78H197.714V81H197.214ZM197.464 74.51C197.351 74.51 197.254 74.47 197.174 74.39C197.094 74.31 197.054 74.2167 197.054 74.11C197.054 73.9967 197.094 73.9 197.174 73.82C197.254 73.74 197.351 73.7 197.464 73.7C197.584 73.7 197.681 73.74 197.754 73.82C197.834 73.8933 197.874 73.9867 197.874 74.1C197.874 74.2133 197.834 74.31 197.754 74.39C197.681 74.47 197.584 74.51 197.464 74.51ZM199.922 81V74.98C199.922 74.5467 200.045 74.2 200.292 73.94C200.545 73.6733 200.905 73.54 201.372 73.54C201.565 73.54 201.755 73.57 201.942 73.63C202.128 73.6833 202.282 73.7667 202.402 73.88L202.202 74.26C202.102 74.16 201.982 74.0867 201.842 74.04C201.702 73.9933 201.552 73.97 201.392 73.97C201.072 73.97 200.828 74.06 200.662 74.24C200.495 74.4133 200.412 74.6733 200.412 75.02V75.9L200.422 76.14V81H199.922ZM198.962 76.21V75.78H202.082V76.21H198.962ZM203.102 81V75.78H203.602V81H203.102ZM203.352 74.51C203.238 74.51 203.142 74.47 203.062 74.39C202.982 74.31 202.942 74.2167 202.942 74.11C202.942 73.9967 202.982 73.9 203.062 73.82C203.142 73.74 203.238 73.7 203.352 73.7C203.472 73.7 203.568 73.74 203.642 73.82C203.722 73.8933 203.762 73.9867 203.762 74.1C203.762 74.2133 203.722 74.31 203.642 74.39C203.568 74.47 203.472 74.51 203.352 74.51ZM207.78 81.04C207.274 81.04 206.82 80.9267 206.42 80.7C206.027 80.4733 205.714 80.16 205.48 79.76C205.254 79.36 205.14 78.9033 205.14 78.39C205.14 77.87 205.254 77.41 205.48 77.01C205.714 76.61 206.027 76.3 206.42 76.08C206.82 75.8533 207.274 75.74 207.78 75.74C208.2 75.74 208.58 75.82 208.92 75.98C209.267 76.14 209.547 76.38 209.76 76.7L209.39 76.97C209.204 76.7033 208.97 76.5067 208.69 76.38C208.41 76.2533 208.107 76.19 207.78 76.19C207.374 76.19 207.007 76.2833 206.68 76.47C206.36 76.65 206.107 76.9067 205.92 77.24C205.74 77.5667 205.65 77.95 205.65 78.39C205.65 78.83 205.74 79.2167 205.92 79.55C206.107 79.8767 206.36 80.1333 206.68 80.32C207.007 80.5 207.374 80.59 207.78 80.59C208.107 80.59 208.41 80.5267 208.69 80.4C208.97 80.2733 209.204 80.0767 209.39 79.81L209.76 80.08C209.547 80.4 209.267 80.64 208.92 80.8C208.58 80.96 208.2 81.04 207.78 81.04ZM214.547 81V79.81L214.527 79.63V77.67C214.527 77.1833 214.394 76.8133 214.127 76.56C213.867 76.3067 213.484 76.18 212.977 76.18C212.617 76.18 212.281 76.2433 211.967 76.37C211.661 76.49 211.397 76.6467 211.177 76.84L210.927 76.48C211.187 76.2467 211.501 76.0667 211.867 75.94C212.234 75.8067 212.617 75.74 213.017 75.74C213.664 75.74 214.161 75.9033 214.507 76.23C214.854 76.5567 215.027 77.0433 215.027 77.69V81H214.547ZM212.667 81.04C212.281 81.04 211.944 80.98 211.657 80.86C211.377 80.7333 211.161 80.5567 211.007 80.33C210.861 80.1033 210.787 79.8433 210.787 79.55C210.787 79.2833 210.847 79.0433 210.967 78.83C211.094 78.61 211.301 78.4333 211.587 78.3C211.874 78.16 212.257 78.09 212.737 78.09H214.657V78.48H212.747C212.207 78.48 211.827 78.58 211.607 78.78C211.394 78.98 211.287 79.23 211.287 79.53C211.287 79.8633 211.414 80.13 211.667 80.33C211.921 80.53 212.277 80.63 212.737 80.63C213.177 80.63 213.547 80.53 213.847 80.33C214.154 80.13 214.381 79.84 214.527 79.46L214.667 79.8C214.527 80.18 214.287 80.4833 213.947 80.71C213.614 80.93 213.187 81.04 212.667 81.04ZM218.607 81.04C218.147 81.04 217.794 80.9133 217.547 80.66C217.307 80.4067 217.187 80.06 217.187 79.62V74.64H217.687V79.57C217.687 79.9033 217.771 80.16 217.937 80.34C218.104 80.52 218.344 80.61 218.657 80.61C218.984 80.61 219.254 80.5133 219.467 80.32L219.677 80.67C219.544 80.7967 219.381 80.89 219.187 80.95C219.001 81.01 218.807 81.04 218.607 81.04ZM216.227 76.21V75.78H219.347V76.21H216.227ZM223.006 81.04C222.48 81.04 222.013 80.9267 221.606 80.7C221.206 80.4733 220.89 80.16 220.656 79.76C220.43 79.36 220.316 78.9033 220.316 78.39C220.316 77.87 220.423 77.4133 220.636 77.02C220.856 76.62 221.156 76.3067 221.536 76.08C221.916 75.8533 222.343 75.74 222.816 75.74C223.29 75.74 223.713 75.85 224.086 76.07C224.466 76.29 224.763 76.6 224.976 77C225.196 77.3933 225.306 77.85 225.306 78.37C225.306 78.39 225.303 78.4133 225.296 78.44C225.296 78.46 225.296 78.4833 225.296 78.51H220.686V78.12H225.026L224.826 78.31C224.833 77.9033 224.746 77.54 224.566 77.22C224.393 76.8933 224.156 76.64 223.856 76.46C223.556 76.2733 223.21 76.18 222.816 76.18C222.43 76.18 222.083 76.2733 221.776 76.46C221.476 76.64 221.24 76.8933 221.066 77.22C220.893 77.54 220.806 77.9067 220.806 78.32V78.41C220.806 78.8367 220.9 79.2167 221.086 79.55C221.28 79.8767 221.543 80.1333 221.876 80.32C222.21 80.5 222.59 80.59 223.016 80.59C223.35 80.59 223.66 80.53 223.946 80.41C224.24 80.29 224.486 80.1067 224.686 79.86L224.976 80.19C224.75 80.47 224.463 80.6833 224.116 80.83C223.776 80.97 223.406 81.04 223.006 81.04Z" fill="white"/>
<defs>
<clipPath id="clip0_7_226">
<rect width="321" height="37" fill="white" transform="translate(0 17)"/>
</clipPath>
</defs>
</svg>
