<svg width="62" height="27" viewBox="0 0 62 27" fill="none" xmlns="http://www.w3.org/2000/svg">
<path fill-rule="evenodd" clip-rule="evenodd" d="M62.0001 0V26.8891H41.8902V25.7219H24.4075V26.8891H0V0H24.276V1.38691H41.7587V0H62.0001ZM29.2176 13.653C29.2176 9.55326 31.0356 6.98608 33.8774 6.98608C35.6563 6.98608 37.097 7.75358 38.7251 9.43869L41.0352 6.64135C39.1801 4.4194 36.9061 3.23162 33.9896 3.23162C29.1415 3.23162 25.279 7.10116 25.279 13.7685C25.279 20.0521 29.0282 24.1904 33.8774 24.1904C37.4748 24.1904 39.4441 22.4282 40.9966 20.4354L38.4971 17.9448C36.9446 19.5928 35.8467 20.4354 33.9896 20.4354C30.8843 20.4354 29.2176 17.6 29.2176 13.653ZM20.6998 4.03615H19.8759C19.7023 4.73861 19.3981 5.83483 19.0945 6.18606C17.7933 4.51896 15.4506 3.29016 13.3685 3.29016C7.94709 3.29016 3.56627 7.94171 3.56627 13.5144C3.56627 19.1751 7.94709 23.7826 13.3685 23.7826C15.4506 23.7826 17.7933 22.5098 19.0945 20.8867C19.3981 21.1939 19.7023 22.2471 19.8759 23.0371H20.6998V15.4011H19.8319C19.0074 19.4833 16.7092 22.0715 13.3685 22.0715C8.51138 22.0715 7.08013 17.2443 7.08013 13.5144C7.08013 9.82794 8.51138 4.95825 13.3685 4.95825C16.7092 4.95825 19.0074 7.54645 19.8319 11.6281H20.6998V4.03615ZM58.277 17.7717C58.277 16.0595 57.366 14.0842 54.8942 12.8119L51.9882 11.2764C49.3428 9.87297 48.2142 9.03893 48.2142 7.50342C48.2142 5.87935 49.6454 4.95825 51.3373 4.95825C54.461 4.95825 55.6316 8.07329 55.8922 10.706H56.7592V3.29016H55.8922C55.8057 3.99262 55.458 4.38688 55.2414 4.65055C54.3304 3.99262 52.9422 3.33419 51.1212 3.33419C47.9986 3.33419 45.6984 5.57165 45.6984 8.33596C45.6984 10.7941 47.2167 12.5928 49.2983 13.69L52.2478 15.2265C54.5901 16.4103 55.8057 17.5955 55.8057 19.1315C55.8057 21.0183 54.3304 22.0715 52.4654 22.0715C49.2112 22.0715 46.87 19.9651 46.5228 16.2356H45.6553V23.7826H46.4358C46.5663 23.0371 47 22.4657 47.2607 22.1595C48.0411 22.6854 49.8626 23.7826 52.1187 23.7826C55.458 23.7826 58.277 21.369 58.277 17.7717Z" fill="#FFD100"/>
</svg>
