<svg width="692" height="276" viewBox="0 0 692 276" fill="none" xmlns="http://www.w3.org/2000/svg">
<path d="M70.4527 11.0357L70.9041 11.0455C75.548 11.2422 79.5415 14.3116 80.7678 18.6453L80.7688 18.6492L84.5677 31.6826H20.3008L24.1202 18.6326L24.1212 18.6287C25.3507 14.308 29.3349 11.2512 33.9663 11.0465L34.4167 11.0357H70.4527Z" stroke="white"/>
<path d="M17.0886 37.8268H87.7789L88.3593 37.8415C94.3166 38.1382 99.0251 42.8819 99.035 48.6618V74.6699C99.035 75.7452 98.1246 76.6494 96.9655 76.6495H88.715C87.5558 76.6495 86.6445 75.7452 86.6445 74.6699V72.5369C86.6444 68.4544 83.2221 65.1775 79.035 65.1775H25.8335C21.6463 65.1775 18.2231 68.4544 18.223 72.5369V74.6328C18.2193 75.7327 17.2937 76.6495 16.1105 76.6495H7.90006C6.73974 76.6466 5.83254 75.745 5.83254 74.6699V48.6618C5.84245 42.882 10.5511 38.1384 16.5082 37.8415L17.0886 37.8268ZM24.0943 42.4709C18.9511 42.4712 14.7536 46.4954 14.7533 51.5002C14.7533 56.5052 18.9509 60.5302 24.0943 60.5304H24.0953C29.2347 60.5232 33.4325 56.4988 33.4362 51.4973L33.4235 51.0312C33.1694 46.2481 29.0774 42.4709 24.0943 42.4709ZM80.7732 42.4709C75.6298 42.4709 71.4325 46.4952 71.4322 51.5002C71.4322 56.5054 75.6296 60.5304 80.7732 60.5304H80.7742C85.9135 60.5231 90.1104 56.4987 90.1142 51.4973L90.1015 51.0312C89.8473 46.2482 85.7563 42.471 80.7732 42.4709ZM44.3357 48.4253C42.6049 48.4255 41.1699 49.7845 41.1699 51.4973C41.1699 53.21 42.6049 54.5691 44.3357 54.5692H60.5319C62.2627 54.5692 63.6986 53.2101 63.6986 51.4973C63.6986 49.7844 62.2628 48.4253 60.5319 48.4253H44.3357Z" stroke="white"/>
<path d="M34.414 5.89147H70.4529L71.1281 5.90613C78.0743 6.19845 84.0591 10.7807 85.9085 17.2706L85.9094 17.2736L89.9155 31.0153L90.0933 31.624L90.6434 31.3104L96.3565 28.0557L96.3682 28.0489L96.3789 28.042C96.3789 28.042 96.3834 28.0395 96.3985 28.0313C96.408 28.0261 96.4281 28.0139 96.4493 28.002L96.4503 28.003C97.5024 27.4322 98.827 27.8011 99.4089 28.7993C99.9831 29.7845 99.6266 31.0419 98.5823 31.6084L98.5735 31.6143L95.1644 33.5548L94.3349 34.0267L95.1957 34.441C100.627 37.0514 104.12 42.2993 104.355 48.0997L104.368 48.6635V74.6706C104.364 78.5855 101.068 81.7903 96.9652 81.7936H88.7147L88.3326 81.7838C84.4093 81.589 81.3155 78.4625 81.3122 74.6696V72.5367C81.312 71.2973 80.2748 70.3226 79.0347 70.3226H25.8332C24.593 70.3226 23.5559 71.2973 23.5556 72.5367V74.6325C23.5486 78.5718 20.2375 81.7903 16.1102 81.7936H7.89975C3.92486 81.7873 0.710239 78.7823 0.51004 75.0351L0.500269 74.6696V48.6635C0.524357 42.6712 4.03438 37.1885 9.59598 34.484L10.45 34.0687L9.62529 33.5997L6.14099 31.6172H6.14197C5.11106 31.0294 4.78358 29.764 5.3818 28.7876C5.94884 27.8621 7.15967 27.5072 8.16357 27.9551L8.36191 28.0557L14.2029 31.3856L14.753 31.6993L14.9309 31.0915L18.9623 17.257V17.254C20.6204 11.4669 25.603 7.11654 31.7583 6.10741C32.6346 5.96431 33.5245 5.89149 34.414 5.89147ZM17.0873 36.8261C10.3411 36.8333 4.84286 42.1093 4.8317 48.6605V74.6667C4.8317 76.3272 6.2203 77.6468 7.89878 77.6468H16.1102C17.8116 77.6468 19.223 76.3157 19.2232 74.6296V72.5337C19.2232 69.0372 22.1643 66.1748 25.8332 66.1748H79.0347C82.7035 66.1748 85.6447 69.0372 85.6447 72.5337V74.6667C85.6447 76.3281 87.0371 77.6468 88.7147 77.6468H96.9652C98.6428 77.6468 100.036 76.3281 100.036 74.6667V48.6674C100.029 42.1161 94.5269 36.8334 87.7806 36.8261H17.0873ZM34.412 10.0353C29.1679 10.0569 24.5581 13.4441 23.1599 18.3513L19.1529 32.0422L18.9653 32.6822H85.9016L85.715 32.0422L81.7295 18.3689C80.335 13.4479 75.7142 10.0462 70.4548 10.0353H34.412Z" fill="white" stroke="white"/>
<path d="M647.916 7.29408H652.875C653.163 7.29408 653.366 7.51538 653.366 7.75038C653.366 7.98547 653.163 8.20766 652.875 8.20766H647.916C647.628 8.20762 647.425 7.98542 647.425 7.75038C647.425 7.51544 647.628 7.29412 647.916 7.29408Z" fill="white" stroke="white"/>
<path d="M606.705 0.500269H614.739C616.691 0.500522 618.256 2.03538 618.259 3.87611C618.259 5.78051 619.855 7.29372 621.784 7.29396H623.121C623.409 7.29396 623.612 7.51534 623.612 7.75026C623.612 7.98532 623.409 8.20754 623.121 8.20754H622.919L622.916 8.21047H621.781C619.851 8.21047 618.256 9.72442 618.256 11.6293C618.256 13.4661 616.691 15.0039 614.739 15.0042H606.705C604.756 15.0041 603.188 13.469 603.188 11.6293V3.87904C603.188 2.03874 604.757 0.500365 606.705 0.500269ZM607.696 1.41678C605.767 1.41692 604.171 2.93077 604.171 4.83561V10.6727C604.171 12.5775 605.767 14.0914 607.696 14.0916H613.747C615.677 14.0916 617.273 12.5776 617.273 10.6727V4.83561C617.273 2.93068 615.677 1.41678 613.747 1.41678H607.696Z" fill="white" stroke="white"/>
<path d="M657.838 7.29408H662.796C663.085 7.29408 663.288 7.51538 663.288 7.75038C663.288 7.98547 663.085 8.20766 662.796 8.20766H657.838C657.55 8.20762 657.346 7.98542 657.346 7.75038C657.346 7.51544 657.55 7.29412 657.838 7.29408Z" fill="white" stroke="white"/>
<path d="M637.998 7.29408H642.957C643.245 7.29408 643.448 7.51542 643.448 7.75038C643.448 7.98544 643.245 8.20766 642.957 8.20766H637.998C637.71 8.20762 637.507 7.98542 637.507 7.75038C637.507 7.51544 637.71 7.29412 637.998 7.29408Z" fill="white" stroke="white"/>
<path d="M667.756 7.29408H672.714C673.003 7.29408 673.206 7.51542 673.206 7.75038C673.206 7.98544 673.003 8.20766 672.714 8.20766H667.756C667.468 8.20764 667.264 7.98547 667.264 7.75038C667.264 7.51539 667.468 7.29409 667.756 7.29408Z" fill="white" stroke="white"/>
<path d="M628.08 7.29408H633.039C633.327 7.29408 633.53 7.51538 633.53 7.75038C633.53 7.98547 633.327 8.20766 633.039 8.20766H628.08C627.792 8.20764 627.589 7.98547 627.589 7.75038C627.589 7.51539 627.792 7.29409 628.08 7.29408Z" fill="white" stroke="white"/>
<path d="M610.722 56.5519C611.01 56.5519 611.213 56.7732 611.213 57.0082V61.793C611.213 62.0279 611.01 62.2493 610.722 62.2493C610.434 62.2492 610.231 62.0279 610.23 61.793V57.0082C610.231 56.7732 610.434 56.5519 610.722 56.5519Z" fill="white" stroke="white"/>
<path d="M610.722 46.9836C611.01 46.9836 611.213 47.2049 611.213 47.4399V52.2247C611.213 52.4597 611.01 52.681 610.722 52.681C610.434 52.681 610.231 52.4596 610.23 52.2247V47.4399C610.231 47.205 610.434 46.9837 610.722 46.9836Z" fill="white" stroke="white"/>
<path d="M610.722 37.4154C611.01 37.4154 611.213 37.6367 611.213 37.8717V42.6565C611.213 42.8914 611.01 43.1128 610.722 43.1128C610.434 43.1127 610.231 42.8914 610.23 42.6565V37.8717C610.231 37.6367 610.434 37.4154 610.722 37.4154Z" fill="white" stroke="white"/>
<path d="M610.722 27.8436C611.01 27.8436 611.213 28.0649 611.213 28.2999V33.0847C611.213 33.3196 611.01 33.541 610.722 33.541C610.434 33.5409 610.231 33.3196 610.23 33.0847V28.2999C610.231 28.0649 610.434 27.8436 610.722 27.8436Z" fill="white" stroke="white"/>
<path d="M610.722 18.2754C611.01 18.2754 611.213 18.4967 611.213 18.7317V23.5165C611.213 23.7515 611.01 23.9728 610.722 23.9728C610.434 23.9728 610.231 23.7514 610.23 23.5165V18.7317C610.231 18.4968 610.434 18.2755 610.722 18.2754Z" fill="white" stroke="white"/>
<path d="M651.915 77.9588H656.874C657.162 77.9588 657.366 78.1801 657.366 78.4151C657.366 78.6502 657.162 78.8723 656.874 78.8723H651.915C651.627 78.8723 651.424 78.6501 651.424 78.4151C651.424 78.1801 651.627 77.9588 651.915 77.9588Z" fill="white" stroke="white"/>
<path d="M622.158 77.9588H627.117C627.405 77.9588 627.608 78.1801 627.608 78.4151C627.608 78.6502 627.405 78.8723 627.117 78.8723H622.158C621.87 78.8723 621.666 78.6501 621.666 78.4151C621.667 78.1801 621.87 77.9588 622.158 77.9588Z" fill="white" stroke="white"/>
<path d="M641.997 77.9588H646.956C647.244 77.9588 647.448 78.1801 647.448 78.4151C647.448 78.6501 647.244 78.8723 646.956 78.8723H641.997C641.709 78.8723 641.506 78.6501 641.506 78.4151C641.506 78.1801 641.709 77.9588 641.997 77.9588Z" fill="white" stroke="white"/>
<path d="M661.837 77.9588H666.796C667.084 77.9588 667.287 78.1801 667.287 78.4151C667.287 78.6502 667.084 78.8723 666.796 78.8723H661.837C661.549 78.8723 661.345 78.6501 661.345 78.4151C661.346 78.1801 661.549 77.9588 661.837 77.9588Z" fill="white" stroke="white"/>
<path d="M632.079 77.9588H637.038C637.326 77.9588 637.529 78.1801 637.53 78.4151C637.53 78.6502 637.326 78.8723 637.038 78.8723H632.079C631.791 78.8723 631.588 78.6501 631.588 78.4151C631.588 78.1801 631.791 77.9588 632.079 77.9588Z" fill="white" stroke="white"/>
<path d="M683.966 33.5948C684.254 33.5948 684.457 33.8161 684.457 34.0511V38.8359C684.457 39.0709 684.254 39.2922 683.966 39.2922C683.678 39.2922 683.475 39.0708 683.474 38.8359V34.0511C683.475 33.8162 683.678 33.5949 683.966 33.5948Z" fill="white" stroke="white"/>
<path d="M683.966 52.7313C684.254 52.7313 684.457 52.9526 684.457 53.1876V57.9724C684.457 58.2074 684.254 58.4287 683.966 58.4287C683.678 58.4287 683.475 58.2073 683.474 57.9724V53.1876L683.484 53.1007C683.527 52.9009 683.714 52.7314 683.966 52.7313Z" fill="white" stroke="white"/>
<path d="M683.97 24.0232C684.258 24.0232 684.461 24.2445 684.461 24.4795V29.2643C684.461 29.4992 684.258 29.7206 683.97 29.7206C683.682 29.7205 683.478 29.4992 683.478 29.2643V24.4795C683.478 24.2445 683.681 24.0232 683.97 24.0232Z" fill="white" stroke="white"/>
<path d="M683.966 62.3031C684.254 62.3031 684.457 62.5244 684.457 62.7594V67.5442C684.457 67.7792 684.254 68.0005 683.966 68.0005C683.678 68.0005 683.475 67.7791 683.474 67.5442V62.7594C683.475 62.5245 683.678 62.3032 683.966 62.3031Z" fill="white" stroke="white"/>
<path d="M683.966 43.1631C684.254 43.1631 684.457 43.3844 684.457 43.6194V48.4042C684.457 48.6391 684.254 48.8605 683.966 48.8605C683.678 48.8604 683.475 48.6391 683.474 48.4042V43.6194C683.475 43.3844 683.678 43.1631 683.966 43.1631Z" fill="white" stroke="white"/>
<path d="M679.949 0.500269H689.776L689.772 0.504177H691.005C691.295 0.504178 691.5 0.727683 691.5 0.960477V11.6264C691.5 13.463 689.935 15.001 687.983 15.0012C686.053 15.0012 684.457 16.5151 684.457 18.4201V19.702C684.457 19.9371 684.254 20.1593 683.966 20.1593C683.678 20.1591 683.474 19.937 683.474 19.702V18.4201C683.474 16.5151 681.879 15.0012 679.949 15.0012C678 15.0011 676.433 13.4659 676.432 11.6264V3.87513C676.432 2.03835 677.997 0.500365 679.949 0.500269ZM680.941 1.41678C679.011 1.41689 677.415 2.93075 677.415 4.83561V10.6727C677.415 12.5775 679.011 14.0914 680.941 14.0916H686.991C688.921 14.0916 690.517 12.5776 690.517 10.6727V4.83561C690.517 2.93068 688.921 1.41678 686.991 1.41678H680.941Z" fill="white" stroke="white"/>
<path d="M610.722 66.1237C611.01 66.1237 611.213 66.345 611.213 66.58V67.7466C611.213 69.6514 612.809 71.1654 614.739 71.1654H617.802C618.068 71.1854 618.252 71.3943 618.252 71.6178V82.2876C618.252 84.1244 616.687 85.6624 614.735 85.6625H606.705C604.756 85.6624 603.188 84.1272 603.188 82.2876V74.5403C603.188 72.7034 604.753 71.1655 606.705 71.1654C608.635 71.1654 610.23 69.6514 610.23 67.7466V66.58C610.23 66.3451 610.434 66.1239 610.722 66.1237ZM607.7 72.0819C605.77 72.0819 604.175 73.5958 604.175 75.5008V81.334C604.175 83.2389 605.77 84.7528 607.7 84.7528H613.747C615.677 84.7528 617.273 83.2389 617.273 81.334V75.5008C617.273 73.5958 615.677 72.0819 613.747 72.0819H607.7Z" fill="white" stroke="white"/>
<path d="M679.949 71.1649H691.009C691.294 71.1652 691.496 71.3841 691.496 71.6212V82.291C691.496 84.1277 689.931 85.6658 687.98 85.6659H679.949C678 85.6658 676.433 84.1306 676.432 82.291C676.432 80.3862 674.837 78.8723 672.907 78.8722H671.755C671.467 78.8722 671.264 78.65 671.264 78.4149C671.264 78.18 671.467 77.9587 671.755 77.9586H672.907C674.837 77.9585 676.432 76.4447 676.432 74.5398C676.432 72.703 677.997 71.165 679.949 71.1649ZM680.944 72.0815C679.015 72.0815 677.419 73.5954 677.419 75.5003V81.3335C677.419 83.2384 679.015 84.7523 680.944 84.7523H686.991C688.921 84.7523 690.517 83.2384 690.517 81.3335V75.5003C690.517 73.5954 688.921 72.0815 686.991 72.0815H680.944Z" fill="white" stroke="white"/>
<path d="M631.482 27.5421C631.625 27.4132 631.824 27.3682 631.995 27.4239L631.999 27.4259L654.622 34.6143C654.793 34.6711 654.907 34.7995 654.941 34.9436L654.942 34.9485C654.979 35.0939 654.938 35.2482 654.813 35.3686L650.388 39.6385L650.015 39.9981L650.388 40.3586L661.187 50.7773H661.188C661.285 50.877 661.334 50.9953 661.334 51.1066C661.333 51.2298 661.287 51.3391 661.198 51.4251L656.278 56.1718C656.175 56.2672 656.048 56.3164 655.915 56.3164C655.849 56.3164 655.789 56.3053 655.734 56.2861L655.59 56.1474L644.78 45.7189L644.433 45.3838L644.085 45.7189L639.66 49.9878C639.537 50.1065 639.362 50.1566 639.184 50.1177C639.009 50.0764 638.883 49.9591 638.83 49.8129H638.831L631.38 27.9877L631.378 27.9828C631.324 27.8299 631.36 27.6646 631.482 27.5421ZM632.914 29.5286L639.242 48.0854L639.704 47.9261L639.708 47.9301L640.056 48.2906L644.04 44.4458C644.142 44.3522 644.268 44.3051 644.401 44.3051C644.544 44.3051 644.661 44.3495 644.757 44.4428L655.568 54.8713L655.915 55.2064L656.262 54.8713L659.792 51.4661L660.165 51.1066L659.792 50.746L648.991 40.3273H648.992C648.894 40.2276 648.846 40.1093 648.846 39.9981C648.846 39.8749 648.892 39.7655 648.981 39.6795L652.971 35.8308L653.575 35.2484L652.774 34.9944L633.539 28.8895L632.594 28.5896L632.914 29.5286Z" fill="white" stroke="white"/>
<path d="M457.104 3.45352C460.163 3.30329 463.058 3.73377 465.085 4.73839H465.086L503.35 23.6929C505.221 24.6216 506.125 25.9047 506.126 27.2573C506.126 28.9931 504.625 30.8883 501.658 32.3548L492.611 36.8338L491.705 37.2822L492.611 37.7307L503.353 43.049C505.224 43.9778 506.128 45.2608 506.129 46.6134V46.7404C506.056 48.4401 504.558 50.2771 501.662 51.707H501.661L492.614 56.186L491.709 56.6344L492.614 57.0829L503.357 62.4012V62.4022C505.228 63.331 506.132 64.6139 506.132 65.9666C506.132 67.5938 504.814 69.3609 502.205 70.7836L501.665 71.0631L468.715 87.3844C465.863 88.7984 462.209 89.5378 458.813 89.5379C456.189 89.5379 453.767 89.0941 452.004 88.2207L413.743 69.2662C411.872 68.3374 410.967 67.0545 410.967 65.7018C410.967 63.9661 412.468 62.0717 415.434 60.6053L424.482 56.1263L425.387 55.6779L424.482 55.2294L413.739 49.9101C411.868 48.9813 410.964 47.6983 410.964 46.3457C410.964 44.61 412.465 42.7156 415.431 41.2492L424.478 36.7702L425.384 36.3218L424.478 35.8733L413.735 30.554H413.736C411.865 29.6253 410.96 28.3431 410.96 26.9906C410.96 25.3633 412.279 23.5954 414.888 22.1726L415.427 21.8931L448.37 5.57868C450.898 4.32853 454.052 3.60346 457.104 3.45352ZM425.869 56.142L415.752 61.1554H415.751C414.514 61.7688 413.502 62.4829 412.792 63.2435C412.087 63.9988 411.641 64.8434 411.641 65.7086C411.641 66.5012 412.012 67.1408 412.483 67.6276C412.951 68.1105 413.541 68.4712 414.056 68.7259L452.323 87.6804C454.32 88.6699 457.15 89.042 460.042 88.8861C462.942 88.7298 465.973 88.0388 468.394 86.8401L501.338 70.5267C502.575 69.9133 503.587 69.1992 504.297 68.4386C505.003 67.6834 505.447 66.8386 505.447 65.9734C505.447 65.1808 505.076 64.5413 504.605 64.0544C504.221 63.657 503.752 63.3446 503.312 63.1037V63.0901L503.033 62.9523L491.217 57.1054L490.994 56.996L490.773 57.1054L468.715 68.0283C465.863 69.4423 462.209 70.1817 458.813 70.1818C456.189 70.1818 453.767 69.738 452.004 68.8646L426.312 56.142L426.09 56.0316L425.869 56.142ZM425.873 36.7859L415.752 41.7993H415.751C414.514 42.4127 413.502 43.1268 412.792 43.8874C412.087 44.6427 411.641 45.4873 411.641 46.3525C411.641 47.1451 412.012 47.7847 412.483 48.2715C412.951 48.7544 413.541 49.1151 414.056 49.3698L452.323 68.3243C454.32 69.3138 457.15 69.6859 460.042 69.53C462.942 69.3737 465.973 68.6836 468.394 67.485L468.673 67.3472V67.3423L501.334 51.1667C502.571 50.5533 503.583 49.8401 504.294 49.0796C504.999 48.3241 505.445 47.4788 505.445 46.6134C505.444 45.8208 505.073 45.1812 504.602 44.6944C504.135 44.2114 503.544 43.8509 503.029 43.5962L491.217 37.7493L490.994 37.6399L490.773 37.7493L468.715 48.6721C465.863 50.0862 462.209 50.8256 458.813 50.8256C456.19 50.8256 453.767 50.3828 452.004 49.5095L426.316 36.7859L426.094 36.6755L425.873 36.7859ZM458.301 4.04075C455.238 4.04075 451.906 4.65969 449.219 5.86985L448.69 6.11901L415.748 22.4334C414.511 23.0468 413.499 23.76 412.788 24.5205C412.083 25.276 411.637 26.1212 411.637 26.9867C411.637 27.7791 412.009 28.4193 412.48 28.9066C412.947 29.3898 413.537 29.7495 414.053 30.0029V30.0039L452.32 48.9584C454.317 49.9478 457.147 50.32 460.038 50.1642C462.939 50.0078 465.97 49.3169 468.391 48.1181L501.334 31.8037C502.571 31.1903 503.583 30.4772 504.294 29.7167C504.999 28.9612 505.445 28.1159 505.445 27.2505C505.444 26.4579 505.073 25.8183 504.602 25.3315C504.135 24.8485 503.544 24.488 503.029 24.2332H503.028L464.762 5.27872C463.053 4.43292 460.736 4.04075 458.301 4.04075Z" fill="white" stroke="white"/>
<path d="M257.662 3.84398C282.063 3.844 301.878 22.9859 301.878 46.4831C301.878 69.9804 282.063 89.1222 257.662 89.1222C233.261 89.1222 213.446 69.9804 213.446 46.4831C213.446 22.9859 233.261 3.84398 257.662 3.84398ZM257.662 4.99695C233.984 4.99695 214.681 23.5936 214.681 46.4802C214.681 69.3665 233.984 87.9624 257.662 87.9624C281.34 87.9624 300.642 69.3665 300.642 46.4802C300.642 23.5937 281.341 4.99697 257.662 4.99695Z" fill="white" stroke="white"/>
<path d="M257.662 11.9856H257.67C277.41 11.9858 293.443 27.4787 293.443 46.4797C293.443 61.5938 283.303 74.4727 269.212 79.1125L269.192 79.1193L269.15 79.1369C269.146 79.1387 269.136 79.1423 269.124 79.1467C265.519 80.3275 261.66 80.9777 257.655 80.9777C253.651 80.9777 249.802 80.3277 246.198 79.1476C246.166 79.1352 246.136 79.1238 246.129 79.1212L246.106 79.1134L245.449 78.8887C231.718 74.0569 221.889 61.3576 221.889 46.4797C221.889 27.4786 237.922 11.9857 257.662 11.9856ZM262.553 59.5033C261.03 60.0438 259.388 60.3455 257.67 60.3455C255.953 60.3455 254.308 60.0377 252.768 59.5023L251.474 59.0528L252.174 60.2302C255.704 66.1774 255.623 72.7245 251.719 76.4909C251.105 77.0834 250.395 77.5872 249.63 78.0123L248.481 78.6503L249.764 78.9376C252.297 79.5041 254.943 79.8208 257.662 79.8208C260.385 79.8208 263.031 79.504 265.57 78.9376L266.854 78.6513L265.704 78.0123C265.035 77.6404 264.405 77.2062 263.849 76.7088L263.615 76.4909C259.687 72.704 259.62 66.1608 263.15 60.2312L263.86 59.0401L262.553 59.5033ZM287.568 53.3799C285.243 51.1325 281.843 50.3921 278.29 50.9342C274.733 51.4769 270.973 53.3077 267.837 56.2779L267.833 56.2809L267.677 56.4323C264.523 59.4733 262.563 63.1341 261.966 66.6077C261.387 69.9733 262.086 73.201 264.272 75.466L264.489 75.6819C265.577 76.7285 266.9 77.4463 268.406 77.854V78.1657L269.066 77.9429C278.705 74.6835 286.398 67.4078 289.987 58.195L290.041 58.0572L290.01 57.9126C289.647 56.133 288.829 54.5965 287.568 53.3799ZM237.001 50.9469C233.445 50.404 230.054 51.1448 227.742 53.3809H227.741C226.481 54.6037 225.664 56.1396 225.3 57.9126L225.269 58.0572L225.323 58.195C228.923 67.4074 236.616 74.68 246.247 77.9429L246.381 77.9878L246.52 77.9566C248.083 77.5956 249.463 76.9138 250.6 75.8939L250.825 75.6848C253.17 73.4189 253.934 70.102 253.346 66.636C252.758 63.1705 250.817 59.5155 247.688 56.4743L247.675 56.4626L247.662 56.4518C247.585 56.3862 247.547 56.3497 247.508 56.3121L247.504 56.3082L246.903 55.762C243.865 53.0991 240.338 51.4566 237.001 50.9469ZM257.662 33.7844C250.428 33.7845 244.521 39.4581 244.521 46.4797C244.521 53.5013 250.428 59.1749 257.662 59.175C264.896 59.175 270.804 53.4908 270.804 46.4797C270.804 39.4686 264.896 33.7844 257.662 33.7844ZM290.42 39.0392C290.293 39.2763 290.16 39.5025 290.014 39.7007L289.923 39.8238C289.042 40.9379 287.592 41.6058 286.061 41.6089C285.673 41.6088 285.28 41.5691 284.896 41.4819L270.229 38.1627L268.987 37.8813L269.705 38.9327C271.19 41.1065 272.053 43.7047 272.053 46.4904C272.053 48.202 271.708 49.8345 271.113 51.3563L270.619 52.6217L271.816 51.9787C277.901 48.7135 284.596 48.8384 288.458 52.5767L288.46 52.5787C289.162 53.2527 289.746 54.0208 290.201 54.8602L290.801 55.9662L291.124 54.7498C291.828 52.0985 292.2 49.3287 292.2 46.4797C292.2 43.9559 291.893 41.5137 291.348 39.1613L291.047 37.8608L290.42 39.0392ZM245.102 38.1656L230.435 41.479L230.431 41.4799C230.052 41.5692 229.661 41.6069 229.27 41.607C227.694 41.607 226.195 40.9001 225.325 39.7153L225.324 39.7143C225.176 39.5132 225.044 39.2878 224.894 39.0343L224.262 37.9624L223.977 39.173C223.421 41.5315 223.124 43.9747 223.124 46.4836C223.124 49.3326 223.496 52.0994 224.207 54.7546L224.53 55.9545L225.129 54.866C225.586 54.0366 226.171 53.2575 226.873 52.5806C230.804 48.7845 237.405 48.6333 243.499 51.9465L244.699 52.5992L244.204 51.326C243.618 49.8161 243.285 48.1969 243.285 46.4934C243.285 43.7075 244.149 41.1089 245.627 38.9346L246.339 37.8862L245.102 38.1656ZM257.666 13.1454C242.608 13.1454 229.778 22.4975 225.059 35.4992L225.013 35.6262L225.038 35.7581C225.248 36.9279 225.593 37.911 226.102 38.7236L226.331 39.0616C227.158 40.1954 228.692 40.6846 230.141 40.3553L230.14 40.3543L247.769 36.3737L247.893 36.3463L247.989 36.2623C250.542 34.0178 253.935 32.6314 257.655 32.6314C261.376 32.6314 264.757 34.008 267.307 36.2486L267.402 36.3326L267.527 36.36L285.177 40.3485L285.178 40.3494C286.43 40.6304 287.74 40.2957 288.607 39.4789L288.649 39.5199L288.988 39.0607C289.62 38.205 290.043 37.0761 290.283 35.7601L290.307 35.6272L290.261 35.5002C285.554 22.484 272.723 13.1454 257.666 13.1454Z" fill="white" stroke="white"/>
<mask id="path-32-inside-1_7_324" fill="white">
<path d="M572.312 242.307C570.986 240.856 568.302 240.136 565.302 241.806C561.74 243.792 552.785 247.952 545.821 250.579C546.034 249.385 545.8 248.144 545.121 247.043C544.093 245.373 542.288 244.416 540.283 244.481C531.822 244.478 526.344 242.286 521.513 240.352C517.134 238.596 513.351 237.087 508.879 238.085C504.439 239.073 499.75 242.492 493.771 249.118C492.147 248.432 490.181 248.727 488.855 250.009L482.915 255.74C482.357 256.278 482.357 257.16 482.915 257.702L501.272 275.412C501.542 275.672 501.905 275.82 502.289 275.82C502.672 275.82 503.035 275.676 503.305 275.412L509.245 269.681C510.081 268.875 510.539 267.802 510.539 266.656C510.539 266.296 510.497 265.943 510.408 265.603C513.988 264.396 518.015 264.321 522.85 264.598C524.062 264.667 525.335 264.766 526.685 264.873C529.888 265.12 533.201 265.377 536.404 265.308C543.148 265.164 547.2 263.34 552.618 260.572C558.132 257.757 569.891 251.021 572.095 248.229C573.677 246.223 573.766 243.901 572.315 242.314H572.312V242.307ZM507.212 267.712L502.289 272.462L485.961 256.711L490.885 251.961C491.493 251.374 492.484 251.374 493.092 251.961L507.212 265.583C507.504 265.864 507.663 266.241 507.663 266.649C507.663 267.05 507.504 267.428 507.212 267.712ZM569.802 246.542C568.266 248.49 558.405 254.468 551.264 258.113C546.212 260.692 542.44 262.397 536.333 262.53C533.276 262.596 530.038 262.342 526.906 262.102C525.544 261.995 524.254 261.896 523.01 261.824C518.573 261.567 513.493 261.45 508.801 263.206L496 250.856C507.752 237.855 512.303 239.669 520.408 242.914C525.242 244.848 531.257 247.259 540.304 247.259H540.357C541.317 247.225 542.163 247.677 542.647 248.466C543.134 249.258 543.134 250.198 542.65 250.983C542.277 251.59 541.445 252.095 540.247 252.451C535.288 253.905 526.131 252.314 523.44 250.963C522.736 250.613 521.869 250.874 521.502 251.553C521.14 252.232 521.41 253.068 522.114 253.422C524.62 254.68 530.148 255.809 535.167 255.809C537.311 255.809 539.355 255.603 541.04 255.116C541.043 255.116 541.047 255.116 541.054 255.112C547.894 253.271 561.999 246.854 566.738 244.214C568.32 243.332 569.621 243.559 570.158 244.145C570.677 244.714 570.545 245.613 569.802 246.549V246.542ZM511.485 220.636L515.705 221.435L517.297 225.142L514.901 228.589C514.521 229.141 514.595 229.871 515.079 230.338L520.898 235.952C521.382 236.418 522.146 236.49 522.711 236.123L526.284 233.812L530.127 235.348L530.955 239.419C531.086 240.071 531.676 240.537 532.366 240.537H540.599C541.285 240.537 541.875 240.071 542.01 239.419L542.839 235.348L546.681 233.812L550.254 236.123C550.826 236.49 551.584 236.418 552.067 235.952L557.886 230.338C558.37 229.871 558.444 229.134 558.064 228.589L555.668 225.142L557.261 221.435L561.48 220.636C562.156 220.509 562.639 219.94 562.639 219.274V213.496C562.639 212.731 561.996 212.11 561.203 212.11H549.02C548.605 212.11 548.203 212.285 547.933 212.59C547.663 212.895 547.538 213.3 547.599 213.698C547.677 214.23 547.723 214.768 547.723 215.303C547.723 221.281 542.679 226.147 536.483 226.147C530.286 226.147 525.242 221.281 525.242 215.303C525.242 214.768 525.281 214.23 525.367 213.698C525.427 213.3 525.306 212.892 525.032 212.59C524.762 212.285 524.364 212.11 523.945 212.11H511.762C510.969 212.11 510.326 212.731 510.326 213.496V219.274C510.326 219.936 510.81 220.506 511.485 220.636ZM513.202 214.885H522.381C522.377 215.025 522.373 215.166 522.373 215.303C522.373 222.81 528.705 228.921 536.49 228.921C544.275 228.921 550.606 222.814 550.606 215.303C550.606 215.162 550.602 215.022 550.599 214.885H559.777V218.136L555.967 218.859C555.497 218.949 555.103 219.261 554.914 219.689L552.732 224.765C552.55 225.194 552.6 225.681 552.863 226.065L555.028 229.179L550.876 233.184L547.648 231.096C547.25 230.839 546.742 230.787 546.301 230.969L541.04 233.075C540.596 233.249 540.272 233.63 540.18 234.09L539.43 237.766H533.56L532.81 234.09C532.718 233.637 532.395 233.256 531.95 233.075L526.689 230.969C526.511 230.897 526.326 230.863 526.138 230.863C525.857 230.863 525.58 230.945 525.338 231.099L522.11 233.188L517.958 229.182L520.123 226.068C520.39 225.684 520.443 225.194 520.255 224.768L518.072 219.693C517.891 219.264 517.496 218.952 517.02 218.863L513.209 218.139V214.888H513.205L513.202 214.885ZM543.077 217.656C543.87 217.656 544.513 217.035 544.513 216.27V205.968H553.197C553.791 207.614 555.419 208.804 557.332 208.804C559.745 208.804 561.704 206.908 561.704 204.586C561.704 202.264 559.738 200.368 557.332 200.368C555.419 200.368 553.795 201.554 553.197 203.204H543.073C542.281 203.204 541.637 203.824 541.637 204.589V216.274C541.637 217.038 542.281 217.659 543.073 217.659L543.077 217.656ZM557.328 203.135C558.156 203.135 558.832 203.787 558.832 204.586C558.832 205.385 558.156 206.036 557.328 206.036C556.5 206.036 555.824 205.385 555.824 204.586C555.824 203.787 556.5 203.135 557.328 203.135ZM535.046 196.376V220.694C535.046 221.459 535.69 222.08 536.483 222.08C537.275 222.08 537.919 221.459 537.919 220.694V196.376C539.625 195.803 540.859 194.232 540.859 192.387C540.859 190.059 538.893 188.169 536.486 188.169C534.08 188.169 532.114 190.065 532.114 192.387C532.114 194.232 533.344 195.799 535.054 196.376H535.046ZM536.486 190.936C537.314 190.936 537.99 191.588 537.99 192.387C537.99 193.186 537.314 193.838 536.486 193.838C535.658 193.838 534.982 193.186 534.982 192.387C534.982 191.588 535.658 190.936 536.486 190.936ZM515.637 208.808C517.549 208.808 519.174 207.621 519.771 205.971H528.456V216.274C528.456 217.038 529.099 217.659 529.892 217.659C530.685 217.659 531.328 217.038 531.328 216.274V204.589C531.328 203.824 530.685 203.204 529.892 203.204H519.768C519.174 201.558 517.546 200.368 515.633 200.368C513.22 200.368 511.261 202.264 511.261 204.586C511.261 206.908 513.227 208.804 515.633 208.804L515.637 208.808ZM515.637 203.135C516.465 203.135 517.141 203.787 517.141 204.586C517.141 205.385 516.465 206.036 515.637 206.036C514.809 206.036 514.133 205.385 514.133 204.586C514.133 203.787 514.809 203.135 515.637 203.135Z"/>
</mask>
<path d="M572.312 242.307C570.986 240.856 568.302 240.136 565.302 241.806C561.74 243.792 552.785 247.952 545.821 250.579C546.034 249.385 545.8 248.144 545.121 247.043C544.093 245.373 542.288 244.416 540.283 244.481C531.822 244.478 526.344 242.286 521.513 240.352C517.134 238.596 513.351 237.087 508.879 238.085C504.439 239.073 499.75 242.492 493.771 249.118C492.147 248.432 490.181 248.727 488.855 250.009L482.915 255.74C482.357 256.278 482.357 257.16 482.915 257.702L501.272 275.412C501.542 275.672 501.905 275.82 502.289 275.82C502.672 275.82 503.035 275.676 503.305 275.412L509.245 269.681C510.081 268.875 510.539 267.802 510.539 266.656C510.539 266.296 510.497 265.943 510.408 265.603C513.988 264.396 518.015 264.321 522.85 264.598C524.062 264.667 525.335 264.766 526.685 264.873C529.888 265.12 533.201 265.377 536.404 265.308C543.148 265.164 547.2 263.34 552.618 260.572C558.132 257.757 569.891 251.021 572.095 248.229C573.677 246.223 573.766 243.901 572.315 242.314H572.312V242.307ZM507.212 267.712L502.289 272.462L485.961 256.711L490.885 251.961C491.493 251.374 492.484 251.374 493.092 251.961L507.212 265.583C507.504 265.864 507.663 266.241 507.663 266.649C507.663 267.05 507.504 267.428 507.212 267.712ZM569.802 246.542C568.266 248.49 558.405 254.468 551.264 258.113C546.212 260.692 542.44 262.397 536.333 262.53C533.276 262.596 530.038 262.342 526.906 262.102C525.544 261.995 524.254 261.896 523.01 261.824C518.573 261.567 513.493 261.45 508.801 263.206L496 250.856C507.752 237.855 512.303 239.669 520.408 242.914C525.242 244.848 531.257 247.259 540.304 247.259H540.357C541.317 247.225 542.163 247.677 542.647 248.466C543.134 249.258 543.134 250.198 542.65 250.983C542.277 251.59 541.445 252.095 540.247 252.451C535.288 253.905 526.131 252.314 523.44 250.963C522.736 250.613 521.869 250.874 521.502 251.553C521.14 252.232 521.41 253.068 522.114 253.422C524.62 254.68 530.148 255.809 535.167 255.809C537.311 255.809 539.355 255.603 541.04 255.116C541.043 255.116 541.047 255.116 541.054 255.112C547.894 253.271 561.999 246.854 566.738 244.214C568.32 243.332 569.621 243.559 570.158 244.145C570.677 244.714 570.545 245.613 569.802 246.549V246.542ZM511.485 220.636L515.705 221.435L517.297 225.142L514.901 228.589C514.521 229.141 514.595 229.871 515.079 230.338L520.898 235.952C521.382 236.418 522.146 236.49 522.711 236.123L526.284 233.812L530.127 235.348L530.955 239.419C531.086 240.071 531.676 240.537 532.366 240.537H540.599C541.285 240.537 541.875 240.071 542.01 239.419L542.839 235.348L546.681 233.812L550.254 236.123C550.826 236.49 551.584 236.418 552.067 235.952L557.886 230.338C558.37 229.871 558.444 229.134 558.064 228.589L555.668 225.142L557.261 221.435L561.48 220.636C562.156 220.509 562.639 219.94 562.639 219.274V213.496C562.639 212.731 561.996 212.11 561.203 212.11H549.02C548.605 212.11 548.203 212.285 547.933 212.59C547.663 212.895 547.538 213.3 547.599 213.698C547.677 214.23 547.723 214.768 547.723 215.303C547.723 221.281 542.679 226.147 536.483 226.147C530.286 226.147 525.242 221.281 525.242 215.303C525.242 214.768 525.281 214.23 525.367 213.698C525.427 213.3 525.306 212.892 525.032 212.59C524.762 212.285 524.364 212.11 523.945 212.11H511.762C510.969 212.11 510.326 212.731 510.326 213.496V219.274C510.326 219.936 510.81 220.506 511.485 220.636ZM513.202 214.885H522.381C522.377 215.025 522.373 215.166 522.373 215.303C522.373 222.81 528.705 228.921 536.49 228.921C544.275 228.921 550.606 222.814 550.606 215.303C550.606 215.162 550.602 215.022 550.599 214.885H559.777V218.136L555.967 218.859C555.497 218.949 555.103 219.261 554.914 219.689L552.732 224.765C552.55 225.194 552.6 225.681 552.863 226.065L555.028 229.179L550.876 233.184L547.648 231.096C547.25 230.839 546.742 230.787 546.301 230.969L541.04 233.075C540.596 233.249 540.272 233.63 540.18 234.09L539.43 237.766H533.56L532.81 234.09C532.718 233.637 532.395 233.256 531.95 233.075L526.689 230.969C526.511 230.897 526.326 230.863 526.138 230.863C525.857 230.863 525.58 230.945 525.338 231.099L522.11 233.188L517.958 229.182L520.123 226.068C520.39 225.684 520.443 225.194 520.255 224.768L518.072 219.693C517.891 219.264 517.496 218.952 517.02 218.863L513.209 218.139V214.888H513.205L513.202 214.885ZM543.077 217.656C543.87 217.656 544.513 217.035 544.513 216.27V205.968H553.197C553.791 207.614 555.419 208.804 557.332 208.804C559.745 208.804 561.704 206.908 561.704 204.586C561.704 202.264 559.738 200.368 557.332 200.368C555.419 200.368 553.795 201.554 553.197 203.204H543.073C542.281 203.204 541.637 203.824 541.637 204.589V216.274C541.637 217.038 542.281 217.659 543.073 217.659L543.077 217.656ZM557.328 203.135C558.156 203.135 558.832 203.787 558.832 204.586C558.832 205.385 558.156 206.036 557.328 206.036C556.5 206.036 555.824 205.385 555.824 204.586C555.824 203.787 556.5 203.135 557.328 203.135ZM535.046 196.376V220.694C535.046 221.459 535.69 222.08 536.483 222.08C537.275 222.08 537.919 221.459 537.919 220.694V196.376C539.625 195.803 540.859 194.232 540.859 192.387C540.859 190.059 538.893 188.169 536.486 188.169C534.08 188.169 532.114 190.065 532.114 192.387C532.114 194.232 533.344 195.799 535.054 196.376H535.046ZM536.486 190.936C537.314 190.936 537.99 191.588 537.99 192.387C537.99 193.186 537.314 193.838 536.486 193.838C535.658 193.838 534.982 193.186 534.982 192.387C534.982 191.588 535.658 190.936 536.486 190.936ZM515.637 208.808C517.549 208.808 519.174 207.621 519.771 205.971H528.456V216.274C528.456 217.038 529.099 217.659 529.892 217.659C530.685 217.659 531.328 217.038 531.328 216.274V204.589C531.328 203.824 530.685 203.204 529.892 203.204H519.768C519.174 201.558 517.546 200.368 515.633 200.368C513.22 200.368 511.261 202.264 511.261 204.586C511.261 206.908 513.227 208.804 515.633 208.804L515.637 208.808ZM515.637 203.135C516.465 203.135 517.141 203.787 517.141 204.586C517.141 205.385 516.465 206.036 515.637 206.036C514.809 206.036 514.133 205.385 514.133 204.586C514.133 203.787 514.809 203.135 515.637 203.135Z" fill="white" stroke="white" stroke-width="2" mask="url(#path-32-inside-1_7_324)"/>
<path d="M166.694 226.744C173.926 226.744 179.79 221.087 179.79 214.11C179.79 207.132 173.926 201.475 166.694 201.475C159.461 201.475 153.598 207.132 153.598 214.11C153.598 221.087 159.461 226.744 166.694 226.744Z" fill="white" stroke="white" stroke-miterlimit="10"/>
<path fill-rule="evenodd" clip-rule="evenodd" d="M152.524 247.664C152.524 246.518 153.48 245.599 154.682 245.599C155.869 245.599 156.822 246.522 156.822 247.664V260.998H176.544V247.664C176.544 246.518 177.5 245.599 178.684 245.599C179.868 245.599 180.824 246.522 180.824 247.664V260.998H190.643V245.452C190.643 238.936 185.108 233.596 178.354 233.596H154.991C148.237 233.596 142.702 238.936 142.702 245.452V260.998H152.521L152.524 247.664Z" fill="white" stroke="white" stroke-miterlimit="10"/>
<path d="M323.502 254.81C323.822 254.81 324.046 255.052 324.046 255.318V262.423H331.39C331.712 262.424 331.938 262.668 331.938 262.932C331.938 263.197 331.713 263.44 331.393 263.44H323.502C323.181 263.44 322.956 263.197 322.956 262.932V255.318C322.957 255.052 323.182 254.81 323.502 254.81ZM381.456 254.81C381.778 254.81 382.005 255.054 382.005 255.318V262.932C382.005 263.197 381.78 263.44 381.46 263.44H373.568C373.247 263.44 373.022 263.197 373.022 262.932C373.022 262.666 373.248 262.424 373.568 262.423H380.911V255.318C380.911 255.052 381.136 254.81 381.456 254.81ZM352.203 197.93C352.374 197.834 352.586 197.834 352.758 197.93L352.76 197.931L381.737 214.071V214.072C381.91 214.17 382.005 214.336 382.005 214.511V246.792C382.005 246.963 381.91 247.133 381.739 247.23L352.76 263.372L352.758 263.373C352.586 263.469 352.374 263.469 352.203 263.373L352.202 263.372L323.222 247.23C323.051 247.134 322.956 246.967 322.956 246.792V214.511C322.956 214.339 323.052 214.169 323.224 214.072L323.223 214.071L352.202 197.931L352.203 197.93ZM366.808 223.261L353.282 230.792L353.025 230.936V247.147L353.769 246.732L367.295 239.201L367.552 239.058V222.848L366.808 223.261ZM352.237 213.984L338.714 221.516L337.929 221.953L338.714 222.389L352.237 229.921L352.48 230.056L352.723 229.921L366.25 222.39L367.035 221.953L366.25 221.516L352.723 213.984L352.48 213.849L352.237 213.984ZM352.237 199.094L325.351 214.07L324.567 214.507L325.351 214.945L336.624 221.221L336.867 221.356L337.111 221.221L352.205 212.815L352.207 212.814C352.378 212.718 352.59 212.718 352.762 212.814L352.764 212.815L367.857 221.221L368.101 221.356L368.344 221.221L379.616 214.945L380.401 214.507L379.616 214.07L352.731 199.094L352.618 199.03H352.35L352.237 199.094ZM323.505 197.86H331.397C331.717 197.86 331.942 198.103 331.942 198.369C331.942 198.634 331.717 198.876 331.397 198.876H324.054V205.982C324.054 206.248 323.829 206.489 323.509 206.489C323.186 206.489 322.961 206.246 322.96 205.982V198.369C322.96 198.103 323.185 197.861 323.505 197.86ZM373.568 197.86H381.46C381.78 197.861 382.005 198.103 382.005 198.369V205.982C382.005 206.248 381.78 206.489 381.46 206.489C381.14 206.489 380.915 206.248 380.914 205.982V198.876H373.568C373.248 198.876 373.023 198.634 373.022 198.369C373.022 198.103 373.247 197.861 373.568 197.86ZM351.939 230.932L351.682 230.789L338.156 223.258L337.413 222.844V239.058L337.669 239.201L351.195 246.729L351.939 247.143V230.932ZM336.323 222.235L336.066 222.092L324.793 215.815L324.05 215.402V246.5L324.307 246.644L352.237 262.203L352.48 262.338L352.723 262.203L380.657 246.644L380.914 246.5V215.402L380.171 215.815L368.898 222.092L368.642 222.235V239.344C368.642 239.497 368.569 239.645 368.438 239.743L368.379 239.781L352.764 248.478L352.76 248.48C352.594 248.575 352.379 248.576 352.207 248.479L352.205 248.478L336.589 239.781H336.588C336.417 239.685 336.323 239.515 336.323 239.344V222.235Z" fill="white" stroke="white"/>
</svg>
