<svg xmlns="http://www.w3.org/2000/svg" xmlns:xlink="http://www.w3.org/1999/xlink" width="151px" height="65px" viewBox="0 0 151 65" version="1.1"><title>Path 1</title><g id="Page-1" stroke="none" stroke-width="1" fill="none" fill-rule="evenodd"><g id="Page-1" fill="#FFD100"><path d="M150.38,0.09 L150.38,64.3943457 L101.727277,64.3943457 L101.727277,61.6028745 L59.4304451,61.6028745 L59.4304451,64.3943457 L0.38,64.3943457 L0.38,0.09 L59.1121719,0.09 L59.1121719,3.40674165 L101.409004,3.40674165 L101.409004,0.09 L150.38,0.09 Z M71.0677573,32.7405217 C71.0677573,22.9362717 75.4661491,16.7969494 82.3413286,16.7969494 C86.6451957,16.7969494 90.1306461,18.6324045 94.069576,22.6622696 L99.658501,15.97255 C95.1703704,10.6588236 89.668791,7.8182952 82.6129377,7.8182952 C70.8834938,7.8182952 61.5387058,17.072148 61.5387058,33.0169168 C61.5387058,48.0439581 70.6094917,57.9403398 82.3413286,57.9403398 C91.0447841,57.9403398 95.8093098,53.7262114 99.5651728,48.9604891 L93.5179822,43.0042338 C89.7621193,46.9455566 87.1058543,48.9604891 82.6129377,48.9604891 C75.1000153,48.9604891 71.0677573,42.1798344 71.0677573,32.7405217 Z M50.4601666,9.74229252 L48.4667713,9.74229252 C48.0467943,11.4222006 47.3109371,14.0437666 46.5762764,14.8837207 C43.4282435,10.8969302 37.7603484,7.95828755 32.7230171,7.95828755 C19.6068115,7.95828755 9.00807505,19.0822944 9.00807505,32.4090868 C9.00807505,45.946466 19.6068115,56.9651795 32.7230171,56.9651795 C37.7603484,56.9651795 43.4282435,53.9212434 46.5762764,50.0397463 C47.3109371,50.774407 48.0467943,53.2930727 48.4667713,55.182371 L50.4601666,55.182371 L50.4601666,36.9211477 L48.3602814,36.9211477 C46.3656897,46.6835197 40.805481,52.8730956 32.7230171,52.8730956 C20.972036,52.8730956 17.5093194,41.3291117 17.5093194,32.4090868 C17.5093194,23.5931588 20.972036,11.947471 32.7230171,11.947471 C40.805481,11.947471 46.3656897,18.137047 48.3602814,27.8982225 L50.4601666,27.8982225 L50.4601666,9.74229252 Z M141.372629,42.5902393 C141.372629,38.4957624 139.168647,33.7719183 133.188462,30.7291787 L126.157735,27.0570719 C119.757573,23.7008452 117.027124,21.7062535 117.027124,18.0341466 C117.027124,14.1502565 120.48984,11.947471 124.583121,11.947471 C132.140314,11.947471 134.972467,19.3969781 135.603031,25.6930439 L137.700523,25.6930439 L137.700523,7.95828755 L135.603031,7.95828755 C135.39364,9.63819565 134.55249,10.5810501 134.028416,11.2116139 C131.824434,9.63819565 128.465814,8.06358093 124.060243,8.06358093 C116.505443,8.06358093 110.940448,13.4143993 110.940448,20.0251488 C110.940448,25.9036307 114.613751,30.2051048 119.649886,32.8290638 L126.785906,36.5035637 C132.452605,39.33452 135.39364,42.1690658 135.39364,45.8423691 C135.39364,50.35443 131.824434,52.8730956 127.312373,52.8730956 C119.439299,52.8730956 113.774994,47.8357643 112.93504,38.916936 L110.836351,38.916936 L110.836351,56.9651795 L112.724453,56.9651795 C113.040333,55.182371 114.089677,53.81595 114.720241,53.0836824 C116.608343,54.3412204 121.015111,56.9651795 126.473615,56.9651795 C134.55249,56.9651795 141.372629,51.1931875 141.372629,42.5902393 Z" id="Path-1"></path></g></g></svg>
