<svg width="195" height="31" viewBox="0 0 195 31" fill="none" xmlns="http://www.w3.org/2000/svg">
<g clip-path="url(#clip0_17_6)">
<path d="M-4 0V28.0192C-4 29.6587 -2.57491 31 -0.83313 31H26.877C28.6188 31 30.0438 29.6587 30.0438 28.0192V0H-4Z" fill="#EA5F0B"/>
<path d="M7.32158 24.7403C7.32158 26.6033 7.16324 27.274 6.60904 27.7956C6.21318 28.1682 5.73815 28.3173 4.78809 28.3173H1.3837C0.354468 28.3173 -0.199734 28.1682 -0.595593 27.7211C-1.22897 27.125 -1.54565 26.2307 -1.54565 23.548C-1.54565 20.8653 -1.30814 20.0456 -0.595593 19.375C-0.199734 18.9278 0.354468 18.7788 1.3837 18.7788H4.78809C5.73815 18.7788 6.21318 18.9278 6.60904 19.3004C7.16324 19.8221 7.32158 20.4928 7.32158 22.2812H4.70891C4.70891 21.3125 4.62974 21.0889 4.55057 21.0144C4.4714 20.8653 4.31306 20.8653 3.9172 20.8653H2.33376C1.85873 20.8653 1.70039 20.8653 1.62122 21.0144C1.46287 21.1634 1.3837 21.4615 1.3837 23.548C1.3837 25.6346 1.46287 25.8581 1.62122 26.0072C1.70039 26.1562 1.85873 26.1562 2.33376 26.1562H3.9172C4.31306 26.1562 4.4714 26.1562 4.62974 26.0072C4.70891 25.9327 4.78809 25.6346 4.78809 24.5913H7.32158V24.7403Z" fill="black"/>
<path d="M14.6054 28.3918V27.1995C13.3386 28.2428 12.8636 28.4664 12.0719 28.4664H11.0426C10.0134 28.4664 9.38003 28.3173 8.98417 27.8702C8.3508 27.274 8.11328 26.4543 8.11328 23.6971C8.11328 20.9399 8.42997 20.1202 9.06334 19.524C9.53837 19.0769 10.0926 18.9279 11.1218 18.9279H12.2302C13.1011 18.9279 13.497 19.0769 14.6845 20.0457V15.649H17.4555V28.3918H14.6054ZM14.6054 25.8582V21.3125C14.0512 21.089 13.5761 20.9399 13.1011 20.9399H12.0719C11.5968 20.9399 11.3593 21.0144 11.1218 21.1635C10.8843 21.387 10.8051 21.7596 10.8051 23.6226C10.8051 25.4111 10.8843 25.7837 11.1218 26.0817C11.2802 26.2308 11.5177 26.3053 12.0719 26.3053H13.0219C13.5761 26.2308 13.972 26.1563 14.6054 25.8582Z" fill="black"/>
<path d="M18.2473 28.3919V18.8534H21.0183V20.1202C22.285 19.0024 22.76 18.8534 23.6309 18.8534H24.8977C25.7686 18.8534 26.3228 19.0024 26.7186 19.375C27.1145 19.7476 27.2728 20.2693 27.2728 21.6851V28.3919H24.5018V21.9832C24.5018 21.6106 24.4226 21.387 24.2643 21.238C24.106 21.089 23.9476 21.0145 23.3934 21.0145H22.6017C22.1267 21.0145 21.6516 21.089 21.0183 21.387V28.3173H18.2473V28.3919Z" fill="black"/>
<path d="M187.279 26.0817C188.466 26.0817 189.417 25.8582 190.05 25.3365C190.683 24.8149 191 24.2188 191 23.399C191 21.9832 190.05 21.0889 188.229 20.7909L186.487 20.4928C185.854 20.4183 185.458 20.1947 185.141 19.9712C184.904 19.7476 184.745 19.375 184.745 19.0024C184.745 18.4808 184.983 18.1082 185.379 17.8101C185.775 17.512 186.408 17.363 187.121 17.363C187.912 17.363 188.546 17.512 189.021 17.8846C189.496 18.2572 189.733 18.7043 189.733 19.226H190.842C190.842 18.7043 190.683 18.2572 190.367 17.8101C190.05 17.363 189.654 16.9904 189.021 16.7668C188.466 16.4688 187.833 16.3942 187.041 16.3942C185.933 16.3942 185.062 16.6178 184.429 17.1394C183.795 17.6611 183.479 18.2572 183.479 19.0769C183.479 20.4928 184.35 21.3125 186.171 21.6106L187.912 21.9087C189.179 22.1322 189.733 22.6538 189.733 23.4736C189.733 23.9207 189.496 24.3678 189.021 24.6659C188.546 24.9639 187.912 25.113 187.121 25.113C186.329 25.113 185.616 24.9639 185.141 24.5168C184.666 24.1442 184.429 23.6971 184.429 23.1755H183.32C183.32 23.6971 183.479 24.1442 183.795 24.5913C184.112 25.0385 184.587 25.4111 185.141 25.6346C185.854 26.0072 186.487 26.0817 187.279 26.0817ZM174.928 17.8846H175.324L177.541 25.9327H179.599L182.212 16.6178H181.024L178.728 24.8149H178.333L176.037 16.6178H174.136L171.84 24.8149H171.445L169.228 16.6178H168.04L170.732 25.9327H172.79L174.928 17.8846ZM158.777 20.7909C158.856 20.1202 159.015 19.5986 159.331 19.0769C159.648 18.5553 160.044 18.1827 160.598 17.8846C161.152 17.5865 161.706 17.4375 162.34 17.4375C162.973 17.4375 163.527 17.5865 164.002 17.8846C164.477 18.1827 164.873 18.5553 165.19 19.0769C165.507 19.5986 165.665 20.1947 165.665 20.7909H158.777ZM162.34 26.0817C163.369 26.0817 164.24 25.8582 164.952 25.3365C165.665 24.8149 166.219 24.1442 166.536 23.25H165.348C165.111 23.8462 164.715 24.2933 164.161 24.5913C163.607 24.8894 163.052 25.0385 162.34 25.0385C161.706 25.0385 161.152 24.8894 160.677 24.5913C160.123 24.2933 159.727 23.9207 159.41 23.399C159.094 22.8774 158.935 22.2813 158.856 21.6106H166.773C166.853 21.3125 166.853 21.0144 166.853 20.7163C166.853 19.8966 166.694 19.0769 166.298 18.4063C165.903 17.7356 165.348 17.2139 164.715 16.7668C164.002 16.3942 163.29 16.1707 162.419 16.1707C161.548 16.1707 160.756 16.3942 160.044 16.7668C159.331 17.1394 158.777 17.7356 158.381 18.4808C157.985 19.226 157.748 20.0457 157.748 21.0144C157.748 21.9832 157.985 22.8029 158.381 23.5481C158.777 24.2933 159.331 24.8894 160.044 25.262C160.756 25.6346 161.469 26.0817 162.34 26.0817ZM145.476 14.1587H145.872L152.839 25.9327H154.977V12.8918H153.789V24.5913H153.393L146.426 12.8918H144.289V25.9327H145.476V14.1587ZM129.167 25.9327V20.3438C129.167 19.8221 129.325 19.3005 129.563 18.8534C129.8 18.4062 130.196 18.0337 130.671 17.8101C131.146 17.5865 131.7 17.4375 132.255 17.4375C132.809 17.4375 133.284 17.5865 133.759 17.8101C134.234 18.0337 134.551 18.4062 134.788 18.8534C135.026 19.3005 135.184 19.8221 135.184 20.3438V25.9327H136.292V20.3438C136.292 19.5986 136.134 18.8534 135.817 18.2572C135.501 17.6611 135.026 17.2139 134.392 16.9159C133.759 16.6178 133.125 16.4688 132.413 16.4688C131.7 16.4688 131.067 16.6178 130.513 16.9159C129.959 17.2139 129.563 17.5865 129.246 17.9591H129.167L129.008 16.6178H128.058V25.9327H129.167ZM120.3 24.5913C119.666 24.5913 119.112 24.4423 118.558 24.1442C118.004 23.8462 117.608 23.399 117.37 22.8774C117.054 22.3558 116.895 21.6851 116.895 21.0144C116.895 20.3438 117.054 19.6731 117.37 19.1514C117.687 18.6298 118.083 18.1827 118.558 17.8846C119.112 17.5865 119.666 17.4375 120.3 17.4375C120.933 17.4375 121.487 17.5865 122.041 17.8846C122.516 18.1827 122.991 18.6298 123.229 19.1514C123.546 19.6731 123.704 20.3438 123.704 21.0144C123.704 21.6851 123.546 22.3558 123.229 22.8774C122.912 23.399 122.516 23.8462 122.041 24.1442C121.487 24.4423 120.933 24.5913 120.3 24.5913ZM120.458 29.8077C121.804 29.8077 122.833 29.4351 123.625 28.7644C124.417 28.0938 124.812 27.125 124.812 25.9327V16.6178H123.862L123.704 18.1827H123.625C123.308 17.6611 122.833 17.2139 122.2 16.9159C121.566 16.6178 120.933 16.4688 120.22 16.4688C119.35 16.4688 118.637 16.6923 117.924 17.0649C117.212 17.4375 116.737 17.9591 116.341 18.7043C115.945 19.375 115.787 20.1947 115.787 21.0889C115.787 21.9832 115.945 22.7284 116.341 23.4736C116.737 24.1442 117.291 24.7404 117.924 25.113C118.637 25.4856 119.35 25.7091 120.22 25.7091C120.933 25.7091 121.566 25.5601 122.121 25.262C122.675 24.9639 123.15 24.5913 123.546 23.9952H123.625V26.0817C123.625 26.976 123.308 27.6466 122.754 28.1683C122.2 28.6899 121.408 28.988 120.458 28.988C119.825 28.988 119.27 28.9135 118.795 28.6899C118.32 28.4663 117.924 28.2428 117.687 27.8702C117.449 27.4976 117.291 27.1995 117.212 26.8269H116.104C116.104 27.3486 116.341 27.8702 116.658 28.3918C116.974 28.9135 117.529 29.2861 118.162 29.5841C118.875 29.6587 119.587 29.8077 120.458 29.8077ZM113.332 13.1154H111.987V14.3822H113.332V13.1154ZM113.174 16.6178H112.066V25.9327H113.174V16.6178ZM105.811 26.0817C106.999 26.0817 107.949 25.8582 108.582 25.3365C109.216 24.8149 109.532 24.2188 109.532 23.399C109.532 21.9832 108.582 21.0889 106.761 20.7909L105.019 20.4928C104.386 20.4183 103.99 20.1947 103.674 19.9712C103.436 19.7476 103.278 19.375 103.278 19.0024C103.278 18.4808 103.515 18.1082 103.911 17.8101C104.307 17.512 104.94 17.363 105.653 17.363C106.445 17.363 107.078 17.512 107.553 17.8846C108.028 18.2572 108.266 18.7043 108.266 19.226H109.374C109.374 18.7043 109.216 18.2572 108.899 17.8101C108.582 17.363 108.186 16.9904 107.553 16.7668C106.999 16.4688 106.365 16.3942 105.574 16.3942C104.465 16.3942 103.594 16.6178 102.961 17.1394C102.328 17.6611 102.011 18.2572 102.011 19.0769C102.011 20.4928 102.882 21.3125 104.703 21.6106L106.445 21.9087C107.711 22.1322 108.266 22.6538 108.266 23.4736C108.266 23.9207 108.028 24.3678 107.553 24.6659C107.078 24.9639 106.445 25.113 105.653 25.113C104.861 25.113 104.149 24.9639 103.674 24.5168C103.199 24.1442 102.961 23.6971 102.961 23.1755H101.853C101.853 23.6971 102.011 24.1442 102.328 24.5913C102.644 25.0385 103.119 25.4111 103.674 25.6346C104.386 26.0072 105.019 26.0817 105.811 26.0817ZM92.2728 20.7909C92.352 20.1202 92.5103 19.5986 92.827 19.0769C93.1437 18.5553 93.5396 18.1827 94.0938 17.8846C94.648 17.5865 95.2022 17.4375 95.8355 17.4375C96.4689 17.4375 97.0231 17.5865 97.4981 17.8846C97.9732 18.1827 98.369 18.5553 98.6857 19.0769C99.0024 19.5986 99.1608 20.1947 99.1608 20.7909H92.2728ZM95.7564 26.0817C96.7856 26.0817 97.6565 25.8582 98.369 25.3365C99.0816 24.8149 99.6358 24.1442 99.9525 23.25H98.7649C98.5274 23.8462 98.1315 24.2933 97.5773 24.5913C97.0231 24.8894 96.4689 25.0385 95.7564 25.0385C95.123 25.0385 94.5688 24.8894 94.0938 24.5913C93.5396 24.2933 93.1437 23.9207 92.827 23.399C92.5103 22.8774 92.352 22.2813 92.2728 21.6106H100.19C100.269 21.3125 100.269 21.0144 100.269 20.7163C100.269 19.8966 100.111 19.0769 99.715 18.4063C99.3191 17.7356 98.7649 17.2139 98.1315 16.7668C97.419 16.3942 96.7064 16.1707 95.8355 16.1707C94.9646 16.1707 94.1729 16.3942 93.4604 16.7668C92.7478 17.1394 92.1936 17.7356 91.7978 18.4808C91.4019 19.226 91.1644 20.0457 91.1644 21.0144C91.1644 21.9832 91.4019 22.8029 91.7978 23.5481C92.1936 24.2933 92.7478 24.8894 93.4604 25.262C94.0938 25.9327 94.8855 26.0817 95.7564 26.0817ZM79.1303 24.8894V13.9351H82.2972C83.3264 13.9351 84.1973 14.1587 85.0682 14.6058C85.8599 15.0529 86.5724 15.7236 87.0475 16.5433C87.5225 17.363 87.76 18.3317 87.76 19.375C87.76 20.4928 87.5225 21.387 87.0475 22.2067C86.5724 23.0264 85.9391 23.6971 85.0682 24.1442C84.1973 24.5913 83.3264 24.8149 82.2972 24.8149H79.1303V24.8894ZM82.3763 25.9327C83.6431 25.9327 84.7515 25.6346 85.7807 25.113C86.81 24.5913 87.6017 23.7716 88.1559 22.8029C88.7101 21.8341 89.0268 20.6418 89.0268 19.375C89.0268 18.1082 88.7101 16.9904 88.1559 16.0216C87.6017 15.0529 86.81 14.2332 85.7807 13.7115C84.7515 13.1899 83.6431 12.8918 82.3763 12.8918H78.0219V25.9327H82.3763ZM67.8087 25.9327V19.6731C67.8087 19.0024 67.9671 18.5553 68.3629 18.1827C68.7588 17.8101 69.2338 17.6611 69.9464 17.6611H71.6882V16.6923H69.8672C69.3922 16.6923 68.9963 16.7668 68.7588 16.9159C68.5213 17.0649 68.2046 17.2885 67.9671 17.5865H67.8879L67.7296 16.6923H66.7795V26.0072H67.8087V25.9327ZM58.9415 25.113C58.229 25.113 57.7539 24.9639 57.3581 24.5913C56.9622 24.2933 56.8039 23.8462 56.8039 23.25C56.8039 22.6538 57.0414 22.2067 57.4372 21.8341C57.9123 21.4615 58.5456 21.3125 59.4957 21.3125H62.4251V21.7596C62.4251 22.7284 62.1084 23.5481 61.5542 24.1442C60.8416 24.8149 60.0499 25.113 58.9415 25.113ZM58.9415 26.0817C59.7332 26.0817 60.3666 25.9327 61 25.6346C61.5542 25.3365 62.0292 24.9639 62.2667 24.4423H62.3459L62.5042 25.8582H63.4543V19.8221C63.4543 18.7043 63.1376 17.8846 62.4251 17.2139C61.7917 16.6178 60.8416 16.3197 59.7332 16.3197C58.9415 16.3197 58.3081 16.4688 57.7539 16.6923C57.1997 16.9904 56.7247 17.2885 56.408 17.7356C56.0913 18.1827 55.933 18.6298 55.8538 19.1514H56.9622C57.0414 18.6298 57.2789 18.1827 57.7539 17.8101C58.229 17.4375 58.8623 17.2885 59.6541 17.2885C60.4458 17.2885 61.0791 17.512 61.5542 17.9591C62.0292 18.4063 62.2667 19.0024 62.2667 19.8221V20.2692H59.3374C58.0706 20.2692 57.1206 20.4928 56.4872 21.0144C55.8538 21.5361 55.5371 22.2067 55.5371 23.101C55.5371 23.9207 55.8538 24.5913 56.4872 25.1875C57.1997 25.8582 57.9914 26.0817 58.9415 26.0817ZM47.7783 26.0817C49.2826 26.0817 50.5493 25.7091 51.6577 24.8894C52.7661 24.0697 53.4787 23.0264 53.8745 21.6106H52.6078C52.2911 22.7284 51.6577 23.5481 50.7868 24.1442C49.9159 24.7404 48.9659 25.0385 47.7783 25.0385C46.8282 25.0385 45.8782 24.8149 45.0864 24.2933C44.2947 23.8462 43.6614 23.1755 43.1863 22.2813C42.7113 21.4615 42.4738 20.4183 42.4738 19.3005C42.4738 18.1827 42.7113 17.2139 43.1863 16.3942C43.6614 15.5 44.2947 14.9038 45.0864 14.3822C45.8782 13.9351 46.8282 13.637 47.7783 13.637C48.8867 13.637 49.9159 13.9351 50.7868 14.5313C51.6577 15.1274 52.2119 15.9471 52.6078 16.9904H53.7953C53.3995 15.649 52.6869 14.6058 51.5785 13.7861C50.4701 12.9663 49.2034 12.5938 47.7783 12.5938C46.5907 12.5938 45.4823 12.8918 44.4531 13.4135C43.4238 14.0096 42.6321 14.7548 42.0779 15.7981C41.5237 16.8413 41.207 17.9591 41.207 19.3005C41.207 20.6418 41.5237 21.7596 42.0779 22.8029C42.6321 23.8462 43.4238 24.5913 44.4531 25.1875C45.4823 25.8582 46.5907 26.0817 47.7783 26.0817Z" fill="black"/>
</g>
<defs>
<clipPath id="clip0_17_6">
<rect width="195" height="31" fill="white"/>
</clipPath>
</defs>
</svg>
