<?xml version="1.0" encoding="UTF-8"?><svg id="Layer_2" xmlns="http://www.w3.org/2000/svg" viewBox="0 0 218.029 16.969"><defs><style>.cls-1,.cls-2{fill:#010101;}.cls-2{fill-rule:evenodd;}</style></defs><g id="Layer_1-2"><path class="cls-1" d="M8.499,2.416l.667-.179.542,1.984-.983.281-1.433.384c-.963.258-1.534,1.248-1.276,2.211l.563,2.101.008.031.064.274.051.241c.007.037.014.073.02.108l.031.19.011.083c.01.085.004.202-.018.35l-.033.192c-.007.035-.014.07-.022.107l-.056.237c-.011.042-.022.085-.033.13l-.078.282-.093.312-.108.342c-.054.166-.125.325-.213.475l-1.608,2.748c-.252.43-.107.983.323,1.235.43.252.983.107,1.235-.323l1.845-3.15.128-.234c.204-.384.367-.739.49-1.063v.102c0,.197-.024.393-.072.585l-.85,3.394c-.121.484.173.974.656,1.095.484.121.974-.173,1.095-.656l.931-3.716c.041-.164.075-.329.102-.495.162-.994.143-1.929-.057-2.806l-.014-.057c-.007-.047-.016-.095-.029-.143l-.144-.536-.059-.23-.287-1.067v.002s-.29-1.08-.29-1.08l1.341-.384c.597-.171.945-.79.781-1.389l-.758-2.773c-.132-.481-.628-.764-1.109-.633-.324.089-.558.343-.636.647l-.826.221c.09.178.159.368.204.568Z"/><path class="cls-1" d="M6.149,4.742c.997,0,1.805-.808,1.805-1.805s-.808-1.805-1.805-1.805-1.805.808-1.805,1.805c0,.198.032.39.091.568.238.719.915,1.237,1.714,1.237Z"/><path class="cls-1" d="M1.25,4.358l2.603-.697-.04-.144c-.036-.145-.059-.296-.067-.45L.223,4.011c-.16.043-.256.208-.213.368l.078.291c.095.356.384.628.745.702l.07.014c.063.013.129.011.191-.006.222-.059.353-.287.294-.509l-.138-.513Z"/><path class="cls-2" d="M76.032.985c.492-.852,1.471-1.235,2.205-.811.734.424.892,1.463.4,2.315-.432.748-1.24,1.134-1.927.931h0s-1.068,1.851-1.068,1.851l1.365,1.358,9.97-2.67c.482-.129.976.157,1.105.638.129.481-.157.976-.638,1.105l-4.101,1.099.924,3.449.777,2.849c.144.528-.086,1.086-.56,1.359l-2.953,1.703c-.432.249-.984.101-1.233-.331-.249-.432-.101-.984.331-1.233l2.551-1.471-.517-1.898-1.136,1.968c-.215.372-.612.602-1.042.602h-3.487c-.498,0-.903-.404-.903-.903s.404-.903.903-.903h3.14s.587-1.017.587-1.017l-.868-3.241-2.381.638c-.621.166-1.285-.01-1.741-.464l-1.376-1.37c-.353-.352-.355-.923-.003-1.276.204-.205.482-.291.748-.259l1.087-1.883h0c-.52-.494-.589-1.387-.157-2.135ZM78.116,2.188c.339-.587.237-1.253-.18-1.493-.417-.241-1.045.004-1.383.591-.339.587-.237,1.253.18,1.493.417.241,1.045-.004,1.383-.591Z"/><path class="cls-1" d="M82.445,3.367c0,.997-.808,1.805-1.805,1.805s-1.805-.808-1.805-1.805.808-1.805,1.805-1.805,1.805.808,1.805,1.805Z"/><path class="cls-1" d="M149.099,1.602h-7.265c-2.003,0-3.633,1.63-3.633,3.633v5.812c0,2.003,1.63,3.633,3.633,3.633h7.266c2.003,0,3.633-1.63,3.633-3.633v-5.812c0-2.003-1.629-3.633-3.633-3.633h0ZM144.527,8.655l-1.453,1.453c-.142.142-.328.213-.514.213s-.372-.071-.514-.213c-.284-.284-.284-.744,0-1.027l.939-.939-.939-.939c-.284-.284-.284-.744,0-1.027.284-.284.744-.284,1.027,0l1.453,1.453c.284.284.284.743,0,1.027ZM148.373,10.321h-2.18c-.401,0-.727-.326-.727-.727s.326-.727.727-.727h2.18c.401,0,.727.326.727.727,0,.401-.326.727-.727.727Z"/><path class="cls-2" d="M212.07,1.979c-1.58.001-3.096.63-4.214,1.746-1.118,1.117-1.747,2.632-1.749,4.213v3.977h0c0,1.562-.736,3.034-1.986,3.972h9.936c1.054,0,2.064-.419,2.809-1.164.745-.745,1.164-1.755,1.164-2.809v-3.976c0-1.581-.628-3.096-1.746-4.214-1.117-1.118-2.633-1.746-4.214-1.746h0ZM214.056,6.451h0c.2.002.38.124.455.309.075.185.032.398-.11.538-.142.141-.355.182-.54.105-.185-.076-.305-.257-.305-.457,0-.132.053-.259.147-.352.094-.093.221-.144.353-.143h0ZM211.57,6.451h0c.2,0,.381.121.458.306.076.185.034.399-.108.54-.142.142-.355.185-.54.108-.185-.076-.306-.257-.306-.458.002-.273.223-.493.496-.495h0ZM214.552,9.368c-.529.303-1.13.453-1.739.435-.601.015-1.195-.135-1.716-.435-.117-.061-.204-.166-.243-.292-.039-.125-.027-.262.034-.378.132-.24.432-.329.674-.2.377.229.811.345,1.252.334.444.01.881-.106,1.261-.334.24-.132.542-.045.674.196s.045.542-.196.674h0Z"/></g></svg>