<?xml version="1.0" encoding="UTF-8"?><svg id="Layer_2" xmlns="http://www.w3.org/2000/svg" viewBox="0 0 25.158 25.158"><defs><style>.cls-1{fill:#010101;}</style></defs><g id="Layer_4"><path class="cls-1" d="M12.579,0C5.642,0,0,5.642,0,12.579s5.642,12.579,12.579,12.579,12.579-5.642,12.579-12.579S19.516,0,12.579,0ZM12.579,24.528C5.991,24.528.629,19.166.629,12.578S5.991.628,12.579.628s11.95,5.362,11.95,11.95-5.362,11.95-11.95,11.95Z"/><path class="cls-1" d="M12.579,2.374C6.953,2.374,2.375,6.952,2.375,12.578c0,4.475,2.897,8.279,6.909,9.654.01.004.016.006.025.01,1.028.349,2.126.541,3.268.541s2.242-.192,3.27-.541c.01-.004.016-.006.025-.01,4.017-1.371,6.913-5.179,6.913-9.654,0-5.626-4.578-10.204-10.204-10.204h-.002ZM3.004,12.579c0-.72.082-1.421.236-2.098.041.072.082.145.129.211.274.387.74.611,1.223.611.119,0,.24-.012.359-.041l4.126-.966c-.431.657-.683,1.443-.683,2.286,0,.516.097,1.006.268,1.462-1.746-.984-3.676-.959-4.842.208-.208.208-.381.447-.516.701-.197-.762-.3-1.556-.3-2.374h0ZM12.579,9.022c1.962,0,3.556,1.597,3.556,3.556s-1.594,3.556-3.556,3.556-3.556-1.594-3.556-3.556,1.594-3.556,3.556-3.556ZM3.613,15.941c.097-.49.314-.911.647-1.246,1.22-1.223,3.62-.849,5.365.855.012.012.025.025.05.047,1.723,1.736,2.119,4.154.883,5.392-.311.311-.698.518-1.145.625-2.671-.938-4.803-3.029-5.8-5.674h0ZM12.579,22.154c-.754,0-1.488-.091-2.191-.254.224-.129.434-.283.617-.466,1.163-1.163,1.163-3.154.151-4.921.447.161.925.254,1.425.254s.978-.091,1.421-.254c-1.012,1.762-1.016,3.752.154,4.921.182.182.393.337.617.466-.705.163-1.438.254-2.193.254h0ZM15.742,21.613c-.447-.107-.833-.314-1.145-.625-1.242-1.242-.84-3.667.897-5.403l.044-.044c1.726-1.695,4.129-2.076,5.356-.846.333.333.55.754.647,1.246-.994,2.645-3.126,4.736-5.799,5.673h0ZM21.793,10.688c.047-.066.088-.139.125-.211.151.676.236,1.377.236,2.101,0,.818-.103,1.613-.298,2.374-.135-.258-.308-.494-.516-.701-1.147-1.151-3.104-1.167-4.846-.198.173-.459.274-.953.274-1.472,0-.843-.252-1.629-.685-2.286l4.126.968c.119.028.24.041.359.041.486-.001.952-.228,1.226-.615h-.001ZM21.277,10.327c-.195.274-.566.405-.927.321l-4.965-1.163c-.742-.676-1.726-1.091-2.808-1.091s-2.069.418-2.812,1.095l-4.959,1.161c-.361.085-.732-.044-.927-.321-.163-.232-.274-.528-.339-.903,1.307-3.733,4.863-6.422,9.04-6.422s7.733,2.685,9.037,6.422c-.065.37-.178.676-.339.902h-.001Z"/></g></svg>