<?xml version="1.0" encoding="UTF-8"?><svg id="Layer_2" xmlns="http://www.w3.org/2000/svg" viewBox="0 0 29.5 22.424"><defs><style>.cls-1{fill:none;}.cls-2{fill:#010101;}</style></defs><g id="Layer_3"><circle class="cls-1" cx="6.778" cy="13.444" r=".987"/><circle class="cls-1" cx="22.722" cy="13.444" r=".987"/><path class="cls-1" d="M6.65,3.82l-1.127,3.992h18.454l-1.121-3.987c-.374-1.37-1.617-2.322-3.037-2.325h-10.138c-1.416.006-2.656.954-3.031,2.32Z"/><path class="cls-1" d="M24.693,9.312H4.807c-1.825.002-3.304,1.48-3.307,3.305v7.584c0,.399.323.722.722.723h2.31c.406,0,.734-.328.735-.734v-.611c0-1.105.895-2,2-2h14.966c1.105,0,2,.895,2,2v.622c0,.399.324.723.723.723h2.321c.399,0,.723-.324.723-.723v-7.584c-.003-1.825-1.482-3.303-3.307-3.305ZM6.778,15.932c-1.374,0-2.487-1.113-2.487-2.487s1.113-2.487,2.487-2.487,2.486,1.113,2.487,2.486c-.001,1.373-1.114,2.486-2.487,2.488ZM17.028,14.194h-4.556c-.414,0-.75-.336-.75-.75s.336-.75.75-.75h4.556c.414,0,.75.336.75.75s-.336.75-.75.75ZM22.722,15.932c-1.374,0-2.487-1.113-2.487-2.487s1.113-2.487,2.487-2.487,2.486,1.113,2.487,2.486c0,1.373-1.114,2.486-2.487,2.488Z"/><path class="cls-2" d="M6.778,10.958c-1.374,0-2.487,1.113-2.487,2.487s1.113,2.487,2.487,2.487,2.487-1.113,2.487-2.487h0c-.002-1.374-1.114-2.486-2.487-2.487ZM6.778,14.432c-.546,0-.988-.441-.989-.987,0-.546.441-.988.987-.989.546,0,.988.441.989.987h0c0,.545-.442.987-.987.988h0Z"/><path class="cls-2" d="M22.722,10.958c-1.374,0-2.487,1.113-2.487,2.487s1.113,2.487,2.487,2.487,2.487-1.113,2.487-2.487h0c-.002-1.374-1.114-2.486-2.487-2.487ZM22.722,14.432c-.546,0-.988-.441-.989-.987,0-.546.441-.988.987-.989.546,0,.988.441.989.987h0c0,.546-.442.988-.987.989Z"/><path class="cls-2" d="M17.028,12.694h-4.556c-.414,0-.75.336-.75.75s.336.75.75.75h4.556c.414,0,.75-.336.75-.75s-.336-.75-.75-.75Z"/><path class="cls-2" d="M26.84,8.339l.959-.566c.361-.203.49-.66.287-1.021s-.66-.49-1.021-.287c-.01.006-.02.011-.029.017l-1.607.949-1.127-4.007C23.747,1.405,21.913.004,19.819,0h-10.138c-.258,0-.516.022-.77.065-1.783.303-3.23,1.61-3.712,3.354l-1.134,4.034-1.643-.971c-.356-.211-.817-.093-1.028.264-.211.357-.093.817.264,1.028h0l.98.578C1.027,9.164.007,10.812,0,12.617v7.584c.001,1.227.995,2.221,2.222,2.223h2.31c1.234,0,2.233-1,2.235-2.234v-.611c0-.276.224-.5.5-.5h14.966c.276,0,.5.224.5.5v.622c0,1.227.996,2.222,2.223,2.223h2.321c1.227,0,2.222-.996,2.223-2.223v-7.584c-.007-1.814-1.036-3.469-2.66-4.278ZM9.681,1.5h10.138c1.42.003,2.663.955,3.037,2.325l1.121,3.987H5.523l1.127-3.992c.375-1.366,1.615-2.314,3.031-2.32ZM28,20.2c0,.399-.324.723-.723.723h-2.321c-.399,0-.723-.324-.723-.723v-.622c0-1.105-.895-2-2-2H7.267c-1.105,0-2,.895-2,2v.611c0,.406-.329.734-.735.734h-2.31c-.399,0-.722-.324-.722-.723v-7.583c.003-1.825,1.482-3.303,3.307-3.305h19.886c1.825.002,3.305,1.482,3.307,3.307v7.581Z"/></g></svg>