<?xml version="1.0" encoding="UTF-8"?><svg id="Layer_2" xmlns="http://www.w3.org/2000/svg" viewBox="0 0 25.556 25.558"><defs><style>.cls-1{fill:#010101;}</style></defs><g id="Layer_9"><path class="cls-1" d="M25.266,15.786c-.373-.423-1.128-.633-1.972-.146-1.002.579-3.521,1.792-5.48,2.558.06-.348-.006-.71-.197-1.031-.289-.487-.797-.766-1.361-.747-2.38,0-3.921-.64-5.28-1.204-1.232-.512-2.296-.952-3.554-.661-1.249.288-2.568,1.285-4.25,3.217-.457-.2-1.01-.114-1.383.26l-1.671,1.671c-.157.157-.157.414,0,.572l5.164,5.164c.076.076.178.119.286.119s.21-.042.286-.119l1.671-1.671c.235-.235.364-.548.364-.882,0-.105-.012-.208-.037-.307,1.007-.352,2.14-.374,3.5-.293.341.02.699.049,1.079.08.901.072,1.833.147,2.734.127,1.897-.042,3.037-.574,4.561-1.381,1.551-.821,4.859-2.785,5.479-3.599.445-.585.47-1.262.062-1.725h-.001v-.002ZM6.953,23.194l-1.385,1.385L.975,19.986l1.385-1.385c.171-.171.45-.171.621,0l3.972,3.972c.082.082.127.192.127.311,0,.117-.045.228-.127.311h0ZM24.56,17.021c-.432.568-3.206,2.311-5.215,3.374-1.421.752-2.482,1.249-4.2,1.288-.86.019-1.771-.055-2.652-.125-.383-.031-.746-.06-1.096-.081-1.248-.075-2.677-.109-3.997.403l-3.601-3.601c3.306-3.791,4.586-3.262,6.866-2.316,1.36.564,3.052,1.267,5.597,1.267h.015c.27-.01.508.122.644.352.137.231.137.505.001.734-.105.177-.339.324-.676.428-1.395.424-3.971-.04-4.728-.434-.198-.102-.442-.026-.545.172-.102.198-.026.442.172.545.705.367,2.26.696,3.672.696.603,0,1.178-.06,1.652-.202.001,0,.002,0,.004,0,1.924-.537,5.892-2.408,7.225-3.178.445-.257.811-.191.962-.02.146.166.109.428-.1.701h0v-.002ZM8.155,9.467l1.187.233.448,1.081-.674,1.005c-.107.161-.086.374.05.51l1.637,1.637c.136.136.351.157.51.05l1.005-.674,1.081.448.233,1.187c.037.19.203.326.397.326h2.316c.193,0,.359-.136.397-.326l.233-1.187,1.081-.448,1.005.674c.161.107.374.086.51-.05l1.637-1.637c.136-.136.157-.351.05-.51l-.674-1.005.448-1.081,1.187-.233c.19-.037.326-.203.326-.397v-1.685c0-.223-.181-.404-.404-.404h-3.427c-.117,0-.23.051-.306.14s-.111.207-.094.323c.022.155.035.312.035.468,0,1.743-1.419,3.162-3.162,3.162s-3.162-1.419-3.162-3.162c0-.156.011-.313.035-.468.017-.116-.017-.235-.094-.323-.076-.089-.188-.14-.306-.14h-3.427c-.223,0-.404.181-.404.404v1.685c0,.193.136.359.326.397h0ZM8.638,7.79h2.582c-.001.041-.002.082-.002.122,0,2.189,1.781,3.971,3.971,3.971s3.971-1.781,3.971-3.971c0-.041-.001-.082-.002-.122h2.582v.948l-1.072.211c-.132.026-.243.117-.296.242l-.614,1.48c-.051.125-.037.267.037.379l.609.908-1.168,1.168-.908-.609c-.112-.075-.255-.09-.379-.037l-1.48.614c-.125.051-.216.162-.242.296l-.211,1.072h-1.651l-.211-1.072c-.026-.132-.117-.243-.242-.296l-1.48-.614c-.05-.021-.102-.031-.155-.031-.079,0-.157.024-.225.069l-.908.609-1.168-1.168.609-.908c.075-.112.09-.255.037-.379l-.614-1.48c-.051-.125-.162-.216-.296-.242l-1.072-.211v-.948h-.002ZM17.042,8.598c.223,0,.404-.181.404-.404v-3.004h2.443c.167.48.625.827,1.163.827.679,0,1.23-.553,1.23-1.23s-.553-1.23-1.23-1.23c-.538,0-.995.346-1.163.827h-2.848c-.223,0-.404.181-.404.404v3.407c0,.223.181.404.404.404h.001ZM21.051,4.364c.233,0,.423.19.423.423s-.19.423-.423.423-.423-.19-.423-.423.19-.423.423-.423ZM14.783,2.393v7.091c0,.223.181.404.404.404s.404-.181.404-.404V2.393c.48-.167.827-.625.827-1.163,0-.679-.553-1.23-1.23-1.23s-1.23.553-1.23,1.23c0,.538.346.995.827,1.163h-.002ZM15.188.807c.233,0,.423.19.423.423s-.19.423-.423.423-.423-.19-.423-.423.19-.423.423-.423ZM9.323,6.018c.538,0,.995-.346,1.163-.827h2.443v3.004c0,.223.181.404.404.404s.404-.181.404-.404v-3.407c0-.223-.181-.404-.404-.404h-2.848c-.167-.48-.625-.827-1.163-.827-.679,0-1.23.553-1.23,1.23s.553,1.23,1.23,1.23h.001ZM9.323,4.364c.233,0,.423.19.423.423s-.19.423-.423.423-.423-.19-.423-.423.19-.423.423-.423Z"/></g></svg>