<?xml version="1.0" encoding="UTF-8"?><svg id="Layer_2" xmlns="http://www.w3.org/2000/svg" viewBox="0 0 27.054 25.401"><defs><style>.cls-1{fill:#010101;}</style></defs><g id="Layer_5"><path class="cls-1" d="M27.053,12.739c0-.47-.305-.885-.859-1.17l-3.022-1.551,2.545-1.306c.849-.435,1.335-1.025,1.335-1.617,0-.47-.305-.885-.859-1.17L15.429.398c-1.199-.616-3.364-.505-4.827.245L1.335,5.4c-.849.435-1.335,1.025-1.335,1.617,0,.47.305.885.859,1.17l3.022,1.551-2.545,1.306C.487,11.479.001,12.069.001,12.661c0,.47.305.885.859,1.17l3.022,1.551-2.545,1.306C.488,17.123.002,17.713.002,18.305c0,.47.305.885.859,1.17l10.763,5.527c.522.268,1.227.399,1.978.399.973,0,2.023-.219,2.848-.643l9.269-4.759c.849-.435,1.335-1.025,1.335-1.617,0-.47-.305-.885-.859-1.17l-3.022-1.551,2.545-1.306c.85-.435,1.336-1.025,1.336-1.617h-.001ZM.472,7.016c0-.403.403-.85,1.078-1.197L10.817,1.062c.756-.389,1.739-.591,2.641-.591.673,0,1.301.113,1.755.346l10.765,5.527c.275.141.601.385.601.749,0,.403-.403.85-1.078,1.197l-9.267,4.757c-1.321.678-3.333.791-4.396.245L1.073,7.765c-.275-.14-.601-.385-.601-.749h0ZM25.979,17.635c.275.141.601.385.601.749,0,.403-.403.85-1.078,1.197l-9.267,4.757c-1.321.678-3.333.791-4.396.245L1.074,19.056c-.275-.141-.601-.385-.601-.749,0-.403.403-.85,1.078-1.197l2.846-1.462,7.227,3.71c.522.268,1.227.399,1.978.399.973,0,2.023-.219,2.848-.643l6.205-3.185,3.324,1.705h0ZM16.235,18.694c-1.321.678-3.333.791-4.396.245L1.074,13.412c-.275-.141-.601-.385-.601-.749,0-.403.403-.85,1.078-1.197l2.847-1.462,7.226,3.71c.522.268,1.227.399,1.978.399.973,0,2.023-.219,2.848-.643l6.205-3.185,3.323,1.705c.275.141.601.385.601.749,0,.403-.403.85-1.078,1.197l-9.266,4.757h0Z"/></g></svg>