<?xml version="1.0" encoding="UTF-8"?><svg id="Layer_2" xmlns="http://www.w3.org/2000/svg" viewBox="0 0 16.892 19.417"><defs><style>.cls-1{fill:#010101;fill-rule:evenodd;}</style></defs><g id="Layer_8"><path class="cls-1" d="M2.808,19.121c0,.163-.131.294-.294.294H.294c-.163,0-.294-.131-.294-.294v-2.22c0-.163.131-.294.294-.294s.294.131.294.294v1.926h1.925c.163,0,.295.131.295.294ZM0,2.515V.295C0,.132.132,0,.295,0h2.22c.163,0,.294.131.294.294s-.131.294-.294.294H.59v1.926c0,.163-.131.294-.294.294S0,2.678,0,2.515ZM16.892,16.901v2.22c0,.163-.131.294-.294.294h-2.22c-.163,0-.294-.131-.294-.294s.131-.294.294-.294h1.925v-1.926c0-.163.131-.294.294-.294s.295.131.295.294ZM16.892.295v2.22c0,.163-.131.294-.294.294s-.294-.131-.294-.294V.589h-1.926c-.163,0-.294-.131-.294-.294S14.215,0,14.378,0h2.22c.163,0,.294.131.294.294ZM8.446,18.781l7.858-4.537V5.51l-3.171,1.83v4.903c0,.105-.055.202-.146.255l-4.393,2.536c-.09.053-.203.053-.294,0l-4.393-2.536c-.091-.053-.147-.15-.147-.255v-4.903l-3.171-1.83v8.734s7.857,4.537,7.857,4.537ZM8.446,9.368l-3.804-2.196,3.804-2.196,3.805,2.196-3.805,2.196ZM4.348,12.074v-4.394l3.805,2.196v4.393l-3.805-2.195ZM12.545,12.074l-3.805,2.196v-4.393l3.805-2.196v4.393ZM8.446.634L.883,5.001l3.171,1.83,4.246-2.451c.091-.053.203-.053.294,0l4.246,2.451,3.171-1.83L8.448.634h-.002ZM16.745,4.747L8.593.04c-.091-.053-.203-.053-.294,0L.147,4.747c-.091.053-.147.15-.147.255v9.413c0,.105.055.202.147.255l8.152,4.707c.091.053.203.053.294,0l8.152-4.707c.091-.053.147-.15.147-.255V5.002c0-.106-.056-.202-.147-.255Z"/></g></svg>