<?xml version="1.0" encoding="UTF-8"?><svg id="Layer_2" xmlns="http://www.w3.org/2000/svg" viewBox="0 0 25.124 25.125"><defs><style>.cls-1{fill:#010101;}</style></defs><g id="Layer_6"><path class="cls-1" d="M12.723,2.539h1.395c.154,0,.279-.125.279-.279s-.125-.279-.279-.279h-1.395c-.154,0-.279.125-.279.279s.125.279.279.279Z"/><path class="cls-1" d="M5.748,2.539c.154,0,.279-.125.279-.279s-.125-.279-.279-.279h-.376c-.47,0-.851-.381-.851-.851h0c0-.622-.509-1.13-1.131-1.13H1.13C.509,0,0,.509,0,1.131v2.26c0,.622.509,1.13,1.13,1.13h2.26c.622,0,1.13-.509,1.13-1.13h0c0-.47.381-.851.851-.851h.377ZM3.111,3.963h-1.702c-.47,0-.851-.381-.851-.851v-1.702c0-.47.381-.851.851-.851h1.702c.47,0,.851.381.851.851v1.702c0,.47-.381.851-.851.851Z"/><path class="cls-1" d="M15.514,2.539h1.395c.154,0,.279-.125.279-.279s-.125-.279-.279-.279h-1.395c-.154,0-.279.125-.279.279s.125.279.279.279Z"/><path class="cls-1" d="M9.933,2.539h1.395c.154,0,.279-.125.279-.279s-.125-.279-.279-.279h-1.395c-.154,0-.279.125-.279.279s.125.279.279.279Z"/><path class="cls-1" d="M18.304,2.539h1.395c.154,0,.279-.125.279-.279s-.125-.279-.279-.279h-1.395c-.154,0-.279.125-.279.279s.125.279.279.279Z"/><path class="cls-1" d="M7.143,2.539h1.395c.154,0,.279-.125.279-.279s-.125-.279-.279-.279h-1.395c-.154,0-.279.125-.279.279s.125.279.279.279Z"/><path class="cls-1" d="M1.981,18.018c0,.154.125.279.279.279s.279-.125.279-.279v-1.395c0-.154-.125-.279-.279-.279s-.279.125-.279.279v1.395Z"/><path class="cls-1" d="M1.981,15.228c0,.154.125.279.279.279s.279-.125.279-.279v-1.395c0-.154-.125-.279-.279-.279s-.279.125-.279.279c0,0,0,1.395,0,1.395Z"/><path class="cls-1" d="M1.981,12.438c0,.154.125.279.279.279s.279-.125.279-.279v-1.395c0-.154-.125-.279-.279-.279s-.279.125-.279.279v1.395Z"/><path class="cls-1" d="M1.981,9.647c0,.154.125.279.279.279s.279-.125.279-.279v-1.395c0-.154-.125-.279-.279-.279s-.279.125-.279.279c0,0,0,1.395,0,1.395Z"/><path class="cls-1" d="M2.26,7.136c.154,0,.279-.125.279-.279v-1.395c0-.154-.125-.279-.279-.279s-.279.125-.279.279v1.395c0,.154.125.279.279.279Z"/><path class="cls-1" d="M15.243,22.586h-1.395c-.154,0-.279.125-.279.279s.125.279.279.279h1.395c.154,0,.279-.125.279-.279s-.125-.279-.279-.279Z"/><path class="cls-1" d="M6.872,22.586h-1.395c-.154,0-.279.125-.279.279s.125.279.279.279h1.395c.154,0,.279-.125.279-.279s-.125-.279-.279-.279Z"/><path class="cls-1" d="M12.453,22.586h-1.395c-.154,0-.279.125-.279.279s.125.279.279.279h1.395c.154,0,.279-.125.279-.279s-.125-.279-.279-.279Z"/><path class="cls-1" d="M18.034,22.586h-1.395c-.154,0-.279.125-.279.279s.125.279.279.279h1.395c.154,0,.279-.125.279-.279s-.125-.279-.279-.279Z"/><path class="cls-1" d="M9.663,22.586h-1.395c-.154,0-.279.125-.279.279s.125.279.279.279h1.395c.154,0,.279-.125.279-.279s-.125-.279-.279-.279Z"/><path class="cls-1" d="M22.585,11.324c0,.154.125.279.279.279s.279-.125.279-.279v-1.395c0-.154-.125-.279-.279-.279s-.279.125-.279.279c0,0,0,1.395,0,1.395Z"/><path class="cls-1" d="M22.585,16.904c0,.154.125.279.279.279s.279-.125.279-.279v-1.395c0-.154-.125-.279-.279-.279s-.279.125-.279.279v1.395Z"/><path class="cls-1" d="M22.865,8.812c.154,0,.279-.125.279-.279v-1.395c0-.154-.125-.279-.279-.279s-.279.125-.279.279v1.395c0,.154.125.279.279.279Z"/><path class="cls-1" d="M22.585,19.695c0,.154.125.279.279.279s.279-.125.279-.279v-1.395c0-.154-.125-.279-.279-.279s-.279.125-.279.279v1.395Z"/><path class="cls-1" d="M22.585,14.114c0,.154.125.279.279.279s.279-.125.279-.279v-1.395c0-.154-.125-.279-.279-.279s-.279.125-.279.279v1.395Z"/><path class="cls-1" d="M24.845,0h-3.111c-.622,0-1.13.509-1.13,1.13v2.26c0,.622.509,1.13,1.13,1.13h0c.47,0,.851.381.851.851v.374c0,.154.125.279.279.279s.279-.125.279-.279v-.374c0-.47.381-.851.851-.851h0c.622,0,1.13-.509,1.13-1.13V.28c0-.154-.126-.279-.28-.279h0ZM23.715,3.963h-1.702c-.47,0-.851-.381-.851-.851v-1.702c0-.47.381-.851.851-.851h1.702c.47,0,.851.381.851.851v1.702c0,.47-.381.851-.851.851Z"/><path class="cls-1" d="M4.241,20.605h-.851c-.47,0-.851-.381-.851-.851v-.34c0-.154-.125-.279-.279-.279s-.279.125-.279.279v.34c0,.47-.381.851-.851.851h0c-.622,0-1.13.509-1.13,1.13v2.259c0,.622.509,1.13,1.13,1.13h2.259c.622,0,1.13-.509,1.13-1.13v-3.111c0-.154-.125-.279-.279-.279h.001ZM3.111,24.567h-1.701c-.47,0-.851-.381-.851-.851v-1.701c0-.47.381-.851.851-.851h1.701c.47,0,.851.381.851.851v1.701c0,.47-.381.851-.851.851Z"/><path class="cls-1" d="M24.845,20.605h-3.111c-.622,0-1.13.509-1.13,1.13h0c0,.47-.381.851-.851.851h-.324c-.154,0-.279.125-.279.279s.125.279.279.279h.324c.47,0,.851.381.851.851h0c0,.622.509,1.13,1.13,1.13h2.259c.622,0,1.13-.509,1.13-1.13v-3.111c0-.154-.125-.279-.279-.279h.001ZM23.715,24.567h-1.701c-.47,0-.851-.381-.851-.851v-1.701c0-.47.381-.851.851-.851h1.701c.47,0,.851.381.851.851v1.701c0,.47-.381.851-.851.851Z"/><path class="cls-1" d="M14.775,16.486c.056.056.125.081.198.081s.143-.028.198-.081l1.386-1.386c.053-.053.081-.123.081-.198s-.031-.145-.081-.198l-3.041-3.041,1.245-1.245c.07-.07.098-.168.075-.263-.022-.095-.092-.17-.184-.201l-6.364-2.096c-.1-.034-.209-.005-.284.066-.075.075-.1.184-.066.284l2.096,6.364c.031.092.106.161.201.184.095.022.193-.005.263-.075l1.245-1.245,3.041,3.041-.008.008h0ZM10.416,13.974l-1.78-5.411,5.411,1.78-1.122,1.122c-.053.053-.081.123-.081.198s.031.145.081.198l3.041,3.041-.993.993-3.041-3.041c-.056-.056-.125-.081-.198-.081s-.143.028-.198.081l-1.122,1.122.002-.002h0Z"/></g></svg>